{
copyright = "Copyright (c) 2022 by Thanos Poulakidas. All rights reserved.";
familyName = "Geom ";
customParameters = (
{
name = glyphOrder;
value = (
.notdef,
null,
nonmarkingreturn,
space,
exclam,
quotedbl,
numbersign,
dollar,
percent,
ampersand,
quotesingle,
parenleft,
parenright,
asterisk,
plus,
comma,
hyphen,
period,
slash,
zero,
one,
two,
three,
four,
five,
six,
seven,
eight,
nine,
colon,
semicolon,
less,
equal,
greater,
question,
at,
A,
B,
C,
D,
E,
F,
G,
H,
J,
K,
L,
M,
N,
O,
P,
Q,
R,
S,
T,
U,
V,
W,
X,
Y,
Z,
bracketleft,
backslash,
bracketright,
asciicircum,
underscore,
grave,
a,
b,
c,
d,
e,
f,
g,
h,
i,
j,
k,
l,
m,
n,
o,
p,
q,
r,
s,
t,
u,
v,
w,
x,
y,
z,
braceleft,
bar,
braceright,
asciitilde,
uni00A0,
exclamdown,
cent,
sterling,
currency,
yen,
brokenbar,
section,
dieresis,
copyright,
ordfeminine,
guillemotleft,
logicalnot,
uni00AD,
registered,
degree,
plusminus,
twosuperior,
threesuperior,
acute,
uni00B5,
paragraph,
periodcentered,
cedilla,
onesuperior,
ordmasculine,
guillemotright,
onequarter,
onehalf,
threequarters,
questiondown,
Agrave,
Aacute,
Acircumflex,
Atilde,
Adieresis,
Aring,
AE,
Ccedilla,
Egrave,
Eacute,
Ecircumflex,
Edieresis,
Eth,
Ntilde,
Ograve,
Oacute,
Ocircumflex,
Otilde,
Odieresis,
multiply,
Oslash,
Ugrave,
Uacute,
Ucircumflex,
Udieresis,
Yacute,
Thorn,
germandbls,
agrave,
aacute,
acircumflex,
atilde,
adieresis,
aring,
ae,
ccedilla,
egrave,
eacute,
ecircumflex,
edieresis,
igrave,
iacute,
icircumflex,
idieresis,
eth,
ntilde,
ograve,
oacute,
ocircumflex,
otilde,
odieresis,
divide,
oslash,
ugrave,
uacute,
ucircumflex,
udieresis,
yacute,
thorn,
ydieresis,
Amacron,
amacron,
Abreve,
abreve,
Aogonek,
aogonek,
Cacute,
cacute,
Ccircumflex,
ccircumflex,
Cdotaccent,
cdotaccent,
Ccaron,
ccaron,
Dcaron,
dcaron,
Dcroat,
dcroat,
Emacron,
emacron,
Ebreve,
ebreve,
Edotaccent,
edotaccent,
Eogonek,
eogonek,
Ecaron,
ecaron,
Gcircumflex,
gcircumflex,
Gbreve,
gbreve,
Gdotaccent,
gdotaccent,
uni0122,
uni0123,
Hcircumflex,
hcircumflex,
itilde,
imacron,
ibreve,

glyphs = (
{
glyphname = .notdef;
layers = (
{
hints = (
{
horizontal = 1;
place = "{0, 57}";
type = Stem;
},
{
horizontal = 1;
place = "{663, 57}";
type = Stem;
},
{
place = "{2, 66}";
type = Stem;
},
{
place = "{462, 66}";
type = Stem;
}
);
layerId = "19D549C8-9BA7-4C6B-AF4A-F08379699900";
paths = (
{
closed = 1;
nodes = (
"2 0 LINE",
"528 0 LINE",
"528 720 LINE",
"2 720 LINE"
);
},
{
closed = 1;
nodes = (
"265 419 LINE",
"100 663 LINE",
"429 663 LINE"
);
},
{
closed = 1;
nodes = (
"68 599 LINE",
"227 360 LINE",
"68 124 LINE"
);
},
{
closed = 1;
nodes = (
"303 360 LINE",
"462 598 LINE",
"462 124 LINE"
);
},
{
closed = 1;
nodes = (
"100 57 LINE",
"265 303 LINE",
"429 57 LINE"
);
}
);
width = 529;
}
);
},
{
glyphname = exclam;
layers = (
{
hints = (
{
place = "{81, 135}";
type = Stem;
},
{
place = "{105, 87}";
type = Stem;
},
{
horizontal = 1;
place = "{-11, 132}";
type = Stem;
},
{
horizontal = 1;
place = "{704, -20}";
target = down;
type = TopGhost;
}
);
layerId = "19D549C8-9BA7-4C6B-AF4A-F08379699900";
paths = (
{
closed = 1;
nodes = (
"89 704 LINE",
"93 620 LINE",
"117 207 LINE",
"180 207 LINE",
"204 620 LINE",
"207 704 LINE"
);
},
{
closed = 1;
nodes = (
"81 15 OFFCURVE",
"111 -11 OFFCURVE",
"149 -11 CURVE SMOOTH",
"186 -11 OFFCURVE",
"216 15 OFFCURVE",
"216 56 CURVE SMOOTH",
"216 92 OFFCURVE",
"186 121 OFFCURVE",
"149 121 CURVE SMOOTH",
"112 121 OFFCURVE",
"81 92 OFFCURVE",
"81 56 CURVE SMOOTH"
);
}
);
width = 299;
}
);
unicode = 0021;
},
{
glyphname = quotedbl;
layers = (
{
hints = (
{
place = "{74, 327}";
type = Stem;
},
{
horizontal = 1;
place = "{426, 281}";
type = Stem;
},
{
horizontal = 1;
place = "{707, -20}";
target = down;
type = TopGhost;
}
);
layerId = "19D549C8-9BA7-4C6B-AF4A-F08379699900";
paths = (
{
closed = 1;
nodes = (
"137 426 LINE",
"199 662 LINE",
"209 707 LINE",
"100 707 LINE",
"74 426 LINE"
);
},
{
closed = 1;
nodes = (
"266 426 LINE",
"329 426 LINE",
"391 662 LINE",
"401 707 LINE",
"292 707 LINE"
);
}
);
width = 474;
}
);
unicode = 0022;
},
{
glyphname = numbersign;
layers = (
{
hints = (
{
horizontal = 1;
place = "{0, 21}";
target = up;
type = BottomGhost;
},
{
horizontal = 1;
place = "{184, 86}";
type = Stem;
},
{
horizontal = 1;
place = "{440, 87}";
type = Stem;
},
{
horizontal = 1;
place = "{705, -20}";
target = down;
type = TopGhost;
},
{
place = "{25, 577}";
type = Stem;
}
);
layerId = "19D549C8-9BA7-4C6B-AF4A-F08379699900";
paths = (
{
closed = 1;
nodes = (
"96 0 LINE",
"181 0 LINE",
"209 184 LINE",
"366 184 LINE",
"339 0 LINE",
"424 0 LINE",
"451 184 LINE",
"569 184 LINE",
"569 271 LINE",
"465 271 LINE",
"492 440 LINE",
"602 440 LINE",
"602 527 LINE",
"506 527 LINE",
"532 705 LINE",
"447 705 LINE",
"421 527 LINE",
"264 527 LINE",
"291 705 LINE",
"206 705 LINE",
"179 527 LINE",
"58 527 LINE",
"58 440 LINE",
"166 440 LINE",
"139 271 LINE",
"25 271 LINE",
"25 185 LINE",
"125 185 LINE"
);
},
{
closed = 1;
nodes = (
"408 440 LINE",
"381 270 LINE",
"222 270 LINE",
"249 440 LINE"
);
}
);
width = 625;
}
);
unicode = 0023;
},
{
glyphname = dollar;
layers = (
{
hints = (
{
place = "{57, 98}";
type = Stem;
},
{
place = "{259, 69}";
type = Stem;
},
{
place = "{438, 98}";
type = Stem;
},
{
horizontal = 1;
place = "{-3, 81}";
type = Stem;
},
{
horizontal = 1;
place = "{624, 150}";
type = Stem;
},
{
horizontal = 1;
place = "{709, -20}";
target = down;
type = TopGhost;
}
);
layerId = "19D549C8-9BA7-4C6B-AF4A-F08379699900";
paths = (
{
closed = 1;
nodes = (
"258 -96 LINE",
"330 -96 LINE",
"330 -3 LINE",
"450 10 OFFCURVE",
"536 87 OFFCURVE",
"536 195 CURVE SMOOTH",
"536 292 OFFCURVE",
"471 349 OFFCURVE",
"328 396 CURVE",
"328 624 LINE",
"376 619 OFFCURVE",
"418 594 OFFCURVE",
"443 559 CURVE",
"502 620 LINE",
"470 661 OFFCURVE",
"417 701 OFFCURVE",
"330 709 CURVE",
"330 774 LINE",
"258 774 LINE",
"258 709 LINE",
"142 698 OFFCURVE",
"57 625 OFFCURVE",
"57 519 CURVE SMOOTH",
"57 414 OFFCURVE",
"132 356 OFFCURVE",
"259 314 CURVE",
"259 78 LINE",
"187 83 OFFCURVE",
"130 120 OFFCURVE",
"87 165 CURVE",
"29 101 LINE",
"84 42 OFFCURVE",
"163 -3 OFFCURVE",
"258 -3 CURVE"
);
},
{
closed = 1;
nodes = (
"155 581 OFFCURVE",
"190 619 OFFCURVE",
"259 626 CURVE",
"259 418 LINE",
"193 446 OFFCURVE",
"155 475 OFFCURVE",
"155 529 CURVE SMOOTH"
);
},
{
closed = 1;
nodes = (
"438 130 OFFCURVE",
"404 90 OFFCURVE",
"329 79 CURVE",
"329 294 LINE",
"420 265 OFFCURVE",
"438 220 OFFCURVE",
"438 182 CURVE SMOOTH"
);
}
);
width = 578;
}
);
unicode = 0024;
},
{
glyphname = percent;
layers = (
{
hints = (
{
place = "{43, 76}";
type = Stem;
},
{
place = "{303, 76}";
type = Stem;
},
{
place = "{471, 76}";
type = Stem;
},
{
place = "{730, 76}";
type = Stem;
},
{
horizontal = 1;
place = "{-11, 69}";
type = Stem;
},
{
horizontal = 1;
place = "{-16, 21}";
target = up;
type = BottomGhost;
},
{
horizontal = 1;
place = "{-3, 21}";
target = up;
type = BottomGhost;
},
{
horizontal = 1;
place = "{283, 68}";
type = Stem;
},
{
horizontal = 1;
place = "{356, 69}";
type = Stem;
},
{
horizontal = 1;
place = "{653, 68}";
type = Stem;
},
{
horizontal = 1;
place = "{708, -20}";
target = down;
type = TopGhost;
}
);
layerId = "19D549C8-9BA7-4C6B-AF4A-F08379699900";
paths = (
{
closed = 1;
nodes = (
"379 641 OFFCURVE",
"313 721 OFFCURVE",
"212 721 CURVE SMOOTH",
"113 721 OFFCURVE",
"43 640 OFFCURVE",
"43 540 CURVE SMOOTH",
"43 437 OFFCURVE",
"111 356 OFFCURVE",
"211 356 CURVE SMOOTH",
"311 356 OFFCURVE",
"379 439 OFFCURVE",
"379 541 CURVE SMOOTH"
);
},
{
closed = 1;
nodes = (
"707 708 LINE",
"629 719 LINE",
"138 -3 LINE",
"215 -16 LINE"
);
},
{
closed = 1;
nodes = (
"303 472 OFFCURVE",
"270 425 OFFCURVE",
"212 425 CURVE SMOOTH",
"156 425 OFFCURVE",
"119 471 OFFCURVE",
"119 540 CURVE SMOOTH",
"119 605 OFFCURVE",
"155 653 OFFCURVE",
"211 653 CURVE SMOOTH",
"263 653 OFFCURVE",
"303 607 OFFCURVE",
"303 536 CURVE SMOOTH"
);
},
{
closed = 1;
nodes = (
"806 272 OFFCURVE",
"739 351 OFFCURVE",
"639 351 CURVE SMOOTH",
"541 351 OFFCURVE",
"471 271 OFFCURVE",
"471 170 CURVE SMOOTH",
"471 70 OFFCURVE",
"536 -11 OFFCURVE",
"638 -11 CURVE SMOOTH",
"738 -11 OFFCURVE",
"806 71 OFFCURVE",
"806 171 CURVE SMOOTH"
);
},
{
closed = 1;
nodes = (
"730 106 OFFCURVE",
"695 58 OFFCURVE",
"639 58 CURVE SMOOTH",
"587 58 OFFCURVE",
"547 100 OFFCURVE",
"547 170 CURVE SMOOTH",
"547 238 OFFCURVE",
"582 283 OFFCURVE",
"638 283 CURVE SMOOTH",
"693 283 OFFCURVE",
"730 237 OFFCURVE",
"730 170 CURVE SMOOTH"
);
}
);
width = 849;
}
);
unicode = 0025;
},
{
glyphname = ampersand;
layers = (
{
hints = (
{
place = "{53, 105}";
type = Stem;
},
{
place = "{153, 94}";
type = Stem;
},
{
place = "{419, 92}";
type = Stem;
},
{
horizontal = 1;
place = "{-11, 80}";
type = Stem;
},
{
horizontal = 1;
place = "{-5, 21}";
target = up;
type = BottomGhost;
},
{
horizontal = 1;
place = "{640, 79}";
type = Stem;
}
);
layerId = "19D549C8-9BA7-4C6B-AF4A-F08379699900";
paths = (
{
closed = 1;
nodes = (
"579 373 LINE",
"555 320 OFFCURVE",
"530 275 OFFCURVE",
"499 227 CURVE",
"357 383 LINE",
"449 422 OFFCURVE",
"511 475 OFFCURVE",
"511 563 CURVE SMOOTH",
"511 649 OFFCURVE",
"439 719 OFFCURVE",
"335 719 CURVE SMOOTH",
"229 719 OFFCURVE",
"153 652 OFFCURVE",
"153 556 CURVE SMOOTH",
"153 501 OFFCURVE",
"179 453 OFFCURVE",
"218 403 CURVE",
"113 363 OFFCURVE",
"53 293 OFFCURVE",
"53 192 CURVE SMOOTH",
"53 67 OFFCURVE",
"152 -11 OFFCURVE",
"280 -11 CURVE SMOOTH",
"367 -11 OFFCURVE",
"433 25 OFFCURVE",
"494 86 CURVE",
"582 -5 LINE",
"688 16 LINE",
"556 161 LINE",
"595 217 OFFCURVE",
"631 281 OFFCURVE",
"662 346 CURVE"
);
},
{
closed = 1;
nodes = (
"382 640 OFFCURVE",
"419 608 OFFCURVE",
"419 558 CURVE SMOOTH",
"419 506 OFFCURVE",
"372 464 OFFCURVE",
"307 439 CURVE",
"270 483 OFFCURVE",
"247 518 OFFCURVE",
"247 555 CURVE SMOOTH",
"247 606 OFFCURVE",
"284 640 OFFCURVE",
"334 640 CURVE SMOOTH"
);
},
{
closed = 1;
nodes = (
"438 152 LINE",
"397 105 OFFCURVE",
"349 69 OFFCURVE",
"288 69 CURVE SMOOTH",
"210 69 OFFCURVE",
"158 126 OFFCURVE",
"158 197 CURVE SMOOTH",
"158 262 OFFCURVE",
"198 307 OFFCURVE",
"270 340 CURVE"
);
}
);
width = 695;
}
);
unicode = 0026;
},
{
glyphname = quotesingle;
layers = (
{
hints = (
{
horizontal = 1;
place = "{707, -20}";
target = down;
type = TopGhost;
},
{
place = "{74, 136}";
type = Stem;
}
);
layerId = "19D549C8-9BA7-4C6B-AF4A-F08379699900";
paths = (
{
closed = 1;
nodes = (
"74 426 LINE",
"137 426 LINE",
"200 662 LINE",
"210 707 LINE",
"99 707 LINE"
);
}
);
width = 284;
}
);
unicode = 0027;
},
{
glyphname = parenleft;
layers = (
{
hints = (
{
horizontal = 1;
place = "{-158, 890}";
type = Stem;
},
{
place = "{75, 99}";
type = Stem;
}
);
layerId = "19D549C8-9BA7-4C6B-AF4A-F08379699900";
paths = (
{
closed = 1;
nodes = (
"174 439 OFFCURVE",
"235 556 OFFCURVE",
"361 671 CURVE",
"309 732 LINE",
"159 610 OFFCURVE",
"75 469 OFFCURVE",
"75 285 CURVE SMOOTH",
"75 98 OFFCURVE",
"163 -48 OFFCURVE",
"310 -158 CURVE",
"360 -99 LINE",
"235 17 OFFCURVE",
"174 132 OFFCURVE",
"174 285 CURVE SMOOTH"
);
}
);
width = 409;
}
);
unicode = 0028;
},
{
glyphname = parenright;
layers = (
{
hints = (
{
horizontal = 1;
place = "{-158, 890}";
type = Stem;
},
{
place = "{237, 99}";
type = Stem;
}
);
layerId = "19D549C8-9BA7-4C6B-AF4A-F08379699900";
paths = (
{
closed = 1;
nodes = (
"237 135 OFFCURVE",
"180 17 OFFCURVE",
"49 -99 CURVE",
"101 -158 LINE",
"249 -43 OFFCURVE",
"336 100 OFFCURVE",
"336 285 CURVE SMOOTH",
"336 467 OFFCURVE",
"253 607 OFFCURVE",
"102 732 CURVE",
"48 671 LINE",
"181 556 OFFCURVE",
"237 436 OFFCURVE",
"237 285 CURVE SMOOTH"
);
}
);
width = 411;
}
);
unicode = 0029;
},
{
glyphname = asterisk;
layers = (
{
hints = (
{
horizontal = 1;
place = "{423, 300}";
type = Stem;
},
{
place = "{151, 64}";
type = Stem;
}
);
layerId = "19D549C8-9BA7-4C6B-AF4A-F08379699900";
paths = (
{
closed = 1;
nodes = (
"131 599 LINE",
"26 563 LINE",
"47 502 LINE",
"151 537 LINE",
"151 423 LINE",
"215 423 LINE",
"215 536 LINE",
"318 502 LINE",
"338 563 LINE",
"236 598 LINE",
"300 688 LINE",
"247 723 LINE",
"183 637 LINE",
"118 723 LINE",
"65 686 LINE"
);
}
);
width = 364;
}
);
unicode = 002A;
},
{
glyphname = plus;
layers = (
{
hints = (
{
horizontal = 1;
place = "{301, 90}";
type = Stem;
},
{
place = "{253, 93}";
type = Stem;
}
);
layerId = "19D549C8-9BA7-4C6B-AF4A-F08379699900";
paths = (
{
closed = 1;
nodes = (
"346 592 LINE",
"253 592 LINE",
"253 391 LINE",
"53 391 LINE",
"53 301 LINE",
"253 301 LINE",
"253 99 LINE",
"346 99 LINE",
"346 301 LINE",
"547 301 LINE",
"547 391 LINE",
"346 391 LINE"
);
}
);
width = 600;
}
);
unicode = 002B;
},
{
glyphname = comma;
layers = (
{
hints = (
{
horizontal = 1;
place = "{-143, 276}";
type = Stem;
},
{
place = "{30, 158}";
type = Stem;
}
);
layerId = "19D549C8-9BA7-4C6B-AF4A-F08379699900";
paths = (
{
closed = 1;
nodes = (
"188 133 LINE",
"77 133 LINE",
"30 -143 LINE",
"110 -143 LINE"
);
}
);
width = 257;
}
);
unicode = 002C;
},
{
glyphname = hyphen;
layers = (
{
hints = (
{
horizontal = 1;
place = "{227, 92}";
type = Stem;
},
{
place = "{29, 281}";
type = Stem;
}
);
layerId = "19D549C8-9BA7-4C6B-AF4A-F08379699900";
paths = (
{
closed = 1;
nodes = (
"310 319 LINE",
"29 319 LINE",
"29 227 LINE",
"310 227 LINE"
);
}
);
width = 339;
}
);
unicode = 002D;
},
{
glyphname = period;
layers = (
{
hints = (
{
horizontal = 1;
place = "{-11, 137}";
type = Stem;
},
{
place = "{82, 136}";
type = Stem;
}
);
layerId = "19D549C8-9BA7-4C6B-AF4A-F08379699900";
paths = (
{
closed = 1;
nodes = (
"82 19 OFFCURVE",
"112 -11 OFFCURVE",
"150 -11 CURVE SMOOTH",
"188 -11 OFFCURVE",
"218 19 OFFCURVE",
"218 58 CURVE SMOOTH",
"218 97 OFFCURVE",
"188 126 OFFCURVE",
"150 126 CURVE SMOOTH",
"112 126 OFFCURVE",
"82 97 OFFCURVE",
"82 58 CURVE SMOOTH"
);
}
);
width = 300;
}
);
unicode = 002E;
},
{
glyphname = slash;
layers = (
{
hints = (
{
horizontal = 1;
place = "{-96, 882}";
type = Stem;
},
{
place = "{2, 514}";
type = Stem;
}
);
layerId = "19D549C8-9BA7-4C6B-AF4A-F08379699900";
paths = (
{
closed = 1;
nodes = (
"516 773 LINE",
"433 786 LINE",
"2 -86 LINE",
"84 -96 LINE"
);
}
);
width = 518;
}
);
unicode = 002F;
},
{
glyphname = zero;
layers = (
{
hints = (
{
horizontal = 1;
place = "{-14, 92}";
type = Stem;
},
{
horizontal = 1;
place = "{626, 92}";
type = Stem;
},
{
place = "{43, 105}";
type = Stem;
},
{
place = "{489, 105}";
type = Stem;
}
);
layerId = "19D549C8-9BA7-4C6B-AF4A-F08379699900";
paths = (
{
closed = 1;
nodes = (
"141 718 OFFCURVE",
"43 564 OFFCURVE",
"43 353 CURVE SMOOTH",
"43 134 OFFCURVE",
"140 -14 OFFCURVE",
"318 -14 CURVE SMOOTH",
"498 -14 OFFCURVE",
"594 142 OFFCURVE",
"594 352 CURVE SMOOTH",
"594 568 OFFCURVE",
"496 718 OFFCURVE",
"319 718 CURVE SMOOTH"
);
},
{
closed = 1;
nodes = (
"426 626 OFFCURVE",
"489 514 OFFCURVE",
"489 352 CURVE SMOOTH",
"489 193 OFFCURVE",
"428 78 OFFCURVE",
"320 78 CURVE SMOOTH",
"209 78 OFFCURVE",
"148 188 OFFCURVE",
"148 356 CURVE SMOOTH",
"148 512 OFFCURVE",
"210 626 OFFCURVE",
"318 626 CURVE SMOOTH"
);
}
);
width = 636;
}
);
unicode = 0030;
},
{
glyphname = one;
layers = (
{
hints = (
{
horizontal = 1;
place = "{0, 21}";
target = up;
type = BottomGhost;
},
{
horizontal = 1;
place = "{612, 96}";
type = Stem;
},
{
place = "{125, 102}";
type = Stem;
}
);
layerId = "19D549C8-9BA7-4C6B-AF4A-F08379699900";
paths = (
{
closed = 1;
nodes = (
"227 708 LINE",
"9 708 LINE",
"9 612 LINE",
"125 612 LINE",
"125 0 LINE",
"227 0 LINE"
);
}
);
width = 330;
}
);
unicode = 0031;
},
{
glyphname = two;
layers = (
{
hints = (
{
horizontal = 1;
place = "{0, 90}";
type = Stem;
},
{
horizontal = 1;
place = "{626, 91}";
type = Stem;
},
{
place = "{400, 106}";
type = Stem;
}
);
layerId = "19D549C8-9BA7-4C6B-AF4A-F08379699900";
paths = (
{
closed = 1;
nodes = (
"149 717 OFFCURVE",
"60 650 OFFCURVE",
"40 503 CURVE",
"147 503 LINE",
"158 577 OFFCURVE",
"205 626 OFFCURVE",
"283 626 CURVE SMOOTH",
"368 626 OFFCURVE",
"400 577 OFFCURVE",
"400 525 CURVE SMOOTH",
"400 473 OFFCURVE",
"366 410 OFFCURVE",
"288 313 CURVE",
"29 0 LINE",
"519 0 LINE",
"519 90 LINE",
"224 90 LINE",
"367 262 LINE SMOOTH",
"464 378 OFFCURVE",
"506 449 OFFCURVE",
"506 522 CURVE SMOOTH",
"506 634 OFFCURVE",
"412 717 OFFCURVE",
"283 717 CURVE SMOOTH"
);
}
);
width = 586;
}
);
unicode = 0032;
},
{
glyphname = three;
layers = (
{
hints = (
{
horizontal = 1;
place = "{-13, 91}";
type = Stem;
},
{
horizontal = 1;
place = "{364, 74}";
type = Stem;
},
{
horizontal = 1;
place = "{626, 89}";
type = Stem;
},
{
place = "{445, 103}";
type = Stem;
}
);
layerId = "19D549C8-9BA7-4C6B-AF4A-F08379699900";
paths = (
{
closed = 1;
nodes = (
"521 630 LINE",
"521 715 LINE",
"94 715 LINE",
"94 626 LINE",
"393 626 LINE",
"190 412 LINE",
"204 358 LINE",
"226 362 OFFCURVE",
"255 364 OFFCURVE",
"277 364 CURVE SMOOTH",
"373 364 OFFCURVE",
"445 323 OFFCURVE",
"445 222 CURVE SMOOTH",
"445 133 OFFCURVE",
"383 78 OFFCURVE",
"300 78 CURVE SMOOTH",
"217 78 OFFCURVE",
"165 124 OFFCURVE",
"131 208 CURVE",
"51 148 LINE",
"93 52 OFFCURVE",
"179 -13 OFFCURVE",
"301 -13 CURVE SMOOTH",
"444 -13 OFFCURVE",
"548 91 OFFCURVE",
"548 224 CURVE SMOOTH",
"548 357 OFFCURVE",
"454 432 OFFCURVE",
"331 438 CURVE"
);
}
);
width = 615;
}
);
unicode = 0033;
},
{
glyphname = four;
layers = (
{
hints = (
{
place = "{401, 100}";
type = Stem;
},
{
horizontal = 1;
place = "{0, 21}";
target = up;
type = BottomGhost;
},
{
horizontal = 1;
place = "{150, 85}";
type = Stem;
},
{
horizontal = 1;
place = "{609, 102}";
type = Stem;
},
{
horizontal = 1;
place = "{711, -20}";
target = down;
type = TopGhost;
}
);
layerId = "19D549C8-9BA7-4C6B-AF4A-F08379699900";
paths = (
{
closed = 1;
nodes = (
"363 711 LINE",
"15 237 LINE",
"33 150 LINE",
"401 150 LINE",
"401 0 LINE",
"501 0 LINE",
"501 150 LINE",
"598 150 LINE",
"598 235 LINE",
"501 235 LINE",
"501 711 LINE"
);
},
{
closed = 1;
nodes = (
"401 235 LINE",
"129 235 LINE",
"401 609 LINE"
);
}
);
width = 632;
}
);
unicode = 0034;
},
{
glyphname = five;
layers = (
{
hints = (
{
horizontal = 1;
place = "{-13, 90}";
type = Stem;
},
{
horizontal = 1;
place = "{360, 87}";
type = Stem;
},
{
horizontal = 1;
place = "{615, 89}";
type = Stem;
},
{
place = "{412, 102}";
type = Stem;
}
);
layerId = "19D549C8-9BA7-4C6B-AF4A-F08379699900";
paths = (
{
closed = 1;
nodes = (
"146 339 LINE",
"178 352 OFFCURVE",
"210 360 OFFCURVE",
"246 360 CURVE SMOOTH",
"340 360 OFFCURVE",
"412 303 OFFCURVE",
"412 221 CURVE SMOOTH",
"412 136 OFFCURVE",
"353 77 OFFCURVE",
"255 77 CURVE SMOOTH",
"189 77 OFFCURVE",
"133 106 OFFCURVE",
"83 154 CURVE",
"23 85 LINE",
"89 24 OFFCURVE",
"155 -13 OFFCURVE",
"256 -13 CURVE SMOOTH",
"411 -13 OFFCURVE",
"514 81 OFFCURVE",
"514 225 CURVE SMOOTH",
"514 363 OFFCURVE",
"405 447 OFFCURVE",
"273 447 CURVE SMOOTH",
"234 447 OFFCURVE",
"203 438 OFFCURVE",
"165 426 CURVE",
"185 615 LINE",
"484 615 LINE",
"490 704 LINE",
"102 704 LINE",
"72 375 LINE"
);
}
);
width = 574;
}
);
unicode = 0035;
},
{
glyphname = six;
layers = (
{
hints = (
{
horizontal = 1;
place = "{-14, 85}";
type = Stem;
},
{
horizontal = 1;
place = "{353, 80}";
type = Stem;
},
{
horizontal = 1;
place = "{706, -20}";
target = down;
type = TopGhost;
},
{
place = "{47, 104}";
type = Stem;
},
{
place = "{448, 103}";
type = Stem;
}
);
layerId = "19D549C8-9BA7-4C6B-AF4A-F08379699900";
paths = (
{
closed = 1;
nodes = (
"313 706 LINE",
"149 458 LINE SMOOTH",
"80 354 OFFCURVE",
"47 295 OFFCURVE",
"47 224 CURVE SMOOTH",
"47 77 OFFCURVE",
"158 -14 OFFCURVE",
"302 -14 CURVE SMOOTH",
"443 -14 OFFCURVE",
"551 82 OFFCURVE",
"551 219 CURVE SMOOTH",
"551 352 OFFCURVE",
"455 433 OFFCURVE",
"332 433 CURVE SMOOTH",
"287 433 OFFCURVE",
"257 429 OFFCURVE",
"219 402 CURVE",
"426 706 LINE"
);
},
{
closed = 1;
nodes = (
"151 290 OFFCURVE",
"210 353 OFFCURVE",
"300 353 CURVE SMOOTH",
"388 353 OFFCURVE",
"448 295 OFFCURVE",
"448 216 CURVE SMOOTH",
"448 131 OFFCURVE",
"388 71 OFFCURVE",
"301 71 CURVE SMOOTH",
"216 71 OFFCURVE",
"151 134 OFFCURVE",
"151 213 CURVE SMOOTH"
);
}
);
width = 600;
}
);
unicode = 0036;
},
{
glyphname = seven;
layers = (
{
hints = (
{
horizontal = 1;
place = "{0, 21}";
target = up;
type = BottomGhost;
},
{
horizontal = 1;
place = "{615, 89}";
type = Stem;
},
{
place = "{37, 489}";
type = Stem;
}
);
layerId = "19D549C8-9BA7-4C6B-AF4A-F08379699900";
paths = (
{
closed = 1;
nodes = (
"526 617 LINE",
"526 704 LINE",
"37 704 LINE",
"37 615 LINE",
"416 615 LINE",
"78 0 LINE",
"191 0 LINE"
);
}
);
width = 521;
}
);
unicode = 0037;
},
{
glyphname = eight;
layers = (
{
hints = (
{
place = "{67, 103}";
type = Stem;
},
{
place = "{93, 99}";
type = Stem;
},
{
place = "{451, 99}";
type = Stem;
},
{
place = "{473, 102}";
type = Stem;
},
{
horizontal = 1;
place = "{-12, 84}";
type = Stem;
},
{
horizontal = 1;
place = "{324, 81}";
type = Stem;
},
{
horizontal = 1;
place = "{633, 84}";
type = Stem;
}
);
layerId = "19D549C8-9BA7-4C6B-AF4A-F08379699900";
paths = (
{
closed = 1;
nodes = (
"550 638 OFFCURVE",
"445 717 OFFCURVE",
"321 717 CURVE SMOOTH",
"195 717 OFFCURVE",
"93 638 OFFCURVE",
"93 529 CURVE SMOOTH",
"93 456 OFFCURVE",
"133 401 OFFCURVE",
"201 369 CURVE",
"116 333 OFFCURVE",
"67 274 OFFCURVE",
"67 191 CURVE SMOOTH",
"67 75 OFFCURVE",
"176 -12 OFFCURVE",
"321 -12 CURVE SMOOTH",
"465 -12 OFFCURVE",
"575 69 OFFCURVE",
"575 193 CURVE SMOOTH",
"575 275 OFFCURVE",
"525 335 OFFCURVE",
"440 368 CURVE",
"506 402 OFFCURVE",
"550 453 OFFCURVE",
"550 526 CURVE SMOOTH"
);
},
{
closed = 1;
nodes = (
"192 585 OFFCURVE",
"248 633 OFFCURVE",
"321 633 CURVE SMOOTH",
"395 633 OFFCURVE",
"451 585 OFFCURVE",
"451 521 CURVE SMOOTH",
"451 453 OFFCURVE",
"394 405 OFFCURVE",
"321 405 CURVE SMOOTH",
"250 405 OFFCURVE",
"192 454 OFFCURVE",
"192 520 CURVE SMOOTH"
);
},
{
closed = 1;
nodes = (
"170 272 OFFCURVE",
"233 324 OFFCURVE",
"321 324 CURVE SMOOTH",
"409 324 OFFCURVE",
"473 272 OFFCURVE",
"473 199 CURVE SMOOTH",
"473 129 OFFCURVE",
"412 72 OFFCURVE",
"321 72 CURVE SMOOTH",
"228 72 OFFCURVE",
"170 129 OFFCURVE",
"170 199 CURVE SMOOTH"
);
}
);
width = 642;
}
);
unicode = 0038;
},
{
glyphname = nine;
layers = (
{
hints = (
{
horizontal = 1;
place = "{-2, 21}";
target = up;
type = BottomGhost;
},
{
horizontal = 1;
place = "{268, 84}";
type = Stem;
},
{
horizontal = 1;
place = "{634, 86}";
type = Stem;
},
{
place = "{47, 103}";
type = Stem;
},
{
place = "{446, 104}";
type = Stem;
}
);
layerId = "19D549C8-9BA7-4C6B-AF4A-F08379699900";
paths = (
{
closed = 1;
nodes = (
"284 -2 LINE",
"455 253 LINE",
"506 327 OFFCURVE",
"550 398 OFFCURVE",
"550 480 CURVE SMOOTH",
"550 626 OFFCURVE",
"442 720 OFFCURVE",
"294 720 CURVE SMOOTH",
"155 720 OFFCURVE",
"47 622 OFFCURVE",
"47 486 CURVE SMOOTH",
"47 356 OFFCURVE",
"145 268 OFFCURVE",
"268 268 CURVE SMOOTH",
"313 268 OFFCURVE",
"341 277 OFFCURVE",
"377 304 CURVE",
"172 -2 LINE"
);
},
{
closed = 1;
nodes = (
"446 415 OFFCURVE",
"384 352 OFFCURVE",
"297 352 CURVE SMOOTH",
"210 352 OFFCURVE",
"150 412 OFFCURVE",
"150 492 CURVE SMOOTH",
"150 571 OFFCURVE",
"209 634 OFFCURVE",
"296 634 CURVE SMOOTH",
"379 634 OFFCURVE",
"446 571 OFFCURVE",
"446 492 CURVE SMOOTH"
);
}
);
width = 597;
}
);
unicode = 0039;
},
{
glyphname = colon;
layers = (
{
hints = (
{
horizontal = 1;
place = "{-11, 138}";
type = Stem;
},
{
horizontal = 1;
place = "{364, 137}";
type = Stem;
},
{
place = "{81, 138}";
type = Stem;
}
);
layerId = "19D549C8-9BA7-4C6B-AF4A-F08379699900";
paths = (
{
closed = 1;
nodes = (
"81 392 OFFCURVE",
"109 364 OFFCURVE",
"151 364 CURVE SMOOTH",
"187 364 OFFCURVE",
"219 392 OFFCURVE",
"219 433 CURVE SMOOTH",
"219 473 OFFCURVE",
"187 501 OFFCURVE",
"151 501 CURVE SMOOTH",
"109 501 OFFCURVE",
"81 473 OFFCURVE",
"81 433 CURVE SMOOTH"
);
},
{
closed = 1;
nodes = (
"81 19 OFFCURVE",
"109 -11 OFFCURVE",
"151 -11 CURVE SMOOTH",
"187 -11 OFFCURVE",
"219 19 OFFCURVE",
"219 59 CURVE SMOOTH",
"219 98 OFFCURVE",
"187 127 OFFCURVE",
"151 127 CURVE SMOOTH",
"109 127 OFFCURVE",
"81 98 OFFCURVE",
"81 59 CURVE SMOOTH"
);
}
);
width = 301;
}
);
unicode = 003A;
},
{
glyphname = semicolon;
layers = (
{
hints = (
{
horizontal = 1;
place = "{364, 137}";
type = Stem;
},
{
place = "{58, 138}";
type = Stem;
}
);
layerId = "19D549C8-9BA7-4C6B-AF4A-F08379699900";
paths = (
{
closed = 1;
nodes = (
"58 392 OFFCURVE",
"87 364 OFFCURVE",
"127 364 CURVE SMOOTH",
"164 364 OFFCURVE",
"196 392 OFFCURVE",
"196 433 CURVE SMOOTH",
"196 473 OFFCURVE",
"164 501 OFFCURVE",
"127 501 CURVE SMOOTH",
"87 501 OFFCURVE",
"58 473 OFFCURVE",
"58 433 CURVE SMOOTH"
);
},
{
closed = 1;
nodes = (
"189 133 LINE",
"77 133 LINE",
"30 -143 LINE",
"110 -143 LINE"
);
}
);
width = 261;
}
);
unicode = 003B;
},
{
glyphname = less;
layers = (
{
hints = (
{
horizontal = 1;
place = "{77, 534}";
type = Stem;
},
{
place = "{62, 481}";
type = Stem;
}
);
layerId = "19D549C8-9BA7-4C6B-AF4A-F08379699900";
paths = (
{
closed = 1;
nodes = (
"543 611 LINE",
"62 388 LINE",
"62 300 LINE",
"543 77 LINE",
"543 172 LINE",
"166 345 LINE",
"543 515 LINE"
);
}
);
width = 606;
}
);
unicode = 003C;
},
{
glyphname = equal;
layers = (
{
hints = (
{
horizontal = 1;
place = "{186, 90}";
type = Stem;
},
{
horizontal = 1;
place = "{432, 91}";
type = Stem;
},
{
place = "{53, 477}";
type = Stem;
}
);
layerId = "19D549C8-9BA7-4C6B-AF4A-F08379699900";
paths = (
{
closed = 1;
nodes = (
"53 523 LINE",
"53 432 LINE",
"530 432 LINE",
"530 523 LINE"
);
},
{
closed = 1;
nodes = (
"53 276 LINE",
"53 186 LINE",
"530 186 LINE",
"530 276 LINE"
);
}
);
width = 582;
}
);
unicode = 003D;
},
{
glyphname = greater;
layers = (
{
hints = (
{
horizontal = 1;
place = "{78, 533}";
type = Stem;
},
{
place = "{62, 480}";
type = Stem;
}
);
layerId = "19D549C8-9BA7-4C6B-AF4A-F08379699900";
paths = (
{
closed = 1;
nodes = (
"62 514 LINE",
"438 344 LINE",
"62 174 LINE",
"62 78 LINE",
"542 299 LINE",
"542 389 LINE",
"62 611 LINE"
);
}
);
width = 605;
}
);
unicode = 003E;
},
{
glyphname = question;
layers = (
{
hints = (
{
place = "{131, 136}";
type = Stem;
},
{
place = "{144, 98}";
type = Stem;
},
{
place = "{304, 101}";
type = Stem;
},
{
horizontal = 1;
place = "{-10, 131}";
type = Stem;
},
{
horizontal = 1;
place = "{625, 91}";
type = Stem;
}
);
layerId = "19D549C8-9BA7-4C6B-AF4A-F08379699900";
paths = (
{
closed = 1;
nodes = (
"268 625 OFFCURVE",
"304 582 OFFCURVE",
"304 536 CURVE SMOOTH",
"304 491 OFFCURVE",
"273 460 OFFCURVE",
"237 427 CURVE SMOOTH",
"193 386 OFFCURVE",
"144 339 OFFCURVE",
"144 254 CURVE SMOOTH",
"144 195 LINE",
"242 195 LINE",
"242 227 LINE SMOOTH",
"242 292 OFFCURVE",
"263 323 OFFCURVE",
"311 366 CURVE SMOOTH",
"364 412 OFFCURVE",
"405 465 OFFCURVE",
"405 544 CURVE SMOOTH",
"405 648 OFFCURVE",
"328 716 OFFCURVE",
"218 716 CURVE SMOOTH",
"147 716 OFFCURVE",
"86 688 OFFCURVE",
"51 643 CURVE",
"51 536 LINE",
"98 600 OFFCURVE",
"152 625 OFFCURVE",
"204 625 CURVE SMOOTH"
);
},
{
closed = 1;
nodes = (
"131 15 OFFCURVE",
"162 -10 OFFCURVE",
"198 -10 CURVE SMOOTH",
"236 -10 OFFCURVE",
"267 15 OFFCURVE",
"267 56 CURVE SMOOTH",
"267 92 OFFCURVE",
"236 121 OFFCURVE",
"198 121 CURVE SMOOTH",
"162 121 OFFCURVE",
"131 92 OFFCURVE",
"131 56 CURVE SMOOTH"
);
}
);
width = 456;
}
);
unicode = 003F;
},
{
glyphname = at;
layers = (
{
hints = (
{
place = "{49, 52}";
type = Stem;
},
{
place = "{232, 91}";
type = Stem;
},
{
place = "{560, 77}";
type = Stem;
},
{
place = "{814, 50}";
type = Stem;
},
{
horizontal = 1;
place = "{-105, 45}";
type = Stem;
},
{
horizontal = 1;
place = "{100, 52}";
type = Stem;
},
{
horizontal = 1;
place = "{102, 76}";
type = Stem;
},
{
horizontal = 1;
place = "{445, 78}";
type = Stem;
},
{
horizontal = 1;
place = "{501, -20}";
target = down;
type = TopGhost;
},
{
horizontal = 1;
place = "{673, 45}";
type = Stem;
}
);
layerId = "19D549C8-9BA7-4C6B-AF4A-F08379699900";
paths = (
{
closed = 1;
nodes = (
"721 13 LINE",
"645 -36 OFFCURVE",
"572 -60 OFFCURVE",
"479 -60 CURVE SMOOTH",
"249 -60 OFFCURVE",
"101 98 OFFCURVE",
"101 305 CURVE SMOOTH",
"101 513 OFFCURVE",
"255 673 OFFCURVE",
"464 673 CURVE SMOOTH",
"666 673 OFFCURVE",
"814 529 OFFCURVE",
"814 343 CURVE SMOOTH",
"814 227 OFFCURVE",
"761 152 OFFCURVE",
"698 152 CURVE SMOOTH",
"655 152 OFFCURVE",
"635 188 OFFCURVE",
"637 237 CURVE",
"675 501 LINE",
"591 510 LINE",
"581 446 LINE",
"555 490 OFFCURVE",
"516 523 OFFCURVE",
"448 523 CURVE SMOOTH",
"330 523 OFFCURVE",
"232 417 OFFCURVE",
"232 290 CURVE SMOOTH",
"232 179 OFFCURVE",
"307 102 OFFCURVE",
"408 102 CURVE SMOOTH",
"475 102 OFFCURVE",
"523 137 OFFCURVE",
"557 184 CURVE",
"577 130 OFFCURVE",
"612 100 OFFCURVE",
"676 100 CURVE SMOOTH",
"780 100 OFFCURVE",
"864 191 OFFCURVE",
"864 352 CURVE SMOOTH",
"864 556 OFFCURVE",
"687 718 OFFCURVE",
"465 718 CURVE SMOOTH",
"230 718 OFFCURVE",
"49 534 OFFCURVE",
"49 303 CURVE SMOOTH",
"49 74 OFFCURVE",
"225 -105 OFFCURVE",
"471 -105 CURVE SMOOTH",
"575 -105 OFFCURVE",
"664 -75 OFFCURVE",
"745 -21 CURVE"
);
},
{
closed = 1;
nodes = (
"521 445 OFFCURVE",
"560 399 OFFCURVE",
"560 334 CURVE SMOOTH",
"560 254 OFFCURVE",
"500 178 OFFCURVE",
"424 178 CURVE SMOOTH",
"362 178 OFFCURVE",
"323 226 OFFCURVE",
"323 295 CURVE SMOOTH",
"323 377 OFFCURVE",
"382 445 OFFCURVE",
"458 445 CURVE SMOOTH"
);
}
);
width = 913;
}
);
unicode = 0040;
},
{
glyphname = A;
layers = (
{
hints = (
{
horizontal = 1;
place = "{0, 21}";
target = up;
type = BottomGhost;
},
{
horizontal = 1;
place = "{185, 88}";
type = Stem;
},
{
horizontal = 1;
place = "{705, -20}";
target = down;
type = TopGhost;
},
{
place = "{-6, 703}";
type = Stem;
}
);
layerId = "19D549C8-9BA7-4C6B-AF4A-F08379699900";
paths = (
{
closed = 1;
nodes = (
"507 185 LINE",
"585 0 LINE",
"697 0 LINE",
"390 705 LINE",
"301 705 LINE",
"-6 0 LINE",
"104 0 LINE",
"183 185 LINE"
);
},
{
closed = 1;
nodes = (
"345 584 LINE",
"471 273 LINE",
"219 273 LINE"
);
}
);
width = 692;
}
);
unicode = 0041;
},
{
glyphname = B;
layers = (
{
hints = (
{
place = "{76, 102}";
type = Stem;
},
{
place = "{446, 102}";
type = Stem;
},
{
place = "{504, 103}";
type = Stem;
},
{
horizontal = 1;
place = "{0, 88}";
type = Stem;
},
{
horizontal = 1;
place = "{316, 84}";
type = Stem;
},
{
horizontal = 1;
place = "{617, 87}";
type = Stem;
}
);
layerId = "19D549C8-9BA7-4C6B-AF4A-F08379699900";
paths = (
{
closed = 1;
nodes = (
"76 0 LINE",
"327 0 LINE SMOOTH",
"524 0 OFFCURVE",
"607 87 OFFCURVE",
"607 194 CURVE SMOOTH",
"607 281 OFFCURVE",
"557 348 OFFCURVE",
"445 366 CURVE",
"512 391 OFFCURVE",
"548 451 OFFCURVE",
"548 527 CURVE SMOOTH",
"548 656 OFFCURVE",
"431 704 OFFCURVE",
"303 704 CURVE SMOOTH",
"76 704 LINE"
);
},
{
closed = 1;
nodes = (
"178 617 LINE",
"305 617 LINE SMOOTH",
"391 617 OFFCURVE",
"446 583 OFFCURVE",
"446 510 CURVE SMOOTH",
"446 447 OFFCURVE",
"401 400 OFFCURVE",
"304 400 CURVE SMOOTH",
"178 400 LINE"
);
},
{
closed = 1;
nodes = (
"178 316 LINE",
"307 316 LINE SMOOTH",
"451 316 OFFCURVE",
"504 275 OFFCURVE",
"504 202 CURVE SMOOTH",
"504 129 OFFCURVE",
"452 88 OFFCURVE",
"335 88 CURVE SMOOTH",
"178 88 LINE"
);
}
);
width = 651;
}
);
unicode = 0042;
},
{
glyphname = C;
layers = (
{
hints = (
{
horizontal = 1;
place = "{-14, 94}";
type = Stem;
},
{
horizontal = 1;
place = "{625, 93}";
type = Stem;
},
{
place = "{49, 106}";
type = Stem;
}
);
layerId = "19D549C8-9BA7-4C6B-AF4A-F08379699900";
paths = (
{
closed = 1;
nodes = (
"643 187 LINE",
"577 129 OFFCURVE",
"510 80 OFFCURVE",
"412 80 CURVE SMOOTH",
"259 80 OFFCURVE",
"155 201 OFFCURVE",
"155 352 CURVE SMOOTH",
"155 502 OFFCURVE",
"259 625 OFFCURVE",
"412 625 CURVE SMOOTH",
"516 625 OFFCURVE",
"580 587 OFFCURVE",
"630 532 CURVE",
"630 645 LINE",
"574 688 OFFCURVE",
"507 718 OFFCURVE",
"414 718 CURVE SMOOTH",
"203 718 OFFCURVE",
"49 557 OFFCURVE",
"49 351 CURVE SMOOTH",
"49 144 OFFCURVE",
"206 -14 OFFCURVE",
"410 -14 CURVE SMOOTH",
"508 -14 OFFCURVE",
"579 21 OFFCURVE",
"643 74 CURVE"
);
}
);
width = 699;
}
);
unicode = 0043;
},
{
glyphname = D;
layers = (
{
hints = (
{
horizontal = 1;
place = "{0, 92}";
type = Stem;
},
{
horizontal = 1;
place = "{611, 93}";
type = Stem;
},
{
place = "{77, 103}";
type = Stem;
},
{
place = "{577, 108}";
type = Stem;
}
);
layerId = "19D549C8-9BA7-4C6B-AF4A-F08379699900";
paths = (
{
closed = 1;
nodes = (
"77 0 LINE",
"304 0 LINE SMOOTH",
"535 0 OFFCURVE",
"685 147 OFFCURVE",
"685 353 CURVE SMOOTH",
"685 565 OFFCURVE",
"526 704 OFFCURVE",
"306 704 CURVE SMOOTH",
"77 704 LINE"
);
},
{
closed = 1;
nodes = (
"180 611 LINE",
"342 611 LINE SMOOTH",
"493 611 OFFCURVE",
"577 479 OFFCURVE",
"577 351 CURVE SMOOTH",
"577 199 OFFCURVE",
"478 92 OFFCURVE",
"302 92 CURVE SMOOTH",
"180 92 LINE"
);
}
);
width = 734;
}
);
unicode = 0044;
},
{
glyphname = E;
layers = (
{
hints = (
{
horizontal = 1;
place = "{0, 91}";
type = Stem;
},
{
horizontal = 1;
place = "{314, 88}";
type = Stem;
},
{
horizontal = 1;
place = "{613, 91}";
type = Stem;
},
{
place = "{77, 103}";
type = Stem;
}
);
layerId = "19D549C8-9BA7-4C6B-AF4A-F08379699900";
paths = (
{
closed = 1;
nodes = (
"180 314 LINE",
"524 314 LINE",
"524 402 LINE",
"180 402 LINE",
"180 613 LINE",
"554 613 LINE",
"554 704 LINE",
"77 704 LINE",
"77 0 LINE",
"564 0 LINE",
"564 91 LINE",
"180 91 LINE"
);
}
);
width = 628;
}
);
unicode = 0045;
},
{
glyphname = F;
layers = (
{
hints = (
{
horizontal = 1;
place = "{-2, 21}";
target = up;
type = BottomGhost;
},
{
horizontal = 1;
place = "{303, 90}";
type = Stem;
},
{
horizontal = 1;
place = "{613, 91}";
type = Stem;
},
{
place = "{76, 104}";
type = Stem;
}
);
layerId = "19D549C8-9BA7-4C6B-AF4A-F08379699900";
paths = (
{
closed = 1;
nodes = (
"180 303 LINE",
"519 303 LINE",
"519 393 LINE",
"180 393 LINE",
"180 613 LINE",
"551 613 LINE",
"551 704 LINE",
"76 704 LINE",
"76 -2 LINE",
"180 -2 LINE"
);
}
);
width = 601;
}
);
unicode = 0046;
},
{
glyphname = G;
layers = (
{
hints = (
{
horizontal = 1;
place = "{-16, 93}";
type = Stem;
},
{
horizontal = 1;
place = "{312, 89}";
type = Stem;
},
{
horizontal = 1;
place = "{626, 92}";
type = Stem;
},
{
place = "{49, 104}";
type = Stem;
},
{
place = "{474, 179}";
type = Stem;
},
{
place = "{673, 97}";
type = Stem;
}
);
layerId = "19D549C8-9BA7-4C6B-AF4A-F08379699900";
paths = (
{
closed = 1;
nodes = (
"673 312 LINE",
"673 168 OFFCURVE",
"561 77 OFFCURVE",
"422 77 CURVE SMOOTH",
"269 77 OFFCURVE",
"153 195 OFFCURVE",
"153 352 CURVE SMOOTH",
"153 501 OFFCURVE",
"282 626 OFFCURVE",
"437 626 CURVE SMOOTH",
"528 626 OFFCURVE",
"602 590 OFFCURVE",
"653 540 CURVE",
"653 653 LINE",
"585 699 OFFCURVE",
"507 718 OFFCURVE",
"430 718 CURVE SMOOTH",
"218 718 OFFCURVE",
"49 557 OFFCURVE",
"49 352 CURVE SMOOTH",
"49 147 OFFCURVE",
"205 -16 OFFCURVE",
"416 -16 CURVE SMOOTH",
"648 -16 OFFCURVE",
"770 147 OFFCURVE",
"770 372 CURVE SMOOTH",
"770 401 LINE",
"474 401 LINE",
"474 312 LINE"
);
}
);
width = 819;
}
);
unicode = 0047;
},
{
glyphname = H;
layers = (
{
hints = (
{
horizontal = 1;
place = "{0, 21}";
target = up;
type = BottomGhost;
},
{
horizontal = 1;
place = "{311, 94}";
type = Stem;
},
{
horizontal = 1;
place = "{705, -20}";
target = down;
type = TopGhost;
},
{
place = "{77, 102}";
type = Stem;
},
{
place = "{539, 102}";
type = Stem;
}
);
layerId = "19D549C8-9BA7-4C6B-AF4A-F08379699900";
paths = (
{
closed = 1;
nodes = (
"77 0 LINE",
"179 0 LINE",
"179 311 LINE",
"539 311 LINE",
"539 0 LINE",
"641 0 LINE",
"641 705 LINE",
"539 705 LINE",
"539 405 LINE",
"179 405 LINE",
"179 705 LINE",
"77 705 LINE"
);
}
);
width = 717;
}
);
unicode = 0048;
},
{
glyphname = J;
layers = (
{
hints = (
{
horizontal = 1;
place = "{-11, 92}";
type = Stem;
},
{
horizontal = 1;
place = "{704, -20}";
target = down;
type = TopGhost;
},
{
place = "{213, 104}";
type = Stem;
}
);
layerId = "19D549C8-9BA7-4C6B-AF4A-F08379699900";
paths = (
{
closed = 1;
nodes = (
"0 25 LINE",
"34 2 OFFCURVE",
"76 -11 OFFCURVE",
"117 -11 CURVE SMOOTH",
"243 -11 OFFCURVE",
"317 69 OFFCURVE",
"317 217 CURVE SMOOTH",
"317 704 LINE",
"213 704 LINE",
"213 215 LINE SMOOTH",
"213 117 OFFCURVE",
"178 81 OFFCURVE",
"116 81 CURVE SMOOTH",
"72 81 OFFCURVE",
"36 101 OFFCURVE",
"0 124 CURVE"
);
}
);
width = 386;
}
);
unicode = 004A;
},
{
glyphname = K;
layers = (
{
hints = (
{
horizontal = 1;
place = "{0, 21}";
target = up;
type = BottomGhost;
},
{
horizontal = 1;
place = "{704, -20}";
target = down;
type = TopGhost;
},
{
place = "{77, 102}";
type = Stem;
}
);
layerId = "19D549C8-9BA7-4C6B-AF4A-F08379699900";
paths = (
{
closed = 1;
nodes = (
"179 704 LINE",
"77 704 LINE",
"77 0 LINE",
"179 0 LINE",
"179 336 LINE",
"466 0 LINE",
"595 0 LINE",
"273 379 LINE",
"570 704 LINE",
"442 704 LINE",
"179 410 LINE"
);
}
);
width = 593;
}
);
unicode = 004B;
},
{
glyphname = L;
layers = (
{
hints = (
{
horizontal = 1;
place = "{0, 92}";
type = Stem;
},
{
horizontal = 1;
place = "{704, -20}";
target = down;
type = TopGhost;
},
{
place = "{77, 103}";
type = Stem;
}
);
layerId = "19D549C8-9BA7-4C6B-AF4A-F08379699900";
paths = (
{
closed = 1;
nodes = (
"180 704 LINE",
"77 704 LINE",
"77 0 LINE",
"524 0 LINE",
"524 92 LINE",
"180 92 LINE"
);
}
);
width = 540;
}
);
unicode = 004C;
},
{
glyphname = M;
layers = (
{
hints = (
{
horizontal = 1;
place = "{0, 21}";
target = up;
type = BottomGhost;
},
{
place = "{26, 102}";
type = Stem;
},
{
place = "{643, 102}";
type = Stem;
}
);
layerId = "19D549C8-9BA7-4C6B-AF4A-F08379699900";
paths = (
{
closed = 1;
nodes = (
"386 149 LINE",
"643 538 LINE",
"643 0 LINE",
"745 0 LINE",
"745 700 LINE",
"643 700 LINE",
"386 304 LINE",
"129 700 LINE",
"26 700 LINE",
"26 0 LINE",
"128 0 LINE",
"128 538 LINE"
);
}
);
width = 773;
}
);
unicode = 004D;
},
{
glyphname = N;
layers = (
{
hints = (
{
horizontal = 1;
place = "{0, 21}";
target = up;
type = BottomGhost;
},
{
horizontal = 1;
place = "{704, -20}";
target = down;
type = TopGhost;
},
{
place = "{77, 100}";
type = Stem;
},
{
place = "{575, 100}";
type = Stem;
}
);
layerId = "19D549C8-9BA7-4C6B-AF4A-F08379699900";
paths = (
{
closed = 1;
nodes = (
"178 700 LINE",
"77 700 LINE",
"77 0 LINE",
"177 0 LINE",
"177 545 LINE",
"577 0 LINE",
"675 0 LINE",
"675 704 LINE",
"575 704 LINE",
"575 160 LINE"
);
}
);
width = 751;
}
);
unicode = 004E;
},
{
glyphname = O;
layers = (
{
hints = (
{
horizontal = 1;
place = "{-14, 93}";
type = Stem;
},
{
horizontal = 1;
place = "{625, 93}";
type = Stem;
},
{
place = "{49, 105}";
type = Stem;
},
{
place = "{678, 106}";
type = Stem;
}
);
layerId = "19D549C8-9BA7-4C6B-AF4A-F08379699900";
paths = (
{
closed = 1;
nodes = (
"784 553 OFFCURVE",
"630 718 OFFCURVE",
"418 718 CURVE SMOOTH",
"205 718 OFFCURVE",
"49 554 OFFCURVE",
"49 351 CURVE SMOOTH",
"49 148 OFFCURVE",
"203 -14 OFFCURVE",
"416 -14 CURVE SMOOTH",
"628 -14 OFFCURVE",
"784 151 OFFCURVE",
"784 354 CURVE SMOOTH"
);
},
{
closed = 1;
nodes = (
"678 201 OFFCURVE",
"569 79 OFFCURVE",
"417 79 CURVE SMOOTH",
"262 79 OFFCURVE",
"154 200 OFFCURVE",
"154 354 CURVE SMOOTH",
"154 504 OFFCURVE",
"262 625 OFFCURVE",
"417 625 CURVE SMOOTH",
"569 625 OFFCURVE",
"678 502 OFFCURVE",
"678 350 CURVE SMOOTH"
);
}
);
width = 832;
}
);
unicode = 004F;
},
{
glyphname = P;
layers = (
{
hints = (
{
horizontal = 1;
place = "{-2, 21}";
target = up;
type = BottomGhost;
},
{
horizontal = 1;
place = "{266, 89}";
type = Stem;
},
{
horizontal = 1;
place = "{614, 90}";
type = Stem;
},
{
place = "{76, 104}";
type = Stem;
},
{
place = "{469, 104}";
type = Stem;
}
);
layerId = "19D549C8-9BA7-4C6B-AF4A-F08379699900";
paths = (
{
closed = 1;
nodes = (
"76 -2 LINE",
"180 -2 LINE",
"180 266 LINE",
"308 266 LINE SMOOTH",
"457 266 OFFCURVE",
"573 347 OFFCURVE",
"573 490 CURVE SMOOTH",
"573 625 OFFCURVE",
"470 704 OFFCURVE",
"316 704 CURVE SMOOTH",
"76 704 LINE"
);
},
{
closed = 1;
nodes = (
"180 614 LINE",
"307 614 LINE SMOOTH",
"410 614 OFFCURVE",
"469 571 OFFCURVE",
"469 485 CURVE SMOOTH",
"469 403 OFFCURVE",
"408 355 OFFCURVE",
"306 355 CURVE SMOOTH",
"180 355 LINE"
);
}
);
width = 602;
}
);
unicode = 0050;
},
{
glyphname = Q;
layers = (
{
hints = (
{
horizontal = 1;
place = "{-14, 93}";
type = Stem;
},
{
horizontal = 1;
place = "{625, 93}";
type = Stem;
},
{
place = "{49, 105}";
type = Stem;
},
{
place = "{678, 106}";
type = Stem;
}
);
layerId = "19D549C8-9BA7-4C6B-AF4A-F08379699900";
paths = (
{
closed = 1;
nodes = (
"791 -91 LINE",
"791 34 LINE",
"695 114 LINE",
"751 178 OFFCURVE",
"784 258 OFFCURVE",
"784 353 CURVE SMOOTH",
"784 553 OFFCURVE",
"630 718 OFFCURVE",
"418 718 CURVE SMOOTH",
"205 718 OFFCURVE",
"49 554 OFFCURVE",
"49 350 CURVE SMOOTH",
"49 149 OFFCURVE",
"203 -14 OFFCURVE",
"416 -14 CURVE SMOOTH",
"496 -14 OFFCURVE",
"561 10 OFFCURVE",
"621 46 CURVE"
);
},
{
closed = 1;
nodes = (
"678 200 OFFCURVE",
"569 79 OFFCURVE",
"417 79 CURVE SMOOTH",
"262 79 OFFCURVE",
"154 200 OFFCURVE",
"154 353 CURVE SMOOTH",
"154 504 OFFCURVE",
"262 625 OFFCURVE",
"417 625 CURVE SMOOTH",
"569 625 OFFCURVE",
"678 502 OFFCURVE",
"678 350 CURVE SMOOTH"
);
}
);
width = 837;
}
);
unicode = 0051;
},
{
glyphname = R;
layers = (
{
hints = (
{
horizontal = 1;
place = "{0, 21}";
target = up;
type = BottomGhost;
},
{
horizontal = 1;
place = "{285, 82}";
type = Stem;
},
{
horizontal = 1;
place = "{613, 91}";
type = Stem;
},
{
place = "{77, 104}";
type = Stem;
},
{
place = "{462, 104}";
type = Stem;
}
);
layerId = "19D549C8-9BA7-4C6B-AF4A-F08379699900";
paths = (
{
closed = 1;
nodes = (
"181 0 LINE",
"181 285 LINE",
"270 285 LINE",
"476 0 LINE",
"599 0 LINE",
"380 294 LINE",
"492 317 OFFCURVE",
"566 388 OFFCURVE",
"566 496 CURVE SMOOTH",
"566 620 OFFCURVE",
"467 704 OFFCURVE",
"314 704 CURVE SMOOTH",
"77 704 LINE",
"77 0 LINE"
);
},
{
closed = 1;
nodes = (
"181 367 LINE",
"181 613 LINE",
"304 613 LINE SMOOTH",
"404 613 OFFCURVE",
"462 575 OFFCURVE",
"462 492 CURVE SMOOTH",
"462 403 OFFCURVE",
"389 367 OFFCURVE",
"290 367 CURVE SMOOTH"
);
}
);
width = 604;
}
);
unicode = 0052;
},
{
glyphname = S;
layers = (
{
hints = (
{
horizontal = 1;
place = "{-12, 89}";
type = Stem;
},
{
horizontal = 1;
place = "{629, 88}";
type = Stem;
},
{
place = "{47, 104}";
type = Stem;
},
{
place = "{410, 104}";
type = Stem;
}
);
layerId = "19D549C8-9BA7-4C6B-AF4A-F08379699900";
paths = (
{
closed = 1;
nodes = (
"194 77 OFFCURVE",
"107 107 OFFCURVE",
"29 183 CURVE",
"29 77 LINE",
"97 12 OFFCURVE",
"177 -12 OFFCURVE",
"266 -12 CURVE SMOOTH",
"391 -12 OFFCURVE",
"512 42 OFFCURVE",
"514 179 CURVE SMOOTH",
"518 415 OFFCURVE",
"151 403 OFFCURVE",
"151 544 CURVE SMOOTH",
"151 598 OFFCURVE",
"202 629 OFFCURVE",
"276 629 CURVE SMOOTH",
"335 629 OFFCURVE",
"407 606 OFFCURVE",
"463 539 CURVE",
"463 654 LINE",
"411 698 OFFCURVE",
"347 717 OFFCURVE",
"273 717 CURVE SMOOTH",
"155 717 OFFCURVE",
"47 655 OFFCURVE",
"47 543 CURVE SMOOTH",
"47 320 OFFCURVE",
"410 329 OFFCURVE",
"410 175 CURVE SMOOTH",
"410 100 OFFCURVE",
"333 77 OFFCURVE",
"270 77 CURVE SMOOTH"
);
}
);
width = 557;
}
);
unicode = 0053;
},
{
glyphname = T;
layers = (
{
hints = (
{
horizontal = 1;
place = "{0, 21}";
target = up;
type = BottomGhost;
},
{
horizontal = 1;
place = "{613, 91}";
type = Stem;
},
{
place = "{219, 102}";
type = Stem;
}
);
layerId = "19D549C8-9BA7-4C6B-AF4A-F08379699900";
paths = (
{
closed = 1;
nodes = (
"321 613 LINE",
"531 613 LINE",
"531 704 LINE",
"9 704 LINE",
"9 613 LINE",
"219 613 LINE",
"219 0 LINE",
"321 0 LINE"
);
}
);
width = 540;
}
);
unicode = 0054;
},
{
glyphname = U;
layers = (
{
hints = (
{
horizontal = 1;
place = "{-15, 95}";
type = Stem;
},
{
horizontal = 1;
place = "{705, -20}";
target = down;
type = TopGhost;
},
{
place = "{68, 102}";
type = Stem;
},
{
place = "{539, 103}";
type = Stem;
}
);
layerId = "19D549C8-9BA7-4C6B-AF4A-F08379699900";
paths = (
{
closed = 1;
nodes = (
"542 -15 OFFCURVE",
"642 98 OFFCURVE",
"642 291 CURVE SMOOTH",
"642 705 LINE",
"539 705 LINE",
"539 289 LINE SMOOTH",
"539 148 OFFCURVE",
"473 80 OFFCURVE",
"355 80 CURVE SMOOTH",
"232 80 OFFCURVE",
"170 159 OFFCURVE",
"170 292 CURVE SMOOTH",
"170 705 LINE",
"68 705 LINE",
"68 288 LINE SMOOTH",
"68 102 OFFCURVE",
"169 -15 OFFCURVE",
"356 -15 CURVE SMOOTH"
);
}
);
width = 711;
}
);
unicode = 0055;
},
{
glyphname = V;
layers = (
{
hints = (
{
place = "{-5, 669}";
type = Stem;
},
{
horizontal = 1;
place = "{-1, 117}";
type = Stem;
},
{
horizontal = 1;
place = "{-1, 21}";
target = up;
type = BottomGhost;
},
{
horizontal = 1;
place = "{704, -20}";
target = down;
type = TopGhost;
}
);
layerId = "19D549C8-9BA7-4C6B-AF4A-F08379699900";
paths = (
{
closed = 1;
nodes = (
"-5 704 LINE",
"274 -1 LINE",
"388 -1 LINE",
"664 704 LINE",
"552 704 LINE",
"332 116 LINE",
"110 704 LINE"
);
}
);
width = 661;
}
);
unicode = 0056;
},
{
glyphname = W;
layers = (
{
hints = (
{
place = "{3, 1002}";
type = Stem;
},
{
horizontal = 1;
place = "{-1, 155}";
type = Stem;
},
{
horizontal = 1;
place = "{-1, 21}";
target = up;
type = BottomGhost;
},
{
horizontal = 1;
place = "{704, -20}";
target = down;
type = TopGhost;
},
{
horizontal = 1;
place = "{705, -20}";
target = down;
type = TopGhost;
}
);
layerId = "19D549C8-9BA7-4C6B-AF4A-F08379699900";
paths = (
{
closed = 1;
nodes = (
"113 704 LINE",
"3 704 LINE",
"240 -1 LINE",
"336 -1 LINE",
"504 551 LINE",
"676 -1 LINE",
"771 -1 LINE",
"1005 704 LINE",
"898 704 LINE",
"725 154 LINE",
"554 705 LINE",
"458 705 LINE",
"292 154 LINE"
);
}
);
width = 1008;
}
);
unicode = 0057;
},
{
glyphname = X;
layers = (
{
hints = (
{
horizontal = 1;
place = "{0, 21}";
target = up;
type = BottomGhost;
},
{
horizontal = 1;
place = "{704, -20}";
target = down;
type = TopGhost;
},
{
place = "{8, 624}";
type = Stem;
}
);
layerId = "19D549C8-9BA7-4C6B-AF4A-F08379699900";
paths = (
{
closed = 1;
nodes = (
"20 704 LINE",
"261 360 LINE",
"8 0 LINE",
"127 0 LINE",
"320 282 LINE",
"514 0 LINE",
"632 0 LINE",
"381 362 LINE",
"619 704 LINE",
"503 704 LINE",
"323 439 LINE",
"140 704 LINE"
);
}
);
width = 641;
}
);
unicode = 0058;
},
{
glyphname = Y;
layers = (
{
hints = (
{
horizontal = 1;
place = "{0, 21}";
target = up;
type = BottomGhost;
},
{
horizontal = 1;
place = "{704, -20}";
target = down;
type = TopGhost;
},
{
place = "{267, 103}";
type = Stem;
}
);
layerId = "19D549C8-9BA7-4C6B-AF4A-F08379699900";
paths = (
{
closed = 1;
nodes = (
"370 278 LINE",
"639 704 LINE",
"524 704 LINE",
"321 373 LINE",
"117 704 LINE",
"-3 704 LINE",
"267 277 LINE",
"267 0 LINE",
"370 0 LINE"
);
}
);
width = 636;
}
);
unicode = 0059;
},
{
glyphname = Z;
layers = (
{
hints = (
{
horizontal = 1;
place = "{0, 90}";
type = Stem;
},
{
horizontal = 1;
place = "{614, 90}";
type = Stem;
},
{
place = "{11, 605}";
type = Stem;
}
);
layerId = "19D549C8-9BA7-4C6B-AF4A-F08379699900";
paths = (
{
closed = 1;
nodes = (
"616 620 LINE",
"616 704 LINE",
"36 704 LINE",
"36 614 LINE",
"486 614 LINE",
"11 84 LINE",
"11 0 LINE",
"599 0 LINE",
"599 90 LINE",
"147 90 LINE"
);
}
);
width = 639;
}
);
unicode = 005A;
},
{
glyphname = bracketleft;
layers = (
{
hints = (
{
horizontal = 1;
place = "{-153, 76}";
type = Stem;
},
{
horizontal = 1;
place = "{645, 77}";
type = Stem;
},
{
place = "{80, 93}";
type = Stem;
}
);
layerId = "19D549C8-9BA7-4C6B-AF4A-F08379699900";
paths = (
{
closed = 1;
nodes = (
"338 722 LINE",
"80 722 LINE",
"80 -153 LINE",
"338 -153 LINE",
"338 -77 LINE",
"173 -77 LINE",
"173 645 LINE",
"338 645 LINE"
);
}
);
width = 391;
}
);
unicode = 005B;
},
{
glyphname = backslash;
layers = (
{
hints = (
{
horizontal = 1;
place = "{-119, 903}";
type = Stem;
},
{
place = "{2, 499}";
type = Stem;
}
);
layerId = "19D549C8-9BA7-4C6B-AF4A-F08379699900";
paths = (
{
closed = 1;
nodes = (
"416 -119 LINE",
"501 -110 LINE",
"85 784 LINE",
"2 774 LINE"
);
}
);
width = 502;
}
);
unicode = 005C;
},
{
glyphname = bracketright;
layers = (
{
hints = (
{
horizontal = 1;
place = "{-154, 77}";
type = Stem;
},
{
horizontal = 1;
place = "{644, 78}";
type = Stem;
},
{
place = "{219, 94}";
type = Stem;
}
);
layerId = "19D549C8-9BA7-4C6B-AF4A-F08379699900";
paths = (
{
closed = 1;
nodes = (
"53 -154 LINE",
"313 -154 LINE",
"313 722 LINE",
"53 722 LINE",
"53 644 LINE",
"219 644 LINE",
"219 -77 LINE",
"53 -77 LINE"
);
}
);
width = 393;
}
);
unicode = 005D;
},
{
glyphname = asciicircum;
layers = (
{
hints = (
{
place = "{31, 429}";
type = Stem;
},
{
horizontal = 1;
place = "{633, 72}";
type = Stem;
},
{
horizontal = 1;
place = "{705, -20}";
target = down;
type = TopGhost;
}
);
layerId = "19D549C8-9BA7-4C6B-AF4A-F08379699900";
paths = (
{
closed = 1;
nodes = (
"31 431 LINE",
"114 431 LINE",
"244 633 LINE",
"374 431 LINE",
"460 431 LINE",
"285 705 LINE",
"204 705 LINE"
);
}
);
width = 491;
}
);
unicode = 005E;
},
{
glyphname = underscore;
layers = (
{
hints = (
{
horizontal = 1;
place = "{-149, 73}";
type = Stem;
},
{
place = "{0, 568}";
type = Stem;
}
);
layerId = "19D549C8-9BA7-4C6B-AF4A-F08379699900";
paths = (
{
closed = 1;
nodes = (
"0 -149 LINE",
"568 -149 LINE",
"568 -76 LINE",
"0 -76 LINE"
);
}
);
width = 568;
}
);
unicode = 005F;
},
{
glyphname = grave;
layers = (
{
hints = (
{
horizontal = 1;
place = "{616, 155}";
type = Stem;
},
{
place = "{18, 204}";
type = Stem;
}
);
layerId = "19D549C8-9BA7-4C6B-AF4A-F08379699900";
paths = (
{
closed = 1;
nodes = (
"147 616 LINE",
"222 616 LINE",
"125 771 LINE",
"18 745 LINE"
);
}
);
width = 242;
}
);
unicode = 0060;
},
{
glyphname = a;
layers = (
{
hints = (
{
place = "{34, 100}";
type = Stem;
},
{
place = "{394, 99}";
type = Stem;
},
{
horizontal = 1;
place = "{-11, 76}";
type = Stem;
},
{
horizontal = 1;
place = "{-2, 21}";
target = up;
type = BottomGhost;
},
{
horizontal = 1;
place = "{261, 71}";
type = Stem;
},
{
horizontal = 1;
place = "{419, 83}";
type = Stem;
}
);
layerId = "19D549C8-9BA7-4C6B-AF4A-F08379699900";
paths = (
{
closed = 1;
nodes = (
"493 -2 LINE",
"493 309 LINE SMOOTH",
"493 437 OFFCURVE",
"391 502 OFFCURVE",
"263 502 CURVE SMOOTH",
"186 502 OFFCURVE",
"117 480 OFFCURVE",
"69 460 CURVE",
"69 372 LINE",
"128 406 OFFCURVE",
"190 419 OFFCURVE",
"252 419 CURVE SMOOTH",
"337 419 OFFCURVE",
"394 391 OFFCURVE",
"394 318 CURVE SMOOTH",
"394 300 LINE",
"353 323 OFFCURVE",
"302 332 OFFCURVE",
"246 332 CURVE SMOOTH",
"141 332 OFFCURVE",
"34 292 OFFCURVE",
"34 169 CURVE SMOOTH",
"34 53 OFFCURVE",
"135 -11 OFFCURVE",
"232 -11 CURVE SMOOTH",
"300 -11 OFFCURVE",
"349 10 OFFCURVE",
"392 50 CURVE"
);
},
{
closed = 1;
nodes = (
"394 125 LINE",
"362 88 OFFCURVE",
"318 65 OFFCURVE",
"259 65 CURVE SMOOTH",
"192 65 OFFCURVE",
"134 97 OFFCURVE",
"134 163 CURVE SMOOTH",
"134 233 OFFCURVE",
"202 261 OFFCURVE",
"266 261 CURVE SMOOTH",
"324 261 OFFCURVE",
"364 244 OFFCURVE",
"394 227 CURVE"
);
}
);
width = 559;
}
);
unicode = 0061;
},
{
glyphname = b;
layers = (
{
hints = (
{
place = "{65, 100}";
type = Stem;
},
{
place = "{485, 99}";
type = Stem;
},
{
horizontal = 1;
place = "{-10, 84}";
type = Stem;
},
{
horizontal = 1;
place = "{-1, 21}";
target = up;
type = BottomGhost;
},
{
horizontal = 1;
place = "{417, 87}";
type = Stem;
}
);
layerId = "19D549C8-9BA7-4C6B-AF4A-F08379699900";
paths = (
{
closed = 1;
nodes = (
"477 -10 OFFCURVE",
"584 92 OFFCURVE",
"584 246 CURVE SMOOTH",
"584 402 OFFCURVE",
"477 504 OFFCURVE",
"347 504 CURVE SMOOTH",
"267 504 OFFCURVE",
"207 464 OFFCURVE",
"165 407 CURVE",
"165 732 LINE",
"65 732 LINE",
"65 -1 LINE",
"172 70 LINE",
"209 24 OFFCURVE",
"266 -10 OFFCURVE",
"345 -10 CURVE SMOOTH"
);
},
{
closed = 1;
nodes = (
"485 145 OFFCURVE",
"416 74 OFFCURVE",
"323 74 CURVE SMOOTH",
"235 74 OFFCURVE",
"162 148 OFFCURVE",
"162 246 CURVE SMOOTH",
"162 346 OFFCURVE",
"235 417 OFFCURVE",
"323 417 CURVE SMOOTH",
"419 417 OFFCURVE",
"485 342 OFFCURVE",
"485 245 CURVE SMOOTH"
);
}
);
width = 618;
}
);
unicode = 0062;
},
{
glyphname = c;
layers = (
{
hints = (
{
horizontal = 1;
place = "{-10, 85}";
type = Stem;
},
{
horizontal = 1;
place = "{418, 84}";
type = Stem;
},
{
place = "{34, 100}";
type = Stem;
}
);
layerId = "19D549C8-9BA7-4C6B-AF4A-F08379699900";
paths = (
{
closed = 1;
nodes = (
"422 466 LINE",
"386 491 OFFCURVE",
"336 502 OFFCURVE",
"290 502 CURVE SMOOTH",
"137 502 OFFCURVE",
"34 386 OFFCURVE",
"34 245 CURVE SMOOTH",
"34 102 OFFCURVE",
"141 -10 OFFCURVE",
"283 -10 CURVE SMOOTH",
"340 -10 OFFCURVE",
"389 8 OFFCURVE",
"427 30 CURVE",
"427 135 LINE",
"391 98 OFFCURVE",
"346 75 OFFCURVE",
"294 75 CURVE SMOOTH",
"204 75 OFFCURVE",
"134 155 OFFCURVE",
"134 250 CURVE SMOOTH",
"134 346 OFFCURVE",
"199 418 OFFCURVE",
"291 418 CURVE SMOOTH",
"342 418 OFFCURVE",
"386 396 OFFCURVE",
"422 358 CURVE"
);
}
);
width = 471;
}
);
unicode = 0063;
},
{
glyphname = d;
layers = (
{
hints = (
{
place = "{34, 100}";
type = Stem;
},
{
place = "{452, 100}";
type = Stem;
},
{
horizontal = 1;
place = "{-10, 85}";
type = Stem;
},
{
horizontal = 1;
place = "{-1, 21}";
target = up;
type = BottomGhost;
},
{
horizontal = 1;
place = "{419, 85}";
type = Stem;
}
);
layerId = "19D549C8-9BA7-4C6B-AF4A-F08379699900";
paths = (
{
closed = 1;
nodes = (
"552 -1 LINE",
"552 732 LINE",
"452 732 LINE",
"452 411 LINE",
"412 467 OFFCURVE",
"351 504 OFFCURVE",
"270 504 CURVE SMOOTH",
"142 504 OFFCURVE",
"34 403 OFFCURVE",
"34 246 CURVE SMOOTH",
"34 89 OFFCURVE",
"142 -10 OFFCURVE",
"273 -10 CURVE SMOOTH",
"352 -10 OFFCURVE",
"401 25 OFFCURVE",
"444 76 CURVE"
);
},
{
closed = 1;
nodes = (
"134 350 OFFCURVE",
"204 419 OFFCURVE",
"291 419 CURVE SMOOTH",
"378 419 OFFCURVE",
"455 346 OFFCURVE",
"455 247 CURVE SMOOTH",
"455 147 OFFCURVE",
"380 75 OFFCURVE",
"291 75 CURVE SMOOTH",
"202 75 OFFCURVE",
"134 146 OFFCURVE",
"134 247 CURVE SMOOTH"
);
}
);
width = 618;
}
);
unicode = 0064;
},
{
glyphname = e;
layers = (
{
hints = (
{
horizontal = 1;
place = "{-12, 81}";
type = Stem;
},
{
horizontal = 1;
place = "{422, 82}";
type = Stem;
},
{
place = "{34, 96}";
type = Stem;
}
);
layerId = "19D549C8-9BA7-4C6B-AF4A-F08379699900";
paths = (
{
closed = 1;
nodes = (
"214 69 OFFCURVE",
"164 111 OFFCURVE",
"140 171 CURVE",
"512 262 LINE",
"499 392 OFFCURVE",
"418 504 OFFCURVE",
"273 504 CURVE SMOOTH",
"129 504 OFFCURVE",
"34 390 OFFCURVE",
"34 244 CURVE SMOOTH",
"34 94 OFFCURVE",
"142 -12 OFFCURVE",
"289 -12 CURVE SMOOTH",
"358 -12 OFFCURVE",
"422 10 OFFCURVE",
"467 44 CURVE",
"467 142 LINE",
"427 103 OFFCURVE",
"367 69 OFFCURVE",
"294 69 CURVE SMOOTH"
);
},
{
closed = 1;
nodes = (
"130 252 LINE",
"130 337 OFFCURVE",
"179 422 OFFCURVE",
"274 422 CURVE SMOOTH",
"345 422 OFFCURVE",
"396 377 OFFCURVE",
"412 317 CURVE",
"134 245 LINE"
);
}
);
width = 546;
}
);
unicode = 0065;
},
{
glyphname = f;
layers = (
{
hints = (
{
horizontal = 1;
place = "{0, 21}";
target = up;
type = BottomGhost;
},
{
horizontal = 1;
place = "{409, 82}";
type = Stem;
},
{
horizontal = 1;
place = "{657, 79}";
type = Stem;
},
{
place = "{107, 97}";
type = Stem;
}
);
layerId = "19D549C8-9BA7-4C6B-AF4A-F08379699900";
paths = (
{
closed = 1;
nodes = (
"338 725 LINE",
"320 731 OFFCURVE",
"296 736 OFFCURVE",
"268 736 CURVE SMOOTH",
"169 736 OFFCURVE",
"107 684 OFFCURVE",
"107 556 CURVE SMOOTH",
"107 493 LINE",
"11 409 LINE",
"107 409 LINE",
"107 0 LINE",
"204 0 LINE",
"204 409 LINE",
"325 409 LINE",
"325 491 LINE",
"198 491 LINE",
"198 552 LINE SMOOTH",
"198 621 OFFCURVE",
"225 657 OFFCURVE",
"283 657 CURVE SMOOTH",
"301 657 OFFCURVE",
"320 653 OFFCURVE",
"338 646 CURVE"
);
}
);
width = 335;
}
);
unicode = 0066;
},
{
glyphname = g;
layers = (
{
hints = (
{
place = "{39, 101}";
type = Stem;
},
{
place = "{458, 99}";
type = Stem;
},
{
horizontal = 1;
place = "{-189, 81}";
type = Stem;
},
{
horizontal = 1;
place = "{24, 83}";
type = Stem;
},
{
horizontal = 1;
place = "{421, 83}";
type = Stem;
},
{
horizontal = 1;
place = "{492, -20}";
target = down;
type = TopGhost;
}
);
layerId = "19D549C8-9BA7-4C6B-AF4A-F08379699900";
paths = (
{
closed = 1;
nodes = (
"199 -108 OFFCURVE",
"131 -82 OFFCURVE",
"75 -39 CURVE",
"75 -139 LINE",
"129 -168 OFFCURVE",
"196 -189 OFFCURVE",
"277 -189 CURVE SMOOTH",
"441 -189 OFFCURVE",
"557 -101 OFFCURVE",
"557 69 CURVE SMOOTH",
"557 492 LINE",
"449 423 LINE",
"408 471 OFFCURVE",
"354 504 OFFCURVE",
"275 504 CURVE SMOOTH",
"146 504 OFFCURVE",
"39 407 OFFCURVE",
"39 261 CURVE SMOOTH",
"39 122 OFFCURVE",
"142 24 OFFCURVE",
"274 24 CURVE SMOOTH",
"355 24 OFFCURVE",
"413 61 OFFCURVE",
"458 118 CURVE",
"458 64 LINE SMOOTH",
"458 -57 OFFCURVE",
"393 -108 OFFCURVE",
"276 -108 CURVE SMOOTH"
);
},
{
closed = 1;
nodes = (
"140 358 OFFCURVE",
"206 421 OFFCURVE",
"297 421 CURVE SMOOTH",
"387 421 OFFCURVE",
"458 355 OFFCURVE",
"458 263 CURVE SMOOTH",
"458 173 OFFCURVE",
"386 107 OFFCURVE",
"297 107 CURVE SMOOTH",
"207 107 OFFCURVE",
"140 173 OFFCURVE",
"140 265 CURVE SMOOTH"
);
}
);
width = 623;
}
);
unicode = 0067;
},
{
glyphname = h;
layers = (
{
hints = (
{
horizontal = 1;
place = "{0, 21}";
target = up;
type = BottomGhost;
},
{
horizontal = 1;
place = "{407, 96}";
type = Stem;
},
{
place = "{64, 100}";
type = Stem;
},
{
place = "{398, 100}";
type = Stem;
}
);
layerId = "19D549C8-9BA7-4C6B-AF4A-F08379699900";
paths = (
{
closed = 1;
nodes = (
"251 503 OFFCURVE",
"192 468 OFFCURVE",
"157 425 CURVE",
"157 732 LINE",
"64 732 LINE",
"64 0 LINE",
"164 0 LINE",
"164 282 LINE SMOOTH",
"164 366 OFFCURVE",
"226 407 OFFCURVE",
"293 407 CURVE SMOOTH",
"363 407 OFFCURVE",
"398 366 OFFCURVE",
"398 282 CURVE SMOOTH",
"398 0 LINE",
"498 0 LINE",
"498 312 LINE SMOOTH",
"498 443 OFFCURVE",
"431 503 OFFCURVE",
"324 503 CURVE SMOOTH"
);
}
);
width = 558;
}
);
unicode = 0068;
},
{
glyphname = i;
layers = (
{
hints = (
{
place = "{51, 136}";
type = Stem;
},
{
place = "{70, 100}";
type = Stem;
},
{
horizontal = 1;
place = "{0, 21}";
target = up;
type = BottomGhost;
},
{
horizontal = 1;
place = "{492, -20}";
target = down;
type = TopGhost;
},
{
horizontal = 1;
place = "{580, 132}";
type = Stem;
}
);
layerId = "19D549C8-9BA7-4C6B-AF4A-F08379699900";
paths = (
{
closed = 1;
nodes = (
"51 608 OFFCURVE",
"82 580 OFFCURVE",
"119 580 CURVE SMOOTH",
"158 580 OFFCURVE",
"187 608 OFFCURVE",
"187 645 CURVE SMOOTH",
"187 686 OFFCURVE",
"158 712 OFFCURVE",
"119 712 CURVE SMOOTH",
"82 712 OFFCURVE",
"51 686 OFFCURVE",
"51 645 CURVE SMOOTH"
);
},
{
closed = 1;
nodes = (
"170 492 LINE",
"70 492 LINE",
"70 0 LINE",
"170 0 LINE"
);
}
);
width = 239;
}
);
unicode = 0069;
},
{
glyphname = j;
layers = (
{
hints = (
{
place = "{111, 136}";
type = Stem;
},
{
place = "{133, 99}";
type = Stem;
},
{
horizontal = 1;
place = "{-189, 80}";
type = Stem;
},
{
horizontal = 1;
place = "{492, -20}";
target = down;
type = TopGhost;
},
{
horizontal = 1;
place = "{580, 132}";
type = Stem;
}
);
layerId = "19D549C8-9BA7-4C6B-AF4A-F08379699900";
paths = (
{
closed = 1;
nodes = (
"111 608 OFFCURVE",
"141 580 OFFCURVE",
"179 580 CURVE SMOOTH",
"215 580 OFFCURVE",
"247 608 OFFCURVE",
"247 645 CURVE SMOOTH",
"247 686 OFFCURVE",
"215 712 OFFCURVE",
"179 712 CURVE SMOOTH",
"141 712 OFFCURVE",
"111 686 OFFCURVE",
"111 645 CURVE SMOOTH"
);
},
{
closed = 1;
nodes = (
"50 -182 LINE",
"67 -186 OFFCURVE",
"83 -189 OFFCURVE",
"105 -189 CURVE SMOOTH",
"210 -189 OFFCURVE",
"232 -121 OFFCURVE",
"232 -27 CURVE SMOOTH",
"232 492 LINE",
"133 492 LINE",
"133 -46 LINE SMOOTH",
"133 -81 OFFCURVE",
"124 -109 OFFCURVE",
"84 -109 CURVE SMOOTH",
"73 -109 OFFCURVE",
"62 -107 OFFCURVE",
"50 -103 CURVE"
);
}
);
width = 299;
}
);
unicode = 006A;
},
{
glyphname = k;
layers = (
{
hints = (
{
horizontal = 1;
place = "{0, 21}";
target = up;
type = BottomGhost;
},
{
horizontal = 1;
place = "{492, -20}";
target = down;
type = TopGhost;
},
{
place = "{64, 100}";
type = Stem;
}
);
layerId = "19D549C8-9BA7-4C6B-AF4A-F08379699900";
paths = (
{
closed = 1;
nodes = (
"164 732 LINE",
"64 732 LINE",
"64 0 LINE",
"164 0 LINE",
"164 227 LINE",
"355 0 LINE",
"474 0 LINE",
"251 266 LINE",
"465 492 LINE",
"342 492 LINE",
"164 294 LINE"
);
}
);
width = 474;
}
);
unicode = 006B;
},
{
glyphname = l;
layers = (
{
hints = (
{
horizontal = 1;
place = "{0, 21}";
target = up;
type = BottomGhost;
},
{
place = "{64, 99}";
type = Stem;
}
);
layerId = "19D549C8-9BA7-4C6B-AF4A-F08379699900";
paths = (
{
closed = 1;
nodes = (
"163 732 LINE",
"64 732 LINE",
"64 0 LINE",
"163 0 LINE"
);
}
);
width = 230;
}
);
unicode = 006C;
},
{
glyphname = m;
layers = (
{
hints = (
{
horizontal = 1;
place = "{0, 21}";
target = up;
type = BottomGhost;
},
{
horizontal = 1;
place = "{415, 88}";
type = Stem;
},
{
place = "{64, 100}";
type = Stem;
},
{
place = "{382, 100}";
type = Stem;
},
{
place = "{701, 100}";
type = Stem;
}
);
layerId = "19D549C8-9BA7-4C6B-AF4A-F08379699900";
paths = (
{
closed = 1;
nodes = (
"801 0 LINE",
"801 313 LINE SMOOTH",
"801 420 OFFCURVE",
"746 503 OFFCURVE",
"631 503 CURVE SMOOTH",
"558 503 OFFCURVE",
"497 471 OFFCURVE",
"463 414 CURVE",
"436 477 OFFCURVE",
"380 503 OFFCURVE",
"315 503 CURVE SMOOTH",
"256 503 OFFCURVE",
"198 480 OFFCURVE",
"162 431 CURVE",
"64 491 LINE",
"64 0 LINE",
"164 0 LINE",
"164 282 LINE SMOOTH",
"164 355 OFFCURVE",
"206 415 OFFCURVE",
"280 415 CURVE SMOOTH",
"354 415 OFFCURVE",
"382 358 OFFCURVE",
"382 282 CURVE SMOOTH",
"382 0 LINE",
"482 0 LINE",
"482 282 LINE SMOOTH",
"482 353 OFFCURVE",
"522 415 OFFCURVE",
"598 415 CURVE SMOOTH",
"662 415 OFFCURVE",
"701 375 OFFCURVE",
"701 282 CURVE SMOOTH",
"701 0 LINE"
);
}
);
width = 859;
}
);
unicode = 006D;
},
{
glyphname = n;
layers = (
{
hints = (
{
place = "{64, 100}";
type = Stem;
},
{
place = "{398, 100}";
type = Stem;
},
{
horizontal = 1;
place = "{0, 21}";
target = up;
type = BottomGhost;
},
{
horizontal = 1;
place = "{415, 88}";
type = Stem;
},
{
horizontal = 1;
place = "{492, -20}";
target = down;
type = TopGhost;
}
);
layerId = "19D549C8-9BA7-4C6B-AF4A-F08379699900";
paths = (
{
closed = 1;
nodes = (
"252 503 OFFCURVE",
"201 472 OFFCURVE",
"166 428 CURVE",
"64 492 LINE",
"64 0 LINE",
"164 0 LINE",
"164 282 LINE SMOOTH",
"164 384 OFFCURVE",
"234 415 OFFCURVE",
"287 415 CURVE SMOOTH",
"342 415 OFFCURVE",
"398 382 OFFCURVE",
"398 282 CURVE SMOOTH",
"398 0 LINE",
"498 0 LINE",
"498 312 LINE SMOOTH",
"498 436 OFFCURVE",
"428 503 OFFCURVE",
"323 503 CURVE SMOOTH"
);
}
);
width = 558;
}
);
unicode = 006E;
},
{
glyphname = o;
layers = (
{
hints = (
{
horizontal = 1;
place = "{-11, 85}";
type = Stem;
},
{
horizontal = 1;
place = "{420, 84}";
type = Stem;
},
{
place = "{34, 100}";
type = Stem;
},
{
place = "{463, 100}";
type = Stem;
}
);
layerId = "19D549C8-9BA7-4C6B-AF4A-F08379699900";
paths = (
{
closed = 1;
nodes = (
"563 390 OFFCURVE",
"451 504 OFFCURVE",
"298 504 CURVE SMOOTH",
"145 504 OFFCURVE",
"34 389 OFFCURVE",
"34 245 CURVE SMOOTH",
"34 102 OFFCURVE",
"145 -11 OFFCURVE",
"297 -11 CURVE SMOOTH",
"451 -11 OFFCURVE",
"563 105 OFFCURVE",
"563 247 CURVE SMOOTH"
);
},
{
closed = 1;
nodes = (
"463 153 OFFCURVE",
"394 74 OFFCURVE",
"298 74 CURVE SMOOTH",
"204 74 OFFCURVE",
"134 149 OFFCURVE",
"134 247 CURVE SMOOTH",
"134 342 OFFCURVE",
"199 420 OFFCURVE",
"297 420 CURVE SMOOTH",
"395 420 OFFCURVE",
"463 341 OFFCURVE",
"463 246 CURVE SMOOTH"
);
}
);
width = 598;
}
);
unicode = 006F;
},
{
glyphname = p;
layers = (
{
hints = (
{
place = "{65, 100}";
type = Stem;
},
{
place = "{486, 99}";
type = Stem;
},
{
horizontal = 1;
place = "{-10, 84}";
type = Stem;
},
{
horizontal = 1;
place = "{417, 87}";
type = Stem;
},
{
horizontal = 1;
place = "{492, -20}";
target = down;
type = TopGhost;
}
);
layerId = "19D549C8-9BA7-4C6B-AF4A-F08379699900";
paths = (
{
closed = 1;
nodes = (
"165 81 LINE",
"208 24 OFFCURVE",
"267 -10 OFFCURVE",
"347 -10 CURVE SMOOTH",
"473 -10 OFFCURVE",
"585 91 OFFCURVE",
"585 247 CURVE SMOOTH",
"585 403 OFFCURVE",
"476 504 OFFCURVE",
"347 504 CURVE SMOOTH",
"267 504 OFFCURVE",
"217 467 OFFCURVE",
"174 417 CURVE",
"65 492 LINE",
"65 -183 LINE",
"165 -183 LINE"
);
},
{
closed = 1;
nodes = (
"486 142 OFFCURVE",
"415 74 OFFCURVE",
"326 74 CURVE SMOOTH",
"239 74 OFFCURVE",
"162 148 OFFCURVE",
"162 246 CURVE SMOOTH",
"162 346 OFFCURVE",
"236 417 OFFCURVE",
"324 417 CURVE SMOOTH",
"417 417 OFFCURVE",
"486 348 OFFCURVE",
"486 247 CURVE SMOOTH"
);
}
);
width = 618;
}
);
unicode = 0070;
},
{
glyphname = q;
layers = (
{
hints = (
{
place = "{34, 100}";
type = Stem;
},
{
place = "{452, 100}";
type = Stem;
},
{
horizontal = 1;
place = "{-11, 85}";
type = Stem;
},
{
horizontal = 1;
place = "{419, 85}";
type = Stem;
},
{
horizontal = 1;
place = "{492, -20}";
target = down;
type = TopGhost;
}
);
layerId = "19D549C8-9BA7-4C6B-AF4A-F08379699900";
paths = (
{
closed = 1;
nodes = (
"552 -183 LINE",
"552 492 LINE",
"444 421 LINE",
"401 469 OFFCURVE",
"353 504 OFFCURVE",
"273 504 CURVE SMOOTH",
"142 504 OFFCURVE",
"34 403 OFFCURVE",
"34 246 CURVE SMOOTH",
"34 94 OFFCURVE",
"141 -11 OFFCURVE",
"273 -11 CURVE SMOOTH",
"352 -11 OFFCURVE",
"409 27 OFFCURVE",
"452 85 CURVE",
"452 -183 LINE"
);
},
{
closed = 1;
nodes = (
"134 350 OFFCURVE",
"203 419 OFFCURVE",
"294 419 CURVE SMOOTH",
"382 419 OFFCURVE",
"457 346 OFFCURVE",
"457 247 CURVE SMOOTH",
"457 148 OFFCURVE",
"381 74 OFFCURVE",
"294 74 CURVE SMOOTH",
"204 74 OFFCURVE",
"134 148 OFFCURVE",
"134 248 CURVE SMOOTH"
);
}
);
width = 618;
}
);
unicode = 0071;
},
{
glyphname = r;
layers = (
{
hints = (
{
place = "{64, 100}";
type = Stem;
},
{
horizontal = 1;
place = "{0, 21}";
target = up;
type = BottomGhost;
},
{
horizontal = 1;
place = "{408, 93}";
type = Stem;
},
{
horizontal = 1;
place = "{492, -20}";
target = down;
type = TopGhost;
},
{
horizontal = 1;
place = "{497, -20}";
target = down;
type = TopGhost;
}
);
layerId = "19D549C8-9BA7-4C6B-AF4A-F08379699900";
paths = (
{
closed = 1;
nodes = (
"352 497 LINE",
"341 499 OFFCURVE",
"330 501 OFFCURVE",
"316 501 CURVE SMOOTH",
"258 501 OFFCURVE",
"202 475 OFFCURVE",
"166 429 CURVE",
"64 492 LINE",
"64 0 LINE",
"164 0 LINE",
"164 254 LINE SMOOTH",
"164 364 OFFCURVE",
"243 408 OFFCURVE",
"313 408 CURVE SMOOTH",
"328 408 OFFCURVE",
"341 406 OFFCURVE",
"352 400 CURVE"
);
}
);
width = 355;
}
);
unicode = 0072;
},
{
glyphname = s;
layers = (
{
hints = (
{
horizontal = 1;
place = "{-10, 79}";
type = Stem;
},
{
horizontal = 1;
place = "{424, 79}";
type = Stem;
},
{
place = "{30, 95}";
type = Stem;
},
{
place = "{275, 94}";
type = Stem;
}
);
layerId = "19D549C8-9BA7-4C6B-AF4A-F08379699900";
paths = (
{
closed = 1;
nodes = (
"129 69 OFFCURVE",
"67 105 OFFCURVE",
"22 144 CURVE",
"22 45 LINE",
"67 17 OFFCURVE",
"118 -10 OFFCURVE",
"194 -10 CURVE SMOOTH",
"302 -10 OFFCURVE",
"369 56 OFFCURVE",
"369 138 CURVE SMOOTH",
"369 298 OFFCURVE",
"125 292 OFFCURVE",
"125 376 CURVE SMOOTH",
"125 401 OFFCURVE",
"148 424 OFFCURVE",
"193 424 CURVE SMOOTH",
"242 424 OFFCURVE",
"290 396 OFFCURVE",
"333 363 CURVE",
"333 463 LINE",
"292 491 OFFCURVE",
"242 503 OFFCURVE",
"191 503 CURVE SMOOTH",
"92 503 OFFCURVE",
"30 454 OFFCURVE",
"30 376 CURVE SMOOTH",
"30 220 OFFCURVE",
"275 242 OFFCURVE",
"275 135 CURVE SMOOTH",
"275 89 OFFCURVE",
"236 69 OFFCURVE",
"191 69 CURVE SMOOTH"
);
}
);
width = 400;
}
);
unicode = 0073;
},
{
glyphname = t;
layers = (
{
hints = (
{
horizontal = 1;
place = "{-11, 85}";
type = Stem;
},
{
horizontal = 1;
place = "{408, 84}";
type = Stem;
},
{
place = "{113, 98}";
type = Stem;
}
);
layerId = "19D549C8-9BA7-4C6B-AF4A-F08379699900";
paths = (
{
closed = 1;
nodes = (
"113 128 LINE SMOOTH",
"113 51 OFFCURVE",
"155 -11 OFFCURVE",
"238 -11 CURVE SMOOTH",
"263 -11 OFFCURVE",
"283 -7 OFFCURVE",
"301 3 CURVE",
"301 85 LINE",
"284 77 OFFCURVE",
"270 74 OFFCURVE",
"256 74 CURVE SMOOTH",
"224 74 OFFCURVE",
"211 99 OFFCURVE",
"211 128 CURVE SMOOTH",
"211 408 LINE",
"339 408 LINE",
"339 492 LINE",
"211 492 LINE",
"211 659 LINE",
"14 408 LINE",
"113 408 LINE"
);
}
);
width = 353;
}
);
unicode = 0074;
},
{
glyphname = u;
layers = (
{
hints = (
{
place = "{58, 100}";
type = Stem;
},
{
place = "{393, 100}";
type = Stem;
},
{
horizontal = 1;
place = "{-10, 88}";
type = Stem;
},
{
horizontal = 1;
place = "{-2, 21}";
target = up;
type = BottomGhost;
},
{
horizontal = 1;
place = "{493, -20}";
target = down;
type = TopGhost;
}
);
layerId = "19D549C8-9BA7-4C6B-AF4A-F08379699900";
paths = (
{
closed = 1;
nodes = (
"306 -10 OFFCURVE",
"356 19 OFFCURVE",
"391 62 CURVE",
"493 -2 LINE",
"493 493 LINE",
"393 493 LINE",
"393 211 LINE SMOOTH",
"393 109 OFFCURVE",
"325 78 OFFCURVE",
"270 78 CURVE SMOOTH",
"214 78 OFFCURVE",
"158 111 OFFCURVE",
"158 211 CURVE SMOOTH",
"158 493 LINE",
"58 493 LINE",
"58 181 LINE SMOOTH",
"58 55 OFFCURVE",
"126 -10 OFFCURVE",
"234 -10 CURVE SMOOTH"
);
}
);
width = 551;
}
);
unicode = 0075;
},
{
glyphname = v;
layers = (
{
hints = (
{
place = "{-4, 505}";
type = Stem;
},
{
horizontal = 1;
place = "{-1, 114}";
type = Stem;
},
{
horizontal = 1;
place = "{-1, 21}";
target = up;
type = BottomGhost;
}
);
layerId = "19D549C8-9BA7-4C6B-AF4A-F08379699900";
paths = (
{
closed = 1;
nodes = (
"501 491 LINE",
"396 491 LINE",
"250 113 LINE",
"104 491 LINE",
"-4 491 LINE",
"200 -1 LINE",
"296 -1 LINE"
);
}
);
width = 497;
}
);
unicode = 0076;
},
{
glyphname = w;
layers = (
{
hints = (
{
horizontal = 1;
place = "{-1, 21}";
target = up;
type = BottomGhost;
},
{
horizontal = 1;
place = "{492, -20}";
target = down;
type = TopGhost;
},
{
horizontal = 1;
place = "{493, -20}";
target = down;
type = TopGhost;
},
{
place = "{-1, 750}";
type = Stem;
}
);
layerId = "19D549C8-9BA7-4C6B-AF4A-F08379699900";
paths = (
{
closed = 1;
nodes = (
"-1 492 LINE",
"164 -1 LINE",
"256 -1 LINE",
"372 375 LINE",
"489 -1 LINE",
"584 -1 LINE",
"749 492 LINE",
"647 492 LINE",
"534 128 LINE",
"423 493 LINE",
"328 493 LINE",
"215 127 LINE",
"101 492 LINE"
);
}
);
width = 748;
}
);
unicode = 0077;
},
{
glyphname = x;
layers = (
{
hints = (
{
horizontal = 1;
place = "{0, 21}";
target = up;
type = BottomGhost;
},
{
place = "{6, 494}";
type = Stem;
}
);
layerId = "19D549C8-9BA7-4C6B-AF4A-F08379699900";
paths = (
{
closed = 1;
nodes = (
"6 0 LINE",
"116 0 LINE",
"252 183 LINE",
"388 0 LINE",
"500 0 LINE",
"310 255 LINE",
"488 491 LINE",
"379 491 LINE",
"254 324 LINE",
"130 491 LINE",
"17 491 LINE",
"198 253 LINE"
);
}
);
width = 506;
}
);
unicode = 0078;
},
{
glyphname = y;
layers = (
{
hints = (
{
horizontal = 1;
place = "{-183, 674}";
type = Stem;
},
{
place = "{-5, 509}";
type = Stem;
}
);
layerId = "19D549C8-9BA7-4C6B-AF4A-F08379699900";
paths = (
{
closed = 1;
nodes = (
"215 -1 LINE",
"145 -183 LINE",
"236 -183 LINE",
"504 491 LINE",
"400 491 LINE",
"258 114 LINE",
"103 491 LINE",
"-5 491 LINE"
);
}
);
width = 500;
}
);
unicode = 0079;
},
{
glyphname = z;
layers = (
{
hints = (
{
horizontal = 1;
place = "{0, 84}";
type = Stem;
},
{
horizontal = 1;
place = "{410, 82}";
type = Stem;
},
{
place = "{12, 473}";
type = Stem;
}
);
layerId = "19D549C8-9BA7-4C6B-AF4A-F08379699900";
paths = (
{
closed = 1;
nodes = (
"485 414 LINE",
"485 492 LINE",
"31 492 LINE",
"31 410 LINE",
"361 410 LINE",
"12 78 LINE",
"12 0 LINE",
"480 0 LINE",
"480 84 LINE",
"136 84 LINE"
);
}
);
width = 509;
}
);
unicode = 007A;
},
{
glyphname = braceleft;
layers = (
{
hints = (
{
horizontal = 1;
place = "{247, 82}";
type = Stem;
},
{
place = "{154, 96}";
type = Stem;
}
);
layerId = "19D549C8-9BA7-4C6B-AF4A-F08379699900";
paths = (
{
closed = 1;
nodes = (
"41 247 LINE",
"166 247 OFFCURVE",
"153 157 OFFCURVE",
"152 64 CURVE SMOOTH",
"151 -103 OFFCURVE",
"197 -142 OFFCURVE",
"364 -153 CURVE",
"374 -85 LINE",
"291 -68 OFFCURVE",
"250 -45 OFFCURVE",
"251 45 CURVE",
"251 152 OFFCURVE",
"264 239 OFFCURVE",
"154 289 CURVE",
"275 342 OFFCURVE",
"250 434 OFFCURVE",
"250 546 CURVE SMOOTH",
"250 632 OFFCURVE",
"300 647 OFFCURVE",
"374 662 CURVE",
"364 730 LINE",
"152 718 OFFCURVE",
"154 625 OFFCURVE",
"154 448 CURVE SMOOTH",
"154 366 OFFCURVE",
"128 329 OFFCURVE",
"41 329 CURVE"
);
}
);
width = 415;
}
);
unicode = 007B;
},
{
glyphname = bar;
layers = (
{
hints = (
{
horizontal = 1;
place = "{-161, 933}";
type = Stem;
},
{
place = "{253, 85}";
type = Stem;
}
);
layerId = "19D549C8-9BA7-4C6B-AF4A-F08379699900";
paths = (
{
closed = 1;
nodes = (
"253 772 LINE",
"253 -161 LINE",
"338 -161 LINE",
"338 772 LINE"
);
}
);
width = 589;
}
);
unicode = 007C;
},
{
glyphname = braceright;
layers = (
{
hints = (
{
horizontal = 1;
place = "{-153, 883}";
type = Stem;
},
{
place = "{165, 97}";
type = Stem;
}
);
layerId = "19D549C8-9BA7-4C6B-AF4A-F08379699900";
paths = (
{
closed = 1;
nodes = (
"374 329 LINE",
"236 327 OFFCURVE",
"263 432 OFFCURVE",
"263 528 CURVE SMOOTH",
"263 684 OFFCURVE",
"203 721 OFFCURVE",
"51 730 CURVE",
"41 662 LINE",
"124 646 OFFCURVE",
"165 622 OFFCURVE",
"165 533 CURVE",
"164 425 OFFCURVE",
"151 339 OFFCURVE",
"262 289 CURVE",
"151 239 OFFCURVE",
"164 152 OFFCURVE",
"165 45 CURVE",
"165 -45 OFFCURVE",
"124 -69 OFFCURVE",
"41 -85 CURVE",
"51 -153 LINE",
"265 -141 OFFCURVE",
"262 -55 OFFCURVE",
"262 131 CURVE SMOOTH",
"262 213 OFFCURVE",
"288 247 OFFCURVE",
"374 247 CURVE"
);
}
);
width = 415;
}
);
unicode = 007D;
},
{
glyphname = asciitilde;
layers = (
{
hints = (
{
place = "{51, 416}";
type = Stem;
},
{
horizontal = 1;
place = "{234, 83}";
type = Stem;
},
{
horizontal = 1;
place = "{286, 83}";
type = Stem;
}
);
layerId = "19D549C8-9BA7-4C6B-AF4A-F08379699900";
paths = (
{
closed = 1;
nodes = (
"411 374 LINE",
"394 338 OFFCURVE",
"369 317 OFFCURVE",
"338 317 CURVE SMOOTH",
"288 317 OFFCURVE",
"243 369 OFFCURVE",
"174 369 CURVE SMOOTH",
"114 369 OFFCURVE",
"79 331 OFFCURVE",
"51 254 CURVE",
"107 228 LINE",
"125 265 OFFCURVE",
"145 286 OFFCURVE",
"178 286 CURVE SMOOTH",
"232 286 OFFCURVE",
"288 234 OFFCURVE",
"349 234 CURVE SMOOTH",
"403 234 OFFCURVE",
"441 276 OFFCURVE",
"467 349 CURVE"
);
}
);
width = 519;
}
);
unicode = 007E;
},
{
glyphname = exclamdown;
layers = (
{
hints = (
{
place = "{81, 136}";
type = Stem;
},
{
place = "{106, 86}";
type = Stem;
},
{
horizontal = 1;
place = "{405, 130}";
type = Stem;
}
);
layerId = "19D549C8-9BA7-4C6B-AF4A-F08379699900";
paths = (
{
closed = 1;
nodes = (
"217 511 OFFCURVE",
"185 535 OFFCURVE",
"149 535 CURVE SMOOTH",
"112 535 OFFCURVE",
"81 511 OFFCURVE",
"81 470 CURVE SMOOTH",
"81 432 OFFCURVE",
"112 405 OFFCURVE",
"149 405 CURVE SMOOTH",
"185 405 OFFCURVE",
"217 432 OFFCURVE",
"217 470 CURVE SMOOTH"
);
},
{
closed = 1;
nodes = (
"208 -179 LINE",
"204 -60 LINE",
"181 319 LINE",
"118 319 LINE",
"95 -60 LINE",
"90 -179 LINE"
);
}
);
width = 299;
}
);
unicode = 00A1;
},
{
glyphname = cent;
layers = (
{
hints = (
{
place = "{35, 95}";
type = Stem;
},
{
place = "{283, 72}";
type = Stem;
},
{
horizontal = 1;
place = "{114, 83}";
type = Stem;
},
{
horizontal = 1;
place = "{535, 170}";
type = Stem;
},
{
horizontal = 1;
place = "{540, 165}";
type = Stem;
},
{
horizontal = 1;
place = "{619, 86}";
type = Stem;
}
);
layerId = "19D549C8-9BA7-4C6B-AF4A-F08379699900";
paths = (
{
closed = 1;
nodes = (
"447 574 LINE",
"415 598 OFFCURVE",
"383 613 OFFCURVE",
"351 619 CURVE",
"360 705 LINE",
"288 705 LINE",
"279 626 LINE",
"133 619 OFFCURVE",
"35 514 OFFCURVE",
"35 368 CURVE SMOOTH",
"35 253 OFFCURVE",
"108 155 OFFCURVE",
"217 125 CURVE",
"205 29 LINE",
"278 29 LINE",
"289 114 LINE",
"356 115 OFFCURVE",
"407 136 OFFCURVE",
"446 172 CURVE",
"446 270 LINE",
"408 229 OFFCURVE",
"354 197 OFFCURVE",
"296 197 CURVE",
"336 535 LINE",
"383 530 OFFCURVE",
"424 504 OFFCURVE",
"447 477 CURVE"
);
},
{
closed = 1;
nodes = (
"230 207 LINE",
"167 239 OFFCURVE",
"130 290 OFFCURVE",
"130 372 CURVE SMOOTH",
"130 473 OFFCURVE",
"183 533 OFFCURVE",
"270 540 CURVE"
);
}
);
width = 490;
}
);
unicode = 00A2;
},
{
glyphname = sterling;
layers = (
{
hints = (
{
horizontal = 1;
place = "{0, 86}";
type = Stem;
},
{
horizontal = 1;
place = "{298, 79}";
type = Stem;
},
{
horizontal = 1;
place = "{623, 93}";
type = Stem;
},
{
place = "{97, 104}";
type = Stem;
}
);
layerId = "19D549C8-9BA7-4C6B-AF4A-F08379699900";
paths = (
{
closed = 1;
nodes = (
"445 377 LINE",
"201 377 LINE",
"201 471 LINE SMOOTH",
"201 554 OFFCURVE",
"237 623 OFFCURVE",
"328 623 CURVE SMOOTH",
"393 623 OFFCURVE",
"429 597 OFFCURVE",
"464 554 CURVE",
"532 619 LINE",
"484 678 OFFCURVE",
"419 716 OFFCURVE",
"328 716 CURVE SMOOTH",
"180 716 OFFCURVE",
"97 614 OFFCURVE",
"97 472 CURVE SMOOTH",
"97 377 LINE",
"29 377 LINE",
"29 298 LINE",
"97 298 LINE",
"97 0 LINE",
"524 0 LINE",
"524 86 LINE",
"201 86 LINE",
"201 298 LINE",
"445 298 LINE"
);
}
);
width = 552;
}
);
unicode = 00A3;
},
{
glyphname = currency;
layers = (
{
hints = (
{
horizontal = 1;
place = "{73, 82}";
type = Stem;
},
{
horizontal = 1;
place = "{502, 81}";
type = Stem;
},
{
place = "{94, 87}";
type = Stem;
},
{
place = "{517, 90}";
type = Stem;
}
);
layerId = "19D549C8-9BA7-4C6B-AF4A-F08379699900";
paths = (
{
closed = 1;
nodes = (
"595 627 LINE",
"501 534 LINE",
"459 566 OFFCURVE",
"407 583 OFFCURVE",
"349 583 CURVE SMOOTH",
"293 583 OFFCURVE",
"241 567 OFFCURVE",
"196 533 CURVE",
"101 627 LINE",
"47 572 LINE",
"141 479 LINE",
"107 431 OFFCURVE",
"94 389 OFFCURVE",
"94 328 CURVE SMOOTH",
"94 266 OFFCURVE",
"110 219 OFFCURVE",
"143 176 CURVE",
"47 80 LINE",
"101 25 LINE",
"199 121 LINE",
"245 89 OFFCURVE",
"294 73 OFFCURVE",
"349 73 CURVE SMOOTH",
"405 73 OFFCURVE",
"454 89 OFFCURVE",
"500 120 CURVE",
"596 25 LINE",
"651 80 LINE",
"556 173 LINE",
"588 218 OFFCURVE",
"607 268 OFFCURVE",
"607 328 CURVE SMOOTH",
"607 388 OFFCURVE",
"589 433 OFFCURVE",
"558 481 CURVE",
"651 572 LINE"
);
},
{
closed = 1;
nodes = (
"449 502 OFFCURVE",
"517 427 OFFCURVE",
"517 327 CURVE SMOOTH",
"517 232 OFFCURVE",
"449 155 OFFCURVE",
"349 155 CURVE SMOOTH",
"249 155 OFFCURVE",
"181 232 OFFCURVE",
"181 328 CURVE SMOOTH",
"181 424 OFFCURVE",
"249 502 OFFCURVE",
"349 502 CURVE SMOOTH"
);
}
);
width = 697;
}
);
unicode = 00A4;
},
{
glyphname = yen;
layers = (
{
hints = (
{
place = "{250, 108}";
type = Stem;
},
{
place = "{254, 99}";
type = Stem;
},
{
horizontal = 1;
place = "{0, 213}";
type = Stem;
},
{
horizontal = 1;
place = "{137, 76}";
type = Stem;
},
{
horizontal = 1;
place = "{296, 76}";
type = Stem;
},
{
horizontal = 1;
place = "{704, -20}";
target = down;
type = TopGhost;
}
);
layerId = "19D549C8-9BA7-4C6B-AF4A-F08379699900";
paths = (
{
closed = 1;
nodes = (
"69 213 LINE",
"69 137 LINE",
"254 137 LINE",
"254 0 LINE",
"353 0 LINE",
"353 137 LINE",
"537 137 LINE",
"537 213 LINE",
"355 213 LINE",
"362 296 LINE",
"537 296 LINE",
"537 372 LINE",
"394 372 LINE",
"607 704 LINE",
"492 704 LINE",
"306 388 LINE",
"118 704 LINE",
"0 704 LINE",
"213 372 LINE",
"69 372 LINE",
"69 296 LINE",
"245 296 LINE",
"255 213 LINE"
);
}
);
width = 606;
}
);
unicode = 00A5;
},
{
glyphname = brokenbar;
layers = (
{
hints = (
{
horizontal = 1;
place = "{-174, 853}";
type = Stem;
},
{
place = "{253, 91}";
type = Stem;
}
);
layerId = "19D549C8-9BA7-4C6B-AF4A-F08379699900";
paths = (
{
closed = 1;
nodes = (
"253 679 LINE",
"253 327 LINE",
"344 327 LINE",
"344 679 LINE"
);
},
{
closed = 1;
nodes = (
"253 173 LINE",
"253 -174 LINE",
"344 -174 LINE",
"344 173 LINE"
);
}
);
width = 595;
}
);
unicode = 00A6;
},
{
glyphname = section;
layers = (
{
hints = (
{
place = "{33, 88}";
type = Stem;
},
{
place = "{82, 98}";
type = Stem;
},
{
place = "{369, 97}";
type = Stem;
},
{
place = "{427, 88}";
type = Stem;
},
{
horizontal = 1;
place = "{-74, 78}";
type = Stem;
},
{
horizontal = 1;
place = "{642, 79}";
type = Stem;
}
);
layerId = "19D549C8-9BA7-4C6B-AF4A-F08379699900";
paths = (
{
closed = 1;
nodes = (
"434 670 LINE",
"393 701 OFFCURVE",
"338 721 OFFCURVE",
"273 721 CURVE SMOOTH",
"162 721 OFFCURVE",
"82 663 OFFCURVE",
"82 579 CURVE SMOOTH",
"82 528 OFFCURVE",
"114 488 OFFCURVE",
"151 462 CURVE",
"75 443 OFFCURVE",
"33 401 OFFCURVE",
"33 336 CURVE SMOOTH",
"33 267 OFFCURVE",
"86 216 OFFCURVE",
"222 177 CURVE",
"317 148 OFFCURVE",
"369 116 OFFCURVE",
"369 74 CURVE SMOOTH",
"369 28 OFFCURVE",
"334 4 OFFCURVE",
"275 4 CURVE SMOOTH",
"212 4 OFFCURVE",
"152 27 OFFCURVE",
"106 75 CURVE",
"106 -18 LINE",
"150 -52 OFFCURVE",
"205 -74 OFFCURVE",
"274 -74 CURVE SMOOTH",
"389 -74 OFFCURVE",
"466 -12 OFFCURVE",
"466 77 CURVE SMOOTH",
"466 121 OFFCURVE",
"443 158 OFFCURVE",
"399 191 CURVE",
"472 211 OFFCURVE",
"515 249 OFFCURVE",
"515 317 CURVE SMOOTH",
"515 384 OFFCURVE",
"473 427 OFFCURVE",
"322 476 CURVE SMOOTH",
"212 512 OFFCURVE",
"180 547 OFFCURVE",
"180 578 CURVE SMOOTH",
"180 621 OFFCURVE",
"219 642 OFFCURVE",
"278 642 CURVE SMOOTH",
"338 642 OFFCURVE",
"383 619 OFFCURVE",
"434 578 CURVE"
);
},
{
closed = 1;
nodes = (
"427 258 OFFCURVE",
"392 231 OFFCURVE",
"337 231 CURVE",
"219 247 OFFCURVE",
"121 290 OFFCURVE",
"121 349 CURVE SMOOTH",
"121 392 OFFCURVE",
"159 415 OFFCURVE",
"214 421 CURVE",
"273 411 OFFCURVE",
"427 368 OFFCURVE",
"427 295 CURVE SMOOTH"
);
}
);
width = 562;
}
);
unicode = 00A7;
},
{
glyphname = dieresis;
layers = (
{
hints = (
{
horizontal = 1;
place = "{627, 126}";
type = Stem;
},
{
place = "{24, 129}";
type = Stem;
},
{
place = "{222, 126}";
type = Stem;
}
);
layerId = "19D549C8-9BA7-4C6B-AF4A-F08379699900";
paths = (
{
closed = 1;
nodes = (
"24 653 OFFCURVE",
"51 627 OFFCURVE",
"88 627 CURVE SMOOTH",
"123 627 OFFCURVE",
"153 653 OFFCURVE",
"153 690 CURVE SMOOTH",
"153 726 OFFCURVE",
"123 753 OFFCURVE",
"88 753 CURVE SMOOTH",
"51 753 OFFCURVE",
"24 726 OFFCURVE",
"24 690 CURVE SMOOTH"
);
},
{
closed = 1;
nodes = (
"222 653 OFFCURVE",
"249 627 OFFCURVE",
"284 627 CURVE SMOOTH",
"321 627 OFFCURVE",
"348 653 OFFCURVE",
"348 690 CURVE SMOOTH",
"348 726 OFFCURVE",
"321 753 OFFCURVE",
"284 753 CURVE SMOOTH",
"249 753 OFFCURVE",
"222 726 OFFCURVE",
"222 690 CURVE SMOOTH"
);
}
);
width = 372;
}
);
unicode = 00A8;
},
{
glyphname = copyright;
layers = (
{
hints = (
{
horizontal = 1;
place = "{-32, 64}";
type = Stem;
},
{
horizontal = 1;
place = "{137, 79}";
type = Stem;
},
{
horizontal = 1;
place = "{509, 78}";
type = Stem;
},
{
horizontal = 1;
place = "{682, 65}";
type = Stem;
},
{
place = "{35, 61}";
type = Stem;
},
{
place = "{207, 91}";
type = Stem;
},
{
place = "{745, 61}";
type = Stem;
}
);
layerId = "19D549C8-9BA7-4C6B-AF4A-F08379699900";
paths = (
{
closed = 1;
nodes = (
"635 -32 OFFCURVE",
"806 141 OFFCURVE",
"806 357 CURVE SMOOTH",
"806 572 OFFCURVE",
"632 747 OFFCURVE",
"420 747 CURVE SMOOTH",
"209 747 OFFCURVE",
"35 570 OFFCURVE",
"35 360 CURVE SMOOTH",
"35 143 OFFCURVE",
"204 -32 OFFCURVE",
"421 -32 CURVE SMOOTH"
);
},
{
closed = 1;
nodes = (
"240 32 OFFCURVE",
"96 179 OFFCURVE",
"96 359 CURVE SMOOTH",
"96 537 OFFCURVE",
"241 682 OFFCURVE",
"421 682 CURVE SMOOTH",
"601 682 OFFCURVE",
"745 537 OFFCURVE",
"745 357 CURVE SMOOTH",
"745 177 OFFCURVE",
"600 32 OFFCURVE",
"421 32 CURVE SMOOTH"
);
},
{
closed = 1;
nodes = (
"549 266 LINE",
"506 227 OFFCURVE",
"465 216 OFFCURVE",
"431 216 CURVE SMOOTH",
"350 216 OFFCURVE",
"298 281 OFFCURVE",
"298 364 CURVE SMOOTH",
"298 446 OFFCURVE",
"354 509 OFFCURVE",
"429 509 CURVE SMOOTH",
"474 509 OFFCURVE",
"519 488 OFFCURVE",
"550 458 CURVE",
"550 547 LINE",
"523 566 OFFCURVE",
"479 587 OFFCURVE",
"423 587 CURVE SMOOTH",
"294 587 OFFCURVE",
"207 490 OFFCURVE",
"207 364 CURVE SMOOTH",
"207 236 OFFCURVE",
"296 137 OFFCURVE",
"421 137 CURVE SMOOTH",
"474 137 OFFCURVE",
"515 155 OFFCURVE",
"549 183 CURVE"
);
}
);
width = 840;
}
);
unicode = 00A9;
},
{
glyphname = ordfeminine;
layers = (
{
hints = (
{
horizontal = 1;
place = "{301, 52}";
type = Stem;
},
{
horizontal = 1;
place = "{423, 46}";
type = Stem;
},
{
horizontal = 1;
place = "{569, 40}";
type = Stem;
},
{
horizontal = 1;
place = "{669, 53}";
type = Stem;
},
{
place = "{24, 60}";
type = Stem;
},
{
place = "{224, 60}";
type = Stem;
}
);
layerId = "19D549C8-9BA7-4C6B-AF4A-F08379699900";
paths = (
{
closed = 1;
nodes = (
"168 423 OFFCURVE",
"201 441 OFFCURVE",
"224 469 CURVE",
"224 429 LINE",
"284 429 LINE",
"284 602 LINE SMOOTH",
"284 684 OFFCURVE",
"233 722 OFFCURVE",
"156 722 CURVE SMOOTH",
"116 722 OFFCURVE",
"79 711 OFFCURVE",
"49 696 CURVE",
"65 647 LINE",
"91 662 OFFCURVE",
"119 669 OFFCURVE",
"149 669 CURVE SMOOTH",
"196 669 OFFCURVE",
"224 648 OFFCURVE",
"224 603 CURVE SMOOTH",
"224 596 LINE",
"199 603 OFFCURVE",
"178 609 OFFCURVE",
"146 609 CURVE SMOOTH",
"74 609 OFFCURVE",
"24 578 OFFCURVE",
"24 514 CURVE SMOOTH",
"24 454 OFFCURVE",
"77 423 OFFCURVE",
"129 423 CURVE SMOOTH"
);
},
{
closed = 1;
nodes = (
"110 469 OFFCURVE",
"84 485 OFFCURVE",
"84 517 CURVE SMOOTH",
"84 550 OFFCURVE",
"110 569 OFFCURVE",
"155 569 CURVE SMOOTH",
"183 569 OFFCURVE",
"206 563 OFFCURVE",
"224 555 CURVE",
"224 536 LINE SMOOTH",
"224 495 OFFCURVE",
"187 469 OFFCURVE",
"144 469 CURVE SMOOTH"
);
},
{
closed = 1;
nodes = (
"21 301 LINE",
"289 301 LINE",
"289 353 LINE",
"21 353 LINE"
);
}
);
width = 326;
}
);
unicode = 00AA;
},
{
glyphname = guillemotleft;
layers = (
{
hints = (
{
horizontal = 1;
place = "{42, 426}";
type = Stem;
},
{
place = "{45, 456}";
type = Stem;
}
);
layerId = "19D549C8-9BA7-4C6B-AF4A-F08379699900";
paths = (
{
closed = 1;
nodes = (
"151 256 LINE",
"281 437 LINE",
"200 468 LINE",
"45 253 LINE",
"200 42 LINE",
"280 76 LINE"
);
},
{
closed = 1;
nodes = (
"371 256 LINE",
"501 437 LINE",
"420 468 LINE",
"265 253 LINE",
"420 42 LINE",
"500 76 LINE"
);
}
);
width = 555;
}
);
unicode = 00AB;
},
{
glyphname = logicalnot;
layers = (
{
hints = (
{
horizontal = 1;
place = "{330, 82}";
type = Stem;
},
{
place = "{479, 82}";
type = Stem;
}
);
layerId = "19D549C8-9BA7-4C6B-AF4A-F08379699900";
paths = (
{
closed = 1;
nodes = (
"561 412 LINE",
"47 412 LINE",
"47 330 LINE",
"479 330 LINE",
"479 128 LINE",
"561 128 LINE"
);
}
);
width = 607;
}
);
unicode = 00AC;
},
{
glyphname = uni00AD;
layers = (
{
hints = (
{
horizontal = 1;
place = "{227, 92}";
type = Stem;
},
{
place = "{29, 281}";
type = Stem;
}
);
layerId = "19D549C8-9BA7-4C6B-AF4A-F08379699900";
paths = (
{
closed = 1;
nodes = (
"310 319 LINE",
"29 319 LINE",
"29 227 LINE",
"310 227 LINE"
);
}
);
width = 339;
}
);
unicode = 00AD;
},
{
glyphname = registered;
layers = (
{
hints = (
{
horizontal = 1;
place = "{-2, 57}";
type = Stem;
},
{
horizontal = 1;
place = "{318, 68}";
type = Stem;
},
{
horizontal = 1;
place = "{502, 66}";
type = Stem;
},
{
horizontal = 1;
place = "{656, 57}";
type = Stem;
},
{
place = "{21, 60}";
type = Stem;
},
{
place = "{248, 77}";
type = Stem;
},
{
place = "{455, 72}";
type = Stem;
},
{
place = "{682, 60}";
type = Stem;
}
);
layerId = "19D549C8-9BA7-4C6B-AF4A-F08379699900";
paths = (
{
closed = 1;
nodes = (
"21 160 OFFCURVE",
"182 -2 OFFCURVE",
"383 -2 CURVE SMOOTH",
"577 -2 OFFCURVE",
"742 161 OFFCURVE",
"742 357 CURVE SMOOTH",
"742 552 OFFCURVE",
"581 713 OFFCURVE",
"385 713 CURVE SMOOTH",
"182 713 OFFCURVE",
"21 555 OFFCURVE",
"21 357 CURVE SMOOTH"
);
},
{
closed = 1;
nodes = (
"81 523 OFFCURVE",
"215 656 OFFCURVE",
"385 656 CURVE SMOOTH",
"547 656 OFFCURVE",
"682 522 OFFCURVE",
"682 358 CURVE SMOOTH",
"682 194 OFFCURVE",
"550 55 OFFCURVE",
"383 55 CURVE SMOOTH",
"212 55 OFFCURVE",
"81 191 OFFCURVE",
"81 356 CURVE SMOOTH"
);
},
{
closed = 1;
nodes = (
"248 148 LINE",
"325 148 LINE",
"325 318 LINE",
"344 318 LINE",
"475 148 LINE",
"565 148 LINE",
"424 328 LINE",
"480 341 OFFCURVE",
"527 386 OFFCURVE",
"527 449 CURVE SMOOTH",
"527 522 OFFCURVE",
"470 568 OFFCURVE",
"395 568 CURVE SMOOTH",
"248 568 LINE"
);
},
{
closed = 1;
nodes = (
"325 386 LINE",
"325 502 LINE",
"383 502 LINE SMOOTH",
"432 502 OFFCURVE",
"455 474 OFFCURVE",
"455 443 CURVE SMOOTH",
"455 408 OFFCURVE",
"423 386 OFFCURVE",
"382 386 CURVE SMOOTH"
);
}
);
width = 762;
}
);
unicode = 00AE;
},
{
glyphname = degree;
layers = (
{
hints = (
{
horizontal = 1;
place = "{425, 60}";
type = Stem;
},
{
horizontal = 1;
place = "{667, 60}";
type = Stem;
},
{
place = "{36, 64}";
type = Stem;
},
{
place = "{280, 63}";
type = Stem;
}
);
layerId = "19D549C8-9BA7-4C6B-AF4A-F08379699900";
paths = (
{
closed = 1;
nodes = (
"343 661 OFFCURVE",
"275 727 OFFCURVE",
"190 727 CURVE SMOOTH",
"108 727 OFFCURVE",
"36 658 OFFCURVE",
"36 575 CURVE SMOOTH",
"36 492 OFFCURVE",
"107 425 OFFCURVE",
"190 425 CURVE SMOOTH",
"274 425 OFFCURVE",
"343 492 OFFCURVE",
"343 576 CURVE SMOOTH"
);
},
{
closed = 1;
nodes = (
"280 522 OFFCURVE",
"240 485 OFFCURVE",
"190 485 CURVE SMOOTH",
"138 485 OFFCURVE",
"100 526 OFFCURVE",
"100 576 CURVE SMOOTH",
"100 624 OFFCURVE",
"139 667 OFFCURVE",
"190 667 CURVE SMOOTH",
"240 667 OFFCURVE",
"280 626 OFFCURVE",
"280 576 CURVE SMOOTH"
);
}
);
width = 379;
}
);
unicode = 00B0;
},
{
glyphname = plusminus;
layers = (
{
hints = (
{
horizontal = 1;
place = "{28, 80}";
type = Stem;
},
{
horizontal = 1;
place = "{336, 80}";
type = Stem;
},
{
place = "{260, 79}";
type = Stem;
}
);
layerId = "19D549C8-9BA7-4C6B-AF4A-F08379699900";
paths = (
{
closed = 1;
nodes = (
"53 336 LINE",
"260 336 LINE",
"260 180 LINE",
"339 180 LINE",
"339 336 LINE",
"546 336 LINE",
"546 416 LINE",
"339 416 LINE",
"339 577 LINE",
"260 577 LINE",
"260 416 LINE",
"53 416 LINE"
);
},
{
closed = 1;
nodes = (
"53 28 LINE",
"546 28 LINE",
"546 108 LINE",
"53 108 LINE"
);
}
);
width = 599;
}
);
unicode = 00B1;
},
{
glyphname = twosuperior;
layers = (
{
hints = (
{
horizontal = 1;
place = "{285, 63}";
type = Stem;
},
{
horizontal = 1;
place = "{656, 64}";
type = Stem;
},
{
place = "{238, 78}";
type = Stem;
}
);
layerId = "19D549C8-9BA7-4C6B-AF4A-F08379699900";
paths = (
{
closed = 1;
nodes = (
"14 285 LINE",
"293 285 LINE",
"318 349 LINE",
"155 348 LINE",
"208 410 LINE",
"285 497 OFFCURVE",
"316 536 OFFCURVE",
"316 594 CURVE SMOOTH",
"316 668 OFFCURVE",
"261 720 OFFCURVE",
"179 720 CURVE SMOOTH",
"125 720 OFFCURVE",
"92 700 OFFCURVE",
"53 650 CURVE",
"108 610 LINE",
"128 642 OFFCURVE",
"153 656 OFFCURVE",
"176 656 CURVE SMOOTH",
"212 656 OFFCURVE",
"238 629 OFFCURVE",
"238 593 CURVE SMOOTH",
"238 554 OFFCURVE",
"208 515 OFFCURVE",
"136 429 CURVE SMOOTH"
);
}
);
width = 349;
}
);
unicode = 00B2;
},
{
glyphname = threesuperior;
layers = (
{
hints = (
{
place = "{191, 74}";
type = Stem;
},
{
place = "{212, 75}";
type = Stem;
},
{
horizontal = 1;
place = "{278, 62}";
type = Stem;
},
{
horizontal = 1;
place = "{493, 58}";
type = Stem;
},
{
horizontal = 1;
place = "{661, 62}";
type = Stem;
}
);
layerId = "19D549C8-9BA7-4C6B-AF4A-F08379699900";
paths = (
{
closed = 1;
nodes = (
"9 317 LINE",
"45 290 OFFCURVE",
"87 278 OFFCURVE",
"127 278 CURVE SMOOTH",
"218 278 OFFCURVE",
"287 332 OFFCURVE",
"287 417 CURVE SMOOTH",
"287 469 OFFCURVE",
"260 504 OFFCURVE",
"207 526 CURVE",
"242 549 OFFCURVE",
"265 575 OFFCURVE",
"265 617 CURVE SMOOTH",
"265 684 OFFCURVE",
"209 723 OFFCURVE",
"133 723 CURVE SMOOTH",
"93 723 OFFCURVE",
"56 711 OFFCURVE",
"35 687 CURVE",
"53 636 LINE",
"80 652 OFFCURVE",
"106 661 OFFCURVE",
"132 661 CURVE SMOOTH",
"168 661 OFFCURVE",
"191 638 OFFCURVE",
"191 611 CURVE SMOOTH",
"191 577 OFFCURVE",
"157 551 OFFCURVE",
"110 551 CURVE SMOOTH",
"93 551 LINE",
"93 492 LINE",
"97 492 OFFCURVE",
"112 493 OFFCURVE",
"116 493 CURVE SMOOTH",
"190 493 OFFCURVE",
"212 455 OFFCURVE",
"212 419 CURVE SMOOTH",
"212 374 OFFCURVE",
"177 340 OFFCURVE",
"125 340 CURVE SMOOTH",
"93 340 OFFCURVE",
"63 352 OFFCURVE",
"31 370 CURVE"
);
}
);
width = 311;
}
);
unicode = 00B3;
},
{
glyphname = acute;
layers = (
{
hints = (
{
horizontal = 1;
place = "{616, 155}";
type = Stem;
},
{
place = "{20, 203}";
type = Stem;
}
);
layerId = "19D549C8-9BA7-4C6B-AF4A-F08379699900";
paths = (
{
closed = 1;
nodes = (
"20 616 LINE",
"92 616 LINE",
"223 745 LINE",
"114 771 LINE"
);
}
);
width = 239;
}
);
unicode = 00B4;
},
{
glyphname = uni00B5;
layers = (
{
hints = (
{
place = "{69, 100}";
type = Stem;
},
{
place = "{403, 100}";
type = Stem;
},
{
horizontal = 1;
place = "{-10, 87}";
type = Stem;
},
{
horizontal = 1;
place = "{0, 21}";
target = up;
type = BottomGhost;
},
{
horizontal = 1;
place = "{493, -20}";
target = down;
type = TopGhost;
}
);
layerId = "19D549C8-9BA7-4C6B-AF4A-F08379699900";
paths = (
{
closed = 1;
nodes = (
"169 59 LINE",
"191 13 OFFCURVE",
"232 -10 OFFCURVE",
"277 -10 CURVE SMOOTH",
"330 -10 OFFCURVE",
"375 21 OFFCURVE",
"402 64 CURVE",
"503 0 LINE",
"503 493 LINE",
"403 493 LINE",
"403 211 LINE SMOOTH",
"403 121 OFFCURVE",
"347 77 OFFCURVE",
"278 77 CURVE SMOOTH",
"225 77 OFFCURVE",
"169 116 OFFCURVE",
"169 211 CURVE SMOOTH",
"169 493 LINE",
"69 493 LINE",
"69 -183 LINE",
"169 -183 LINE"
);
}
);
width = 576;
}
);
unicode = 00B5;
},
{
glyphname = paragraph;
layers = (
{
hints = (
{
horizontal = 1;
place = "{622, 84}";
type = Stem;
},
{
place = "{210, 85}";
type = Stem;
},
{
place = "{384, 85}";
type = Stem;
}
);
layerId = "19D549C8-9BA7-4C6B-AF4A-F08379699900";
paths = (
{
closed = 1;
nodes = (
"295 -106 LINE",
"295 622 LINE",
"384 622 LINE",
"384 -106 LINE",
"469 -106 LINE",
"469 622 LINE",
"505 622 LINE",
"542 706 LINE",
"237 706 LINE SMOOTH",
"112 706 OFFCURVE",
"35 642 OFFCURVE",
"35 527 CURVE SMOOTH",
"35 406 OFFCURVE",
"120 369 OFFCURVE",
"210 352 CURVE",
"210 -106 LINE"
);
}
);
width = 634;
}
);
unicode = 00B6;
},
{
glyphname = periodcentered;
layers = (
{
hints = (
{
horizontal = 1;
place = "{287, 137}";
type = Stem;
},
{
place = "{82, 136}";
type = Stem;
}
);
layerId = "19D549C8-9BA7-4C6B-AF4A-F08379699900";
paths = (
{
closed = 1;
nodes = (
"82 317 OFFCURVE",
"112 287 OFFCURVE",
"150 287 CURVE SMOOTH",
"188 287 OFFCURVE",
"218 317 OFFCURVE",
"218 356 CURVE SMOOTH",
"218 395 OFFCURVE",
"188 424 OFFCURVE",
"150 424 CURVE SMOOTH",
"112 424 OFFCURVE",
"82 395 OFFCURVE",
"82 356 CURVE SMOOTH"
);
}
);
width = 300;
}
);
unicode = 00B7;
},
{
glyphname = cedilla;
layers = (
{
hints = (
{
horizontal = 1;
place = "{-225, 53}";
type = Stem;
},
{
horizontal = 1;
place = "{-99, 29}";
type = Stem;
},
{
place = "{167, 79}";
type = Stem;
}
);
layerId = "19D549C8-9BA7-4C6B-AF4A-F08379699900";
paths = (
{
closed = 1;
nodes = (
"201 0 LINE",
"135 0 LINE",
"74 -92 LINE",
"93 -107 LINE",
"106 -102 OFFCURVE",
"115 -99 OFFCURVE",
"126 -99 CURVE SMOOTH",
"150 -99 OFFCURVE",
"167 -109 OFFCURVE",
"167 -129 CURVE SMOOTH",
"167 -162 OFFCURVE",
"126 -172 OFFCURVE",
"104 -172 CURVE SMOOTH",
"88 -172 OFFCURVE",
"71 -169 OFFCURVE",
"51 -161 CURVE",
"38 -204 LINE",
"64 -217 OFFCURVE",
"92 -225 OFFCURVE",
"125 -225 CURVE SMOOTH",
"176 -225 OFFCURVE",
"246 -202 OFFCURVE",
"246 -138 CURVE SMOOTH",
"246 -85 OFFCURVE",
"198 -70 OFFCURVE",
"164 -70 CURVE SMOOTH",
"160 -70 LINE"
);
}
);
width = 290;
}
);
unicode = 00B8;
},
{
glyphname = onesuperior;
layers = (
{
hints = (
{
horizontal = 1;
place = "{713, -20}";
target = down;
type = TopGhost;
},
{
place = "{85, 78}";
type = Stem;
}
);
layerId = "19D549C8-9BA7-4C6B-AF4A-F08379699900";
paths = (
{
closed = 1;
nodes = (
"85 286 LINE",
"163 286 LINE",
"163 713 LINE",
"103 713 LINE",
"84 689 OFFCURVE",
"57 667 OFFCURVE",
"27 643 CURVE",
"27 569 LINE",
"45 579 OFFCURVE",
"67 597 OFFCURVE",
"85 617 CURVE"
);
}
);
width = 240;
}
);
unicode = 00B9;
},
{
glyphname = ordmasculine;
layers = (
{
hints = (
{
horizontal = 1;
place = "{302, 52}";
type = Stem;
},
{
horizontal = 1;
place = "{422, 56}";
type = Stem;
},
{
horizontal = 1;
place = "{667, 56}";
type = Stem;
},
{
place = "{21, 62}";
type = Stem;
},
{
place = "{259, 62}";
type = Stem;
}
);
layerId = "19D549C8-9BA7-4C6B-AF4A-F08379699900";
paths = (
{
closed = 1;
nodes = (
"256 422 OFFCURVE",
"321 491 OFFCURVE",
"321 575 CURVE SMOOTH",
"321 653 OFFCURVE",
"258 723 OFFCURVE",
"172 723 CURVE SMOOTH",
"85 723 OFFCURVE",
"21 655 OFFCURVE",
"21 572 CURVE SMOOTH",
"21 490 OFFCURVE",
"84 422 OFFCURVE",
"170 422 CURVE SMOOTH"
);
},
{
closed = 1;
nodes = (
"120 478 OFFCURVE",
"83 519 OFFCURVE",
"83 575 CURVE SMOOTH",
"83 624 OFFCURVE",
"116 667 OFFCURVE",
"170 667 CURVE SMOOTH",
"222 667 OFFCURVE",
"259 627 OFFCURVE",
"259 572 CURVE SMOOTH",
"259 519 OFFCURVE",
"225 478 OFFCURVE",
"172 478 CURVE SMOOTH"
);
},
{
closed = 1;
nodes = (
"27 302 LINE",
"315 302 LINE",
"315 354 LINE",
"27 354 LINE"
);
}
);
width = 342;
}
);
unicode = 00BA;
},
{
glyphname = guillemotright;
layers = (
{
hints = (
{
horizontal = 1;
place = "{42, 426}";
type = Stem;
},
{
place = "{49, 456}";
type = Stem;
}
);
layerId = "19D549C8-9BA7-4C6B-AF4A-F08379699900";
paths = (
{
closed = 1;
nodes = (
"50 76 LINE",
"130 42 LINE",
"285 253 LINE",
"130 468 LINE",
"49 437 LINE",
"179 256 LINE"
);
},
{
closed = 1;
nodes = (
"270 76 LINE",
"349 42 LINE",
"505 253 LINE",
"349 468 LINE",
"268 437 LINE",
"398 256 LINE"
);
}
);
width = 555;
}
);
unicode = 00BB;
},
{
glyphname = onequarter;
layers = (
{
hints = (
{
place = "{75, 78}";
type = Stem;
},
{
place = "{524, 76}";
type = Stem;
},
{
horizontal = 1;
place = "{1, 132}";
type = Stem;
},
{
horizontal = 1;
place = "{72, 61}";
type = Stem;
},
{
horizontal = 1;
place = "{713, -20}";
target = down;
type = TopGhost;
}
);
layerId = "19D549C8-9BA7-4C6B-AF4A-F08379699900";
paths = (
{
closed = 1;
nodes = (
"577 761 LINE",
"492 774 LINE",
"40 -54 LINE",
"123 -65 LINE"
);
},
{
closed = 1;
nodes = (
"75 286 LINE",
"153 286 LINE",
"153 713 LINE",
"93 713 LINE",
"74 689 OFFCURVE",
"47 667 OFFCURVE",
"17 643 CURVE",
"17 569 LINE",
"35 579 OFFCURVE",
"57 597 OFFCURVE",
"75 617 CURVE"
);
},
{
closed = 1;
nodes = (
"331 72 LINE",
"404 72 OFFCURVE",
"464 73 OFFCURVE",
"524 73 CURVE",
"523 1 LINE",
"600 1 LINE",
"600 73 LINE",
"610 73 OFFCURVE",
"618 72 OFFCURVE",
"629 72 CURVE",
"644 134 LINE",
"600 133 LINE",
"600 429 LINE",
"539 429 LINE",
"331 114 LINE"
);
},
{
closed = 1;
nodes = (
"420 133 LINE",
"458 191 OFFCURVE",
"510 270 OFFCURVE",
"524 293 CURVE",
"524 287 LINE",
"523 274 OFFCURVE",
"524 189 OFFCURVE",
"524 133 CURVE",
"507 133 OFFCURVE",
"488 133 OFFCURVE",
"470 133 CURVE SMOOTH",
"445 133 OFFCURVE",
"425 133 OFFCURVE",
"421 133 CURVE"
);
}
);
width = 665;
}
);
unicode = 00BC;
},
{
glyphname = onehalf;
layers = (
{
hints = (
{
horizontal = 1;
place = "{-1, 63}";
type = Stem;
},
{
horizontal = 1;
place = "{370, 64}";
type = Stem;
},
{
horizontal = 1;
place = "{713, -20}";
target = down;
type = TopGhost;
},
{
place = "{78, 78}";
type = Stem;
},
{
place = "{598, 78}";
type = Stem;
}
);
layerId = "19D549C8-9BA7-4C6B-AF4A-F08379699900";
paths = (
{
closed = 1;
nodes = (
"565 761 LINE",
"480 774 LINE",
"28 -54 LINE",
"111 -65 LINE"
);
},
{
closed = 1;
nodes = (
"78 286 LINE",
"156 286 LINE",
"156 713 LINE",
"96 713 LINE",
"77 689 OFFCURVE",
"50 667 OFFCURVE",
"20 643 CURVE",
"20 569 LINE",
"38 579 OFFCURVE",
"60 597 OFFCURVE",
"78 617 CURVE"
);
},
{
closed = 1;
nodes = (
"374 -1 LINE",
"653 -1 LINE",
"678 63 LINE",
"515 62 LINE",
"568 124 LINE",
"645 211 OFFCURVE",
"676 250 OFFCURVE",
"676 308 CURVE SMOOTH",
"676 382 OFFCURVE",
"621 434 OFFCURVE",
"539 434 CURVE SMOOTH",
"485 434 OFFCURVE",
"452 414 OFFCURVE",
"413 364 CURVE",
"468 324 LINE",
"488 356 OFFCURVE",
"513 370 OFFCURVE",
"536 370 CURVE SMOOTH",
"572 370 OFFCURVE",
"598 343 OFFCURVE",
"598 307 CURVE SMOOTH",
"598 268 OFFCURVE",
"568 229 OFFCURVE",
"496 143 CURVE SMOOTH"
);
}
);
width = 719;
}
);
unicode = 00BD;
},
{
glyphname = threequarters;
layers = (
{
hints = (
{
place = "{222, 74}";
type = Stem;
},
{
place = "{243, 75}";
type = Stem;
},
{
place = "{633, 76}";
type = Stem;
},
{
horizontal = 1;
place = "{1, 132}";
type = Stem;
},
{
horizontal = 1;
place = "{72, 61}";
type = Stem;
},
{
horizontal = 1;
place = "{278, 62}";
type = Stem;
},
{
horizontal = 1;
place = "{493, 58}";
type = Stem;
},
{
horizontal = 1;
place = "{661, 62}";
type = Stem;
}
);
layerId = "19D549C8-9BA7-4C6B-AF4A-F08379699900";
paths = (
{
closed = 1;
nodes = (
"690 761 LINE",
"605 774 LINE",
"153 -54 LINE",
"236 -65 LINE"
);
},
{
closed = 1;
nodes = (
"40 317 LINE",
"76 290 OFFCURVE",
"118 278 OFFCURVE",
"158 278 CURVE SMOOTH",
"249 278 OFFCURVE",
"318 332 OFFCURVE",
"318 417 CURVE SMOOTH",
"318 469 OFFCURVE",
"291 504 OFFCURVE",
"238 526 CURVE",
"273 549 OFFCURVE",
"296 575 OFFCURVE",
"296 617 CURVE SMOOTH",
"296 684 OFFCURVE",
"240 723 OFFCURVE",
"164 723 CURVE SMOOTH",
"124 723 OFFCURVE",
"87 711 OFFCURVE",
"66 687 CURVE",
"84 636 LINE",
"111 652 OFFCURVE",
"137 661 OFFCURVE",
"163 661 CURVE SMOOTH",
"199 661 OFFCURVE",
"222 638 OFFCURVE",
"222 611 CURVE SMOOTH",
"222 577 OFFCURVE",
"188 551 OFFCURVE",
"141 551 CURVE SMOOTH",
"124 551 LINE",
"124 492 LINE",
"128 492 OFFCURVE",
"143 493 OFFCURVE",
"147 493 CURVE SMOOTH",
"221 493 OFFCURVE",
"243 455 OFFCURVE",
"243 419 CURVE SMOOTH",
"243 374 OFFCURVE",
"208 340 OFFCURVE",
"156 340 CURVE SMOOTH",
"124 340 OFFCURVE",
"94 352 OFFCURVE",
"62 370 CURVE"
);
},
{
closed = 1;
nodes = (
"440 72 LINE",
"513 72 OFFCURVE",
"573 73 OFFCURVE",
"633 73 CURVE",
"632 1 LINE",
"709 1 LINE",
"709 73 LINE",
"719 73 OFFCURVE",
"727 72 OFFCURVE",
"738 72 CURVE",
"753 134 LINE",
"709 133 LINE",
"709 429 LINE",
"648 429 LINE",
"440 114 LINE"
);
},
{
closed = 1;
nodes = (
"529 133 LINE",
"567 191 OFFCURVE",
"619 270 OFFCURVE",
"633 293 CURVE",
"633 287 LINE",
"632 274 OFFCURVE",
"633 189 OFFCURVE",
"633 133 CURVE",
"616 133 OFFCURVE",
"597 133 OFFCURVE",
"579 133 CURVE SMOOTH",
"554 133 OFFCURVE",
"534 133 OFFCURVE",
"530 133 CURVE"
);
}
);
width = 774;
}
);
unicode = 00BE;
},
{
glyphname = questiondown;
layers = (
{
hints = (
{
place = "{50, 100}";
type = Stem;
},
{
place = "{187, 137}";
type = Stem;
},
{
place = "{212, 98}";
type = Stem;
},
{
horizontal = 1;
place = "{-193, 91}";
type = Stem;
},
{
horizontal = 1;
place = "{402, 131}";
type = Stem;
}
);
layerId = "19D549C8-9BA7-4C6B-AF4A-F08379699900";
paths = (
{
closed = 1;
nodes = (
"324 508 OFFCURVE",
"292 533 OFFCURVE",
"256 533 CURVE SMOOTH",
"218 533 OFFCURVE",
"187 508 OFFCURVE",
"187 468 CURVE SMOOTH",
"187 431 OFFCURVE",
"218 402 OFFCURVE",
"256 402 CURVE SMOOTH",
"292 402 OFFCURVE",
"324 431 OFFCURVE",
"324 468 CURVE SMOOTH"
);
},
{
closed = 1;
nodes = (
"186 -102 OFFCURVE",
"150 -59 OFFCURVE",
"150 -13 CURVE SMOOTH",
"150 32 OFFCURVE",
"182 64 OFFCURVE",
"217 96 CURVE SMOOTH",
"262 137 OFFCURVE",
"310 185 OFFCURVE",
"310 270 CURVE SMOOTH",
"310 329 LINE",
"212 329 LINE",
"212 297 LINE SMOOTH",
"212 231 OFFCURVE",
"193 199 OFFCURVE",
"143 157 CURVE SMOOTH",
"90 112 OFFCURVE",
"50 58 OFFCURVE",
"50 -20 CURVE SMOOTH",
"50 -125 OFFCURVE",
"126 -193 OFFCURVE",
"236 -193 CURVE SMOOTH",
"307 -193 OFFCURVE",
"368 -164 OFFCURVE",
"403 -120 CURVE",
"403 -13 LINE",
"356 -77 OFFCURVE",
"302 -102 OFFCURVE",
"251 -102 CURVE SMOOTH"
);
}
);
width = 452;
}
);
unicode = 00BF;
},
{
glyphname = Agrave;
layers = (
{
hints = (
{
horizontal = 1;
place = "{0, 21}";
target = up;
type = BottomGhost;
},
{
horizontal = 1;
place = "{185, 88}";
type = Stem;
},
{
horizontal = 1;
place = "{705, -20}";
target = down;
type = TopGhost;
},
{
place = "{-6, 703}";
type = Stem;
}
);
layerId = "19D549C8-9BA7-4C6B-AF4A-F08379699900";
paths = (
{
closed = 1;
nodes = (
"338 830 LINE",
"413 830 LINE",
"316 985 LINE",
"209 959 LINE"
);
},
{
closed = 1;
nodes = (
"507 185 LINE",
"585 0 LINE",
"697 0 LINE",
"390 705 LINE",
"301 705 LINE",
"-6 0 LINE",
"104 0 LINE",
"183 185 LINE"
);
},
{
closed = 1;
nodes = (
"345 584 LINE",
"471 273 LINE",
"219 273 LINE"
);
}
);
width = 692;
}
);
unicode = 00C0;
},
{
glyphname = Aacute;
layers = (
{
hints = (
{
horizontal = 1;
place = "{0, 21}";
target = up;
type = BottomGhost;
},
{
horizontal = 1;
place = "{185, 88}";
type = Stem;
},
{
horizontal = 1;
place = "{705, -20}";
target = down;
type = TopGhost;
},
{
place = "{-6, 703}";
type = Stem;
}
);
layerId = "19D549C8-9BA7-4C6B-AF4A-F08379699900";
paths = (
{
closed = 1;
nodes = (
"296 781 LINE",
"368 781 LINE",
"499 910 LINE",
"390 936 LINE"
);
},
{
closed = 1;
nodes = (
"507 185 LINE",
"585 0 LINE",
"697 0 LINE",
"390 705 LINE",
"301 705 LINE",
"-6 0 LINE",
"104 0 LINE",
"183 185 LINE"
);
},
{
closed = 1;
nodes = (
"345 584 LINE",
"471 273 LINE",
"219 273 LINE"
);
}
);
width = 692;
}
);
unicode = 00C1;
},
{
glyphname = Acircumflex;
layers = (
{
hints = (
{
horizontal = 1;
place = "{0, 21}";
target = up;
type = BottomGhost;
},
{
horizontal = 1;
place = "{185, 88}";
type = Stem;
},
{
horizontal = 1;
place = "{705, -20}";
target = down;
type = TopGhost;
},
{
horizontal = 1;
place = "{788, 149}";
type = Stem;
},
{
place = "{-6, 703}";
type = Stem;
}
);
layerId = "19D549C8-9BA7-4C6B-AF4A-F08379699900";
paths = (
{
closed = 1;
nodes = (
"386 937 LINE",
"309 937 LINE",
"197 788 LINE",
"273 788 LINE",
"347 867 LINE",
"421 788 LINE",
"498 788 LINE"
);
},
{
closed = 1;
nodes = (
"507 185 LINE",
"585 0 LINE",
"697 0 LINE",
"390 705 LINE",
"301 705 LINE",
"-6 0 LINE",
"104 0 LINE",
"183 185 LINE"
);
},
{
closed = 1;
nodes = (
"345 584 LINE",
"471 273 LINE",
"219 273 LINE"
);
}
);
width = 692;
}
);
unicode = 00C2;
},
{
glyphname = Atilde;
layers = (
{
hints = (
{
place = "{-6, 703}";
type = Stem;
},
{
horizontal = 1;
place = "{0, 21}";
target = up;
type = BottomGhost;
},
{
horizontal = 1;
place = "{185, 88}";
type = Stem;
},
{
horizontal = 1;
place = "{705, -20}";
target = down;
type = TopGhost;
},
{
horizontal = 1;
place = "{779, 77}";
type = Stem;
},
{
horizontal = 1;
place = "{816, 77}";
type = Stem;
}
);
layerId = "19D549C8-9BA7-4C6B-AF4A-F08379699900";
paths = (
{
closed = 1;
nodes = (
"241 770 LINE",
"252 803 OFFCURVE",
"273 816 OFFCURVE",
"296 816 CURVE SMOOTH",
"335 816 OFFCURVE",
"374 779 OFFCURVE",
"417 779 CURVE SMOOTH",
"467 779 OFFCURVE",
"497 822 OFFCURVE",
"517 889 CURVE",
"456 901 LINE",
"445 871 OFFCURVE",
"433 856 OFFCURVE",
"411 856 CURVE SMOOTH",
"377 856 OFFCURVE",
"337 893 OFFCURVE",
"289 893 CURVE SMOOTH",
"235 893 OFFCURVE",
"198 848 OFFCURVE",
"179 781 CURVE"
);
},
{
closed = 1;
nodes = (
"507 185 LINE",
"585 0 LINE",
"697 0 LINE",
"390 705 LINE",
"301 705 LINE",
"-6 0 LINE",
"104 0 LINE",
"183 185 LINE"
);
},
{
closed = 1;
nodes = (
"345 584 LINE",
"471 273 LINE",
"219 273 LINE"
);
}
);
width = 692;
}
);
unicode = 00C3;
},
{
glyphname = Adieresis;
layers = (
{
hints = (
{
horizontal = 1;
place = "{0, 21}";
target = up;
type = BottomGhost;
},
{
horizontal = 1;
place = "{185, 88}";
type = Stem;
},
{
horizontal = 1;
place = "{705, -20}";
target = down;
type = TopGhost;
},
{
horizontal = 1;
place = "{792, 126}";
type = Stem;
},
{
place = "{186, 129}";
type = Stem;
},
{
place = "{384, 126}";
type = Stem;
}
);
layerId = "19D549C8-9BA7-4C6B-AF4A-F08379699900";
paths = (
{
closed = 1;
nodes = (
"186 818 OFFCURVE",
"213 792 OFFCURVE",
"250 792 CURVE SMOOTH",
"285 792 OFFCURVE",
"315 818 OFFCURVE",
"315 855 CURVE SMOOTH",
"315 891 OFFCURVE",
"285 918 OFFCURVE",
"250 918 CURVE SMOOTH",
"213 918 OFFCURVE",
"186 891 OFFCURVE",
"186 855 CURVE SMOOTH"
);
},
{
closed = 1;
nodes = (
"384 818 OFFCURVE",
"411 792 OFFCURVE",
"446 792 CURVE SMOOTH",
"483 792 OFFCURVE",
"510 818 OFFCURVE",
"510 855 CURVE SMOOTH",
"510 891 OFFCURVE",
"483 918 OFFCURVE",
"446 918 CURVE SMOOTH",
"411 918 OFFCURVE",
"384 891 OFFCURVE",
"384 855 CURVE SMOOTH"
);
},
{
closed = 1;
nodes = (
"507 185 LINE",
"585 0 LINE",
"697 0 LINE",
"390 705 LINE",
"301 705 LINE",
"-6 0 LINE",
"104 0 LINE",
"183 185 LINE"
);
},
{
closed = 1;
nodes = (
"345 584 LINE",
"471 273 LINE",
"219 273 LINE"
);
}
);
width = 692;
}
);
unicode = 00C4;
},
{
glyphname = Aring;
layers = (
{
hints = (
{
horizontal = 1;
place = "{0, 21}";
target = up;
type = BottomGhost;
},
{
horizontal = 1;
place = "{185, 88}";
type = Stem;
},
{
horizontal = 1;
place = "{836, 52}";
type = Stem;
},
{
place = "{241, 53}";
type = Stem;
},
{
place = "{398, 53}";
type = Stem;
}
);
layerId = "19D549C8-9BA7-4C6B-AF4A-F08379699900";
paths = (
{
closed = 1;
nodes = (
"507 185 LINE",
"585 0 LINE",
"697 0 LINE",
"395 693 LINE",
"429 710 OFFCURVE",
"451 742 OFFCURVE",
"451 783 CURVE SMOOTH",
"451 841 OFFCURVE",
"403 888 OFFCURVE",
"344 888 CURVE SMOOTH",
"289 888 OFFCURVE",
"241 842 OFFCURVE",
"241 784 CURVE SMOOTH",
"241 744 OFFCURVE",
"263 711 OFFCURVE",
"296 694 CURVE",
"-6 0 LINE",
"104 0 LINE",
"183 185 LINE"
);
},
{
closed = 1;
nodes = (
"398 756 OFFCURVE",
"378 734 OFFCURVE",
"346 734 CURVE SMOOTH",
"317 734 OFFCURVE",
"294 753 OFFCURVE",
"294 785 CURVE SMOOTH",
"294 813 OFFCURVE",
"316 836 OFFCURVE",
"346 836 CURVE SMOOTH",
"376 836 OFFCURVE",
"398 812 OFFCURVE",
"398 784 CURVE SMOOTH"
);
},
{
closed = 1;
nodes = (
"345 584 LINE",
"471 273 LINE",
"219 273 LINE"
);
}
);
width = 692;
}
);
unicode = 00C5;
},
{
glyphname = AE;
layers = (
{
hints = (
{
horizontal = 1;
place = "{0, 91}";
type = Stem;
},
{
horizontal = 1;
place = "{185, 88}";
type = Stem;
},
{
horizontal = 1;
place = "{314, 88}";
type = Stem;
},
{
horizontal = 1;
place = "{613, 91}";
type = Stem;
},
{
place = "{454, 103}";
type = Stem;
}
);
layerId = "19D549C8-9BA7-4C6B-AF4A-F08379699900";
paths = (
{
closed = 1;
nodes = (
"-5 0 LINE",
"105 0 LINE",
"215 185 LINE",
"454 185 LINE",
"454 0 LINE",
"941 0 LINE",
"941 91 LINE",
"557 91 LINE",
"557 314 LINE",
"901 314 LINE",
"901 402 LINE",
"557 402 LINE",
"557 613 LINE",
"931 613 LINE",
"931 704 LINE",
"407 704 LINE"
);
},
{
closed = 1;
nodes = (
"262 273 LINE",
"454 599 LINE",
"454 273 LINE"
);
}
);
width = 940;
}
);
unicode = 00C6;
},
{
glyphname = Ccedilla;
layers = (
{
hints = (
{
place = "{38, 106}";
type = Stem;
},
{
place = "{400, 79}";
type = Stem;
},
{
horizontal = 1;
place = "{-225, 53}";
type = Stem;
},
{
horizontal = 1;
place = "{-99, 29}";
type = Stem;
},
{
horizontal = 1;
place = "{-12, 92}";
type = Stem;
},
{
horizontal = 1;
place = "{-12, 21}";
target = up;
type = BottomGhost;
},
{
horizontal = 1;
place = "{625, 93}";
type = Stem;
}
);
layerId = "19D549C8-9BA7-4C6B-AF4A-F08379699900";
paths = (
{
closed = 1;
nodes = (
"632 187 LINE",
"566 129 OFFCURVE",
"499 80 OFFCURVE",
"401 80 CURVE SMOOTH",
"248 80 OFFCURVE",
"144 201 OFFCURVE",
"144 352 CURVE SMOOTH",
"144 502 OFFCURVE",
"248 625 OFFCURVE",
"401 625 CURVE SMOOTH",
"505 625 OFFCURVE",
"569 587 OFFCURVE",
"619 532 CURVE",
"619 645 LINE",
"563 688 OFFCURVE",
"496 718 OFFCURVE",
"403 718 CURVE SMOOTH",
"192 718 OFFCURVE",
"38 557 OFFCURVE",
"38 351 CURVE SMOOTH",
"38 157 OFFCURVE",
"175 6 OFFCURVE",
"360 -12 CURVE",
"307 -92 LINE",
"326 -107 LINE",
"339 -102 OFFCURVE",
"348 -99 OFFCURVE",
"359 -99 CURVE SMOOTH",
"383 -99 OFFCURVE",
"400 -109 OFFCURVE",
"400 -129 CURVE SMOOTH",
"400 -162 OFFCURVE",
"359 -172 OFFCURVE",
"337 -172 CURVE SMOOTH",
"321 -172 OFFCURVE",
"304 -169 OFFCURVE",
"284 -161 CURVE",
"271 -204 LINE",
"297 -217 OFFCURVE",
"325 -225 OFFCURVE",
"358 -225 CURVE SMOOTH",
"409 -225 OFFCURVE",
"479 -202 OFFCURVE",
"479 -138 CURVE SMOOTH",
"479 -85 OFFCURVE",
"431 -70 OFFCURVE",
"397 -70 CURVE SMOOTH",
"393 -70 LINE",
"426 -13 LINE",
"510 -7 OFFCURVE",
"574 26 OFFCURVE",
"632 74 CURVE"
);
}
);
width = 673;
}
);
unicode = 00C7;
},
{
glyphname = Egrave;
layers = (
{
hints = (
{
horizontal = 1;
place = "{0, 91}";
type = Stem;
},
{
horizontal = 1;
place = "{314, 88}";
type = Stem;
},
{
horizontal = 1;
place = "{613, 91}";
type = Stem;
},
{
place = "{77, 103}";
type = Stem;
}
);
layerId = "19D549C8-9BA7-4C6B-AF4A-F08379699900";
paths = (
{
closed = 1;
nodes = (
"307 830 LINE",
"382 830 LINE",
"285 985 LINE",
"178 959 LINE"
);
},
{
closed = 1;
nodes = (
"180 314 LINE",
"524 314 LINE",
"524 402 LINE",
"180 402 LINE",
"180 613 LINE",
"554 613 LINE",
"554 704 LINE",
"77 704 LINE",
"77 0 LINE",
"564 0 LINE",
"564 91 LINE",
"180 91 LINE"
);
}
);
width = 628;
}
);
unicode = 00C8;
},
{
glyphname = Eacute;
layers = (
{
hints = (
{
horizontal = 1;
place = "{0, 91}";
type = Stem;
},
{
horizontal = 1;
place = "{314, 88}";
type = Stem;
},
{
horizontal = 1;
place = "{613, 91}";
type = Stem;
},
{
place = "{77, 103}";
type = Stem;
}
);
layerId = "19D549C8-9BA7-4C6B-AF4A-F08379699900";
paths = (
{
closed = 1;
nodes = (
"265 781 LINE",
"337 781 LINE",
"468 910 LINE",
"359 936 LINE"
);
},
{
closed = 1;
nodes = (
"180 314 LINE",
"524 314 LINE",
"524 402 LINE",
"180 402 LINE",
"180 613 LINE",
"554 613 LINE",
"554 704 LINE",
"77 704 LINE",
"77 0 LINE",
"564 0 LINE",
"564 91 LINE",
"180 91 LINE"
);
}
);
width = 628;
}
);
unicode = 00C9;
},
{
glyphname = Ecircumflex;
layers = (
{
hints = (
{
horizontal = 1;
place = "{0, 91}";
type = Stem;
},
{
horizontal = 1;
place = "{314, 88}";
type = Stem;
},
{
horizontal = 1;
place = "{613, 91}";
type = Stem;
},
{
horizontal = 1;
place = "{788, 149}";
type = Stem;
},
{
place = "{77, 103}";
type = Stem;
}
);
layerId = "19D549C8-9BA7-4C6B-AF4A-F08379699900";
paths = (
{
closed = 1;
nodes = (
"356 937 LINE",
"279 937 LINE",
"167 788 LINE",
"243 788 LINE",
"317 867 LINE",
"391 788 LINE",
"468 788 LINE"
);
},
{
closed = 1;
nodes = (
"180 314 LINE",
"524 314 LINE",
"524 402 LINE",
"180 402 LINE",
"180 613 LINE",
"554 613 LINE",
"554 704 LINE",
"77 704 LINE",
"77 0 LINE",
"564 0 LINE",
"564 91 LINE",
"180 91 LINE"
);
}
);
width = 628;
}
);
unicode = 00CA;
},
{
glyphname = Edieresis;
layers = (
{
hints = (
{
place = "{77, 103}";
type = Stem;
},
{
place = "{157, 129}";
type = Stem;
},
{
place = "{355, 126}";
type = Stem;
},
{
horizontal = 1;
place = "{0, 91}";
type = Stem;
},
{
horizontal = 1;
place = "{314, 88}";
type = Stem;
},
{
horizontal = 1;
place = "{613, 91}";
type = Stem;
},
{
horizontal = 1;
place = "{792, 126}";
type = Stem;
}
);
layerId = "19D549C8-9BA7-4C6B-AF4A-F08379699900";
paths = (
{
closed = 1;
nodes = (
"157 818 OFFCURVE",
"184 792 OFFCURVE",
"221 792 CURVE SMOOTH",
"256 792 OFFCURVE",
"286 818 OFFCURVE",
"286 855 CURVE SMOOTH",
"286 891 OFFCURVE",
"256 918 OFFCURVE",
"221 918 CURVE SMOOTH",
"184 918 OFFCURVE",
"157 891 OFFCURVE",
"157 855 CURVE SMOOTH"
);
},
{
closed = 1;
nodes = (
"355 818 OFFCURVE",
"382 792 OFFCURVE",
"417 792 CURVE SMOOTH",
"454 792 OFFCURVE",
"481 818 OFFCURVE",
"481 855 CURVE SMOOTH",
"481 891 OFFCURVE",
"454 918 OFFCURVE",
"417 918 CURVE SMOOTH",
"382 918 OFFCURVE",
"355 891 OFFCURVE",
"355 855 CURVE SMOOTH"
);
},
{
closed = 1;
nodes = (
"180 314 LINE",
"524 314 LINE",
"524 402 LINE",
"180 402 LINE",
"180 613 LINE",
"554 613 LINE",
"554 704 LINE",
"77 704 LINE",
"77 0 LINE",
"564 0 LINE",
"564 91 LINE",
"180 91 LINE"
);
}
);
width = 628;
}
);
unicode = 00CB;
},
{
glyphname = Eth;
layers = (
{
hints = (
{
horizontal = 1;
place = "{0, 92}";
type = Stem;
},
{
horizontal = 1;
place = "{307, 92}";
type = Stem;
},
{
horizontal = 1;
place = "{611, 93}";
type = Stem;
},
{
place = "{107, 103}";
type = Stem;
},
{
place = "{607, 108}";
type = Stem;
}
);
layerId = "19D549C8-9BA7-4C6B-AF4A-F08379699900";
paths = (
{
closed = 1;
nodes = (
"107 0 LINE",
"334 0 LINE SMOOTH",
"566 0 OFFCURVE",
"715 147 OFFCURVE",
"715 353 CURVE SMOOTH",
"715 565 OFFCURVE",
"556 704 OFFCURVE",
"336 704 CURVE SMOOTH",
"107 704 LINE",
"107 399 LINE",
"14 399 LINE",
"14 307 LINE",
"107 307 LINE"
);
},
{
closed = 1;
nodes = (
"210 611 LINE",
"372 611 LINE SMOOTH",
"523 611 OFFCURVE",
"607 479 OFFCURVE",
"607 351 CURVE SMOOTH",
"607 199 OFFCURVE",
"508 92 OFFCURVE",
"332 92 CURVE SMOOTH",
"210 92 LINE",
"210 307 LINE",
"295 307 LINE",
"295 399 LINE",
"210 399 LINE"
);
}
);
width = 765;
}
);
unicode = 00D0;
},
{
glyphname = Ntilde;
layers = (
{
hints = (
{
place = "{77, 100}";
type = Stem;
},
{
place = "{575, 100}";
type = Stem;
},
{
horizontal = 1;
place = "{0, 21}";
target = up;
type = BottomGhost;
},
{
horizontal = 1;
place = "{704, -20}";
target = down;
type = TopGhost;
},
{
horizontal = 1;
place = "{779, 77}";
type = Stem;
},
{
horizontal = 1;
place = "{816, 77}";
type = Stem;
}
);
layerId = "19D549C8-9BA7-4C6B-AF4A-F08379699900";
paths = (
{
closed = 1;
nodes = (
"277 770 LINE",
"288 803 OFFCURVE",
"309 816 OFFCURVE",
"332 816 CURVE SMOOTH",
"371 816 OFFCURVE",
"410 779 OFFCURVE",
"453 779 CURVE SMOOTH",
"503 779 OFFCURVE",
"533 822 OFFCURVE",
"553 889 CURVE",
"492 901 LINE",
"481 871 OFFCURVE",
"469 856 OFFCURVE",
"447 856 CURVE SMOOTH",
"413 856 OFFCURVE",
"373 893 OFFCURVE",
"325 893 CURVE SMOOTH",
"271 893 OFFCURVE",
"234 848 OFFCURVE",
"215 781 CURVE"
);
},
{
closed = 1;
nodes = (
"178 700 LINE",
"77 700 LINE",
"77 0 LINE",
"177 0 LINE",
"177 545 LINE",
"577 0 LINE",
"675 0 LINE",
"675 704 LINE",
"575 704 LINE",
"575 160 LINE"
);
}
);
width = 751;
}
);
unicode = 00D1;
},
{
glyphname = Ograve;
layers = (
{
hints = (
{
horizontal = 1;
place = "{-14, 93}";
type = Stem;
},
{
horizontal = 1;
place = "{625, 93}";
type = Stem;
},
{
place = "{49, 105}";
type = Stem;
},
{
place = "{678, 106}";
type = Stem;
}
);
layerId = "19D549C8-9BA7-4C6B-AF4A-F08379699900";
paths = (
{
closed = 1;
nodes = (
"376 830 LINE",
"451 830 LINE",
"354 985 LINE",
"247 959 LINE"
);
},
{
closed = 1;
nodes = (
"784 553 OFFCURVE",
"630 718 OFFCURVE",
"418 718 CURVE SMOOTH",
"205 718 OFFCURVE",
"49 554 OFFCURVE",
"49 351 CURVE SMOOTH",
"49 148 OFFCURVE",
"203 -14 OFFCURVE",
"416 -14 CURVE SMOOTH",
"628 -14 OFFCURVE",
"784 151 OFFCURVE",
"784 354 CURVE SMOOTH"
);
},
{
closed = 1;
nodes = (
"678 201 OFFCURVE",
"569 79 OFFCURVE",
"417 79 CURVE SMOOTH",
"262 79 OFFCURVE",
"154 200 OFFCURVE",
"154 354 CURVE SMOOTH",
"154 504 OFFCURVE",
"262 625 OFFCURVE",
"417 625 CURVE SMOOTH",
"569 625 OFFCURVE",
"678 502 OFFCURVE",
"678 350 CURVE SMOOTH"
);
}
);
width = 832;
}
);
unicode = 00D2;
},
{
glyphname = Oacute;
layers = (
{
hints = (
{
horizontal = 1;
place = "{-14, 93}";
type = Stem;
},
{
horizontal = 1;
place = "{625, 93}";
type = Stem;
},
{
place = "{49, 105}";
type = Stem;
},
{
place = "{678, 106}";
type = Stem;
}
);
layerId = "19D549C8-9BA7-4C6B-AF4A-F08379699900";
paths = (
{
closed = 1;
nodes = (
"375 781 LINE",
"447 781 LINE",
"578 910 LINE",
"469 936 LINE"
);
},
{
closed = 1;
nodes = (
"784 553 OFFCURVE",
"630 718 OFFCURVE",
"418 718 CURVE SMOOTH",
"205 718 OFFCURVE",
"49 554 OFFCURVE",
"49 351 CURVE SMOOTH",
"49 148 OFFCURVE",
"203 -14 OFFCURVE",
"416 -14 CURVE SMOOTH",
"628 -14 OFFCURVE",
"784 151 OFFCURVE",
"784 354 CURVE SMOOTH"
);
},
{
closed = 1;
nodes = (
"678 201 OFFCURVE",
"569 79 OFFCURVE",
"417 79 CURVE SMOOTH",
"262 79 OFFCURVE",
"154 200 OFFCURVE",
"154 354 CURVE SMOOTH",
"154 504 OFFCURVE",
"262 625 OFFCURVE",
"417 625 CURVE SMOOTH",
"569 625 OFFCURVE",
"678 502 OFFCURVE",
"678 350 CURVE SMOOTH"
);
}
);
width = 832;
}
);
unicode = 00D3;
},
{
glyphname = Ocircumflex;
layers = (
{
hints = (
{
horizontal = 1;
place = "{-14, 93}";
type = Stem;
},
{
horizontal = 1;
place = "{625, 93}";
type = Stem;
},
{
horizontal = 1;
place = "{788, 149}";
type = Stem;
},
{
place = "{49, 105}";
type = Stem;
},
{
place = "{678, 106}";
type = Stem;
}
);
layerId = "19D549C8-9BA7-4C6B-AF4A-F08379699900";
paths = (
{
closed = 1;
nodes = (
"457 937 LINE",
"380 937 LINE",
"268 788 LINE",
"344 788 LINE",
"418 867 LINE",
"492 788 LINE",
"569 788 LINE"
);
},
{
closed = 1;
nodes = (
"784 553 OFFCURVE",
"630 718 OFFCURVE",
"418 718 CURVE SMOOTH",
"205 718 OFFCURVE",
"49 554 OFFCURVE",
"49 351 CURVE SMOOTH",
"49 148 OFFCURVE",
"203 -14 OFFCURVE",
"416 -14 CURVE SMOOTH",
"628 -14 OFFCURVE",
"784 151 OFFCURVE",
"784 354 CURVE SMOOTH"
);
},
{
closed = 1;
nodes = (
"678 201 OFFCURVE",
"569 79 OFFCURVE",
"417 79 CURVE SMOOTH",
"262 79 OFFCURVE",
"154 200 OFFCURVE",
"154 354 CURVE SMOOTH",
"154 504 OFFCURVE",
"262 625 OFFCURVE",
"417 625 CURVE SMOOTH",
"569 625 OFFCURVE",
"678 502 OFFCURVE",
"678 350 CURVE SMOOTH"
);
}
);
width = 832;
}
);
unicode = 00D4;
},
{
glyphname = Otilde;
layers = (
{
hints = (
{
place = "{49, 105}";
type = Stem;
},
{
place = "{678, 106}";
type = Stem;
},
{
horizontal = 1;
place = "{-14, 93}";
type = Stem;
},
{
horizontal = 1;
place = "{625, 93}";
type = Stem;
},
{
horizontal = 1;
place = "{779, 77}";
type = Stem;
},
{
horizontal = 1;
place = "{816, 77}";
type = Stem;
}
);
layerId = "19D549C8-9BA7-4C6B-AF4A-F08379699900";
paths = (
{
closed = 1;
nodes = (
"310 770 LINE",
"321 803 OFFCURVE",
"342 816 OFFCURVE",
"365 816 CURVE SMOOTH",
"404 816 OFFCURVE",
"443 779 OFFCURVE",
"486 779 CURVE SMOOTH",
"536 779 OFFCURVE",
"566 822 OFFCURVE",
"586 889 CURVE",
"525 901 LINE",
"514 871 OFFCURVE",
"502 856 OFFCURVE",
"480 856 CURVE SMOOTH",
"446 856 OFFCURVE",
"406 893 OFFCURVE",
"358 893 CURVE SMOOTH",
"304 893 OFFCURVE",
"267 848 OFFCURVE",
"248 781 CURVE"
);
},
{
closed = 1;
nodes = (
"784 553 OFFCURVE",
"630 718 OFFCURVE",
"418 718 CURVE SMOOTH",
"205 718 OFFCURVE",
"49 554 OFFCURVE",
"49 351 CURVE SMOOTH",
"49 148 OFFCURVE",
"203 -14 OFFCURVE",
"416 -14 CURVE SMOOTH",
"628 -14 OFFCURVE",
"784 151 OFFCURVE",
"784 354 CURVE SMOOTH"
);
},
{
closed = 1;
nodes = (
"678 201 OFFCURVE",
"569 79 OFFCURVE",
"417 79 CURVE SMOOTH",
"262 79 OFFCURVE",
"154 200 OFFCURVE",
"154 354 CURVE SMOOTH",
"154 504 OFFCURVE",
"262 625 OFFCURVE",
"417 625 CURVE SMOOTH",
"569 625 OFFCURVE",
"678 502 OFFCURVE",
"678 350 CURVE SMOOTH"
);
}
);
width = 832;
}
);
unicode = 00D5;
},
{
glyphname = Odieresis;
layers = (
{
hints = (
{
horizontal = 1;
place = "{-14, 93}";
type = Stem;
},
{
horizontal = 1;
place = "{625, 93}";
type = Stem;
},
{
horizontal = 1;
place = "{792, 126}";
type = Stem;
},
{
place = "{49, 105}";
type = Stem;
},
{
place = "{258, 129}";
type = Stem;
},
{
place = "{456, 126}";
type = Stem;
},
{
place = "{678, 106}";
type = Stem;
}
);
layerId = "19D549C8-9BA7-4C6B-AF4A-F08379699900";
paths = (
{
closed = 1;
nodes = (
"258 818 OFFCURVE",
"285 792 OFFCURVE",
"322 792 CURVE SMOOTH",
"357 792 OFFCURVE",
"387 818 OFFCURVE",
"387 855 CURVE SMOOTH",
"387 891 OFFCURVE",
"357 918 OFFCURVE",
"322 918 CURVE SMOOTH",
"285 918 OFFCURVE",
"258 891 OFFCURVE",
"258 855 CURVE SMOOTH"
);
},
{
closed = 1;
nodes = (
"456 818 OFFCURVE",
"483 792 OFFCURVE",
"518 792 CURVE SMOOTH",
"555 792 OFFCURVE",
"582 818 OFFCURVE",
"582 855 CURVE SMOOTH",
"582 891 OFFCURVE",
"555 918 OFFCURVE",
"518 918 CURVE SMOOTH",
"483 918 OFFCURVE",
"456 891 OFFCURVE",
"456 855 CURVE SMOOTH"
);
},
{
closed = 1;
nodes = (
"784 553 OFFCURVE",
"630 718 OFFCURVE",
"418 718 CURVE SMOOTH",
"205 718 OFFCURVE",
"49 554 OFFCURVE",
"49 351 CURVE SMOOTH",
"49 148 OFFCURVE",
"203 -14 OFFCURVE",
"416 -14 CURVE SMOOTH",
"628 -14 OFFCURVE",
"784 151 OFFCURVE",
"784 354 CURVE SMOOTH"
);
},
{
closed = 1;
nodes = (
"678 201 OFFCURVE",
"569 79 OFFCURVE",
"417 79 CURVE SMOOTH",
"262 79 OFFCURVE",
"154 200 OFFCURVE",
"154 354 CURVE SMOOTH",
"154 504 OFFCURVE",
"262 625 OFFCURVE",
"417 625 CURVE SMOOTH",
"569 625 OFFCURVE",
"678 502 OFFCURVE",
"678 350 CURVE SMOOTH"
);
}
);
width = 832;
}
);
unicode = 00D6;
},
{
glyphname = multiply;
layers = (
{
hints = (
{
horizontal = 1;
place = "{113, 475}";
type = Stem;
},
{
place = "{87, 474}";
type = Stem;
}
);
layerId = "19D549C8-9BA7-4C6B-AF4A-F08379699900";
paths = (
{
closed = 1;
nodes = (
"87 172 LINE",
"146 113 LINE",
"324 292 LINE",
"502 113 LINE",
"561 173 LINE",
"384 351 LINE",
"561 528 LINE",
"502 588 LINE",
"324 408 LINE",
"146 588 LINE",
"88 528 LINE",
"266 351 LINE"
);
}
);
width = 648;
}
);
unicode = 00D7;
},
{
glyphname = Oslash;
layers = (
{
hints = (
{
place = "{48, 106}";
type = Stem;
},
{
place = "{678, 105}";
type = Stem;
},
{
horizontal = 1;
place = "{-14, 95}";
type = Stem;
},
{
horizontal = 1;
place = "{624, 94}";
type = Stem;
},
{
horizontal = 1;
place = "{718, -20}";
target = down;
type = TopGhost;
}
);
layerId = "19D549C8-9BA7-4C6B-AF4A-F08379699900";
paths = (
{
closed = 1;
nodes = (
"70 9 LINE",
"130 -26 LINE",
"203 58 LINE",
"260 13 OFFCURVE",
"332 -14 OFFCURVE",
"416 -14 CURVE SMOOTH",
"628 -14 OFFCURVE",
"783 151 OFFCURVE",
"783 354 CURVE SMOOTH",
"783 451 OFFCURVE",
"747 538 OFFCURVE",
"685 603 CURVE",
"767 699 LINE",
"704 730 LINE",
"629 646 LINE",
"572 691 OFFCURVE",
"500 718 OFFCURVE",
"418 718 CURVE SMOOTH",
"204 718 OFFCURVE",
"48 554 OFFCURVE",
"48 351 CURVE SMOOTH",
"48 253 OFFCURVE",
"84 166 OFFCURVE",
"146 101 CURVE"
);
},
{
closed = 1;
nodes = (
"209 180 LINE",
"172 230 OFFCURVE",
"154 292 OFFCURVE",
"154 354 CURVE SMOOTH",
"154 501 OFFCURVE",
"258 620 OFFCURVE",
"408 624 CURVE",
"467 624 OFFCURVE",
"521 607 OFFCURVE",
"568 571 CURVE"
);
},
{
closed = 1;
nodes = (
"621 523 LINE",
"658 475 OFFCURVE",
"678 416 OFFCURVE",
"678 350 CURVE SMOOTH",
"678 206 OFFCURVE",
"575 85 OFFCURVE",
"427 81 CURVE SMOOTH",
"395 80 OFFCURVE",
"365 85 OFFCURVE",
"337 94 CURVE SMOOTH",
"323 99 OFFCURVE",
"309 104 OFFCURVE",
"296 111 CURVE SMOOTH",
"285 118 OFFCURVE",
"274 126 OFFCURVE",
"264 134 CURVE"
);
}
);
width = 831;
}
);
unicode = 00D8;
},
{
glyphname = Ugrave;
layers = (
{
hints = (
{
horizontal = 1;
place = "{-15, 95}";
type = Stem;
},
{
horizontal = 1;
place = "{705, -20}";
target = down;
type = TopGhost;
},
{
place = "{68, 102}";
type = Stem;
},
{
place = "{539, 103}";
type = Stem;
}
);
layerId = "19D549C8-9BA7-4C6B-AF4A-F08379699900";
paths = (
{
closed = 1;
nodes = (
"329 830 LINE",
"404 830 LINE",
"307 985 LINE",
"200 959 LINE"
);
},
{
closed = 1;
nodes = (
"542 -15 OFFCURVE",
"642 98 OFFCURVE",
"642 291 CURVE SMOOTH",
"642 705 LINE",
"539 705 LINE",
"539 289 LINE SMOOTH",
"539 148 OFFCURVE",
"473 80 OFFCURVE",
"355 80 CURVE SMOOTH",
"232 80 OFFCURVE",
"170 159 OFFCURVE",
"170 292 CURVE SMOOTH",
"170 705 LINE",
"68 705 LINE",
"68 288 LINE SMOOTH",
"68 102 OFFCURVE",
"169 -15 OFFCURVE",
"356 -15 CURVE SMOOTH"
);
}
);
width = 711;
}
);
unicode = 00D9;
},
{
glyphname = Uacute;
layers = (
{
hints = (
{
horizontal = 1;
place = "{-15, 95}";
type = Stem;
},
{
horizontal = 1;
place = "{705, -20}";
target = down;
type = TopGhost;
},
{
place = "{68, 102}";
type = Stem;
},
{
place = "{539, 103}";
type = Stem;
}
);
layerId = "19D549C8-9BA7-4C6B-AF4A-F08379699900";
paths = (
{
closed = 1;
nodes = (
"315 781 LINE",
"387 781 LINE",
"518 910 LINE",
"409 936 LINE"
);
},
{
closed = 1;
nodes = (
"542 -15 OFFCURVE",
"642 98 OFFCURVE",
"642 291 CURVE SMOOTH",
"642 705 LINE",
"539 705 LINE",
"539 289 LINE SMOOTH",
"539 148 OFFCURVE",
"473 80 OFFCURVE",
"355 80 CURVE SMOOTH",
"232 80 OFFCURVE",
"170 159 OFFCURVE",
"170 292 CURVE SMOOTH",
"170 705 LINE",
"68 705 LINE",
"68 288 LINE SMOOTH",
"68 102 OFFCURVE",
"169 -15 OFFCURVE",
"356 -15 CURVE SMOOTH"
);
}
);
width = 711;
}
);
unicode = 00DA;
},
{
glyphname = Ucircumflex;
layers = (
{
hints = (
{
horizontal = 1;
place = "{-15, 95}";
type = Stem;
},
{
horizontal = 1;
place = "{705, -20}";
target = down;
type = TopGhost;
},
{
horizontal = 1;
place = "{788, 149}";
type = Stem;
},
{
place = "{68, 102}";
type = Stem;
},
{
place = "{539, 103}";
type = Stem;
}
);
layerId = "19D549C8-9BA7-4C6B-AF4A-F08379699900";
paths = (
{
closed = 1;
nodes = (
"399 937 LINE",
"322 937 LINE",
"210 788 LINE",
"286 788 LINE",
"360 867 LINE",
"434 788 LINE",
"511 788 LINE"
);
},
{
closed = 1;
nodes = (
"542 -15 OFFCURVE",
"642 98 OFFCURVE",
"642 291 CURVE SMOOTH",
"642 705 LINE",
"539 705 LINE",
"539 289 LINE SMOOTH",
"539 148 OFFCURVE",
"473 80 OFFCURVE",
"355 80 CURVE SMOOTH",
"232 80 OFFCURVE",
"170 159 OFFCURVE",
"170 292 CURVE SMOOTH",
"170 705 LINE",
"68 705 LINE",
"68 288 LINE SMOOTH",
"68 102 OFFCURVE",
"169 -15 OFFCURVE",
"356 -15 CURVE SMOOTH"
);
}
);
width = 711;
}
);
unicode = 00DB;
},
{
glyphname = Udieresis;
layers = (
{
hints = (
{
horizontal = 1;
place = "{-15, 95}";
type = Stem;
},
{
horizontal = 1;
place = "{705, -20}";
target = down;
type = TopGhost;
},
{
horizontal = 1;
place = "{792, 126}";
type = Stem;
},
{
place = "{68, 102}";
type = Stem;
},
{
place = "{191, 129}";
type = Stem;
},
{
place = "{389, 126}";
type = Stem;
},
{
place = "{539, 103}";
type = Stem;
}
);
layerId = "19D549C8-9BA7-4C6B-AF4A-F08379699900";
paths = (
{
closed = 1;
nodes = (
"191 818 OFFCURVE",
"218 792 OFFCURVE",
"255 792 CURVE SMOOTH",
"290 792 OFFCURVE",
"320 818 OFFCURVE",
"320 855 CURVE SMOOTH",
"320 891 OFFCURVE",
"290 918 OFFCURVE",
"255 918 CURVE SMOOTH",
"218 918 OFFCURVE",
"191 891 OFFCURVE",
"191 855 CURVE SMOOTH"
);
},
{
closed = 1;
nodes = (
"389 818 OFFCURVE",
"416 792 OFFCURVE",
"451 792 CURVE SMOOTH",
"488 792 OFFCURVE",
"515 818 OFFCURVE",
"515 855 CURVE SMOOTH",
"515 891 OFFCURVE",
"488 918 OFFCURVE",
"451 918 CURVE SMOOTH",
"416 918 OFFCURVE",
"389 891 OFFCURVE",
"389 855 CURVE SMOOTH"
);
},
{
closed = 1;
nodes = (
"542 -15 OFFCURVE",
"642 98 OFFCURVE",
"642 291 CURVE SMOOTH",
"642 705 LINE",
"539 705 LINE",
"539 289 LINE SMOOTH",
"539 148 OFFCURVE",
"473 80 OFFCURVE",
"355 80 CURVE SMOOTH",
"232 80 OFFCURVE",
"170 159 OFFCURVE",
"170 292 CURVE SMOOTH",
"170 705 LINE",
"68 705 LINE",
"68 288 LINE SMOOTH",
"68 102 OFFCURVE",
"169 -15 OFFCURVE",
"356 -15 CURVE SMOOTH"
);
}
);
width = 711;
}
);
unicode = 00DC;
},
{
glyphname = Yacute;
layers = (
{
hints = (
{
horizontal = 1;
place = "{0, 21}";
target = up;
type = BottomGhost;
},
{
horizontal = 1;
place = "{704, -20}";
target = down;
type = TopGhost;
},
{
place = "{267, 103}";
type = Stem;
}
);
layerId = "19D549C8-9BA7-4C6B-AF4A-F08379699900";
paths = (
{
closed = 1;
nodes = (
"266 781 LINE",
"338 781 LINE",
"469 910 LINE",
"360 936 LINE"
);
},
{
closed = 1;
nodes = (
"370 278 LINE",
"639 704 LINE",
"524 704 LINE",
"321 373 LINE",
"117 704 LINE",
"-3 704 LINE",
"267 277 LINE",
"267 0 LINE",
"370 0 LINE"
);
}
);
width = 636;
}
);
unicode = 00DD;
},
{
glyphname = Thorn;
layers = (
{
hints = (
{
horizontal = 1;
place = "{0, 21}";
target = up;
type = BottomGhost;
},
{
horizontal = 1;
place = "{171, 85}";
type = Stem;
},
{
horizontal = 1;
place = "{493, 87}";
type = Stem;
},
{
horizontal = 1;
place = "{706, -20}";
target = down;
type = TopGhost;
},
{
place = "{76, 98}";
type = Stem;
},
{
place = "{375, 98}";
type = Stem;
}
);
layerId = "19D549C8-9BA7-4C6B-AF4A-F08379699900";
paths = (
{
closed = 1;
nodes = (
"76 0 LINE",
"174 0 LINE",
"174 171 LINE",
"238 171 LINE SMOOTH",
"369 171 OFFCURVE",
"473 230 OFFCURVE",
"473 374 CURVE SMOOTH",
"473 533 OFFCURVE",
"353 580 OFFCURVE",
"216 580 CURVE SMOOTH",
"174 580 LINE",
"174 706 LINE",
"76 706 LINE"
);
},
{
closed = 1;
nodes = (
"174 256 LINE",
"174 493 LINE",
"203 493 LINE SMOOTH",
"289 493 OFFCURVE",
"375 485 OFFCURVE",
"375 376 CURVE SMOOTH",
"375 280 OFFCURVE",
"305 256 OFFCURVE",
"222 256 CURVE SMOOTH"
);
}
);
width = 501;
}
);
unicode = 00DE;
},
{
glyphname = germandbls;
layers = (
{
hints = (
{
place = "{11, 98}";
type = Stem;
},
{
place = "{353, 99}";
type = Stem;
},
{
place = "{397, 100}";
type = Stem;
},
{
horizontal = 1;
place = "{-3, 77}";
type = Stem;
},
{
horizontal = 1;
place = "{0, 21}";
target = up;
type = BottomGhost;
},
{
horizontal = 1;
place = "{663, 88}";
type = Stem;
}
);
layerId = "19D549C8-9BA7-4C6B-AF4A-F08379699900";
paths = (
{
closed = 1;
nodes = (
"109 513 LINE SMOOTH",
"109 590 OFFCURVE",
"149 663 OFFCURVE",
"239 663 CURVE SMOOTH",
"305 663 OFFCURVE",
"353 623 OFFCURVE",
"353 554 CURVE SMOOTH",
"353 478 OFFCURVE",
"294 446 OFFCURVE",
"220 418 CURVE",
"220 350 LINE",
"327 335 OFFCURVE",
"397 302 OFFCURVE",
"397 210 CURVE SMOOTH",
"397 115 OFFCURVE",
"319 74 OFFCURVE",
"211 74 CURVE",
"211 -3 LINE",
"367 -5 OFFCURVE",
"497 62 OFFCURVE",
"497 207 CURVE SMOOTH",
"497 309 OFFCURVE",
"421 376 OFFCURVE",
"332 393 CURVE",
"401 424 OFFCURVE",
"452 480 OFFCURVE",
"452 565 CURVE SMOOTH",
"452 674 OFFCURVE",
"366 751 OFFCURVE",
"242 751 CURVE SMOOTH",
"83 751 OFFCURVE",
"11 643 OFFCURVE",
"11 513 CURVE SMOOTH",
"11 0 LINE",
"109 0 LINE"
);
}
);
width = 531;
}
);
unicode = 00DF;
},
{
glyphname = agrave;
layers = (
{
hints = (
{
place = "{34, 100}";
type = Stem;
},
{
place = "{394, 99}";
type = Stem;
},
{
horizontal = 1;
place = "{-11, 76}";
type = Stem;
},
{
horizontal = 1;
place = "{-2, 21}";
target = up;
type = BottomGhost;
},
{
horizontal = 1;
place = "{261, 71}";
type = Stem;
},
{
horizontal = 1;
place = "{419, 83}";
type = Stem;
}
);
layerId = "19D549C8-9BA7-4C6B-AF4A-F08379699900";
paths = (
{
closed = 1;
nodes = (
"285 616 LINE",
"360 616 LINE",
"263 771 LINE",
"156 745 LINE"
);
},
{
closed = 1;
nodes = (
"493 -2 LINE",
"493 309 LINE SMOOTH",
"493 437 OFFCURVE",
"391 502 OFFCURVE",
"263 502 CURVE SMOOTH",
"186 502 OFFCURVE",
"117 480 OFFCURVE",
"69 460 CURVE",
"69 372 LINE",
"128 406 OFFCURVE",
"190 419 OFFCURVE",
"252 419 CURVE SMOOTH",
"337 419 OFFCURVE",
"394 391 OFFCURVE",
"394 318 CURVE SMOOTH",
"394 300 LINE",
"353 323 OFFCURVE",
"302 332 OFFCURVE",
"246 332 CURVE SMOOTH",
"141 332 OFFCURVE",
"34 292 OFFCURVE",
"34 169 CURVE SMOOTH",
"34 53 OFFCURVE",
"135 -11 OFFCURVE",
"232 -11 CURVE SMOOTH",
"300 -11 OFFCURVE",
"349 10 OFFCURVE",
"392 50 CURVE"
);
},
{
closed = 1;
nodes = (
"394 125 LINE",
"362 88 OFFCURVE",
"318 65 OFFCURVE",
"259 65 CURVE SMOOTH",
"192 65 OFFCURVE",
"134 97 OFFCURVE",
"134 163 CURVE SMOOTH",
"134 233 OFFCURVE",
"202 261 OFFCURVE",
"266 261 CURVE SMOOTH",
"324 261 OFFCURVE",
"364 244 OFFCURVE",
"394 227 CURVE"
);
}
);
width = 559;
}
);
unicode = 00E0;
},
{
glyphname = aacute;
layers = (
{
hints = (
{
place = "{34, 100}";
type = Stem;
},
{
place = "{394, 99}";
type = Stem;
},
{
horizontal = 1;
place = "{-11, 76}";
type = Stem;
},
{
horizontal = 1;
place = "{-2, 21}";
target = up;
type = BottomGhost;
},
{
horizontal = 1;
place = "{261, 71}";
type = Stem;
},
{
horizontal = 1;
place = "{419, 83}";
type = Stem;
}
);
layerId = "19D549C8-9BA7-4C6B-AF4A-F08379699900";
paths = (
{
closed = 1;
nodes = (
"233 616 LINE",
"305 616 LINE",
"436 745 LINE",
"327 771 LINE"
);
},
{
closed = 1;
nodes = (
"493 -2 LINE",
"493 309 LINE SMOOTH",
"493 437 OFFCURVE",
"391 502 OFFCURVE",
"263 502 CURVE SMOOTH",
"186 502 OFFCURVE",
"117 480 OFFCURVE",
"69 460 CURVE",
"69 372 LINE",
"128 406 OFFCURVE",
"190 419 OFFCURVE",
"252 419 CURVE SMOOTH",
"337 419 OFFCURVE",
"394 391 OFFCURVE",
"394 318 CURVE SMOOTH",
"394 300 LINE",
"353 323 OFFCURVE",
"302 332 OFFCURVE",
"246 332 CURVE SMOOTH",
"141 332 OFFCURVE",
"34 292 OFFCURVE",
"34 169 CURVE SMOOTH",
"34 53 OFFCURVE",
"135 -11 OFFCURVE",
"232 -11 CURVE SMOOTH",
"300 -11 OFFCURVE",
"349 10 OFFCURVE",
"392 50 CURVE"
);
},
{
closed = 1;
nodes = (
"394 125 LINE",
"362 88 OFFCURVE",
"318 65 OFFCURVE",
"259 65 CURVE SMOOTH",
"192 65 OFFCURVE",
"134 97 OFFCURVE",
"134 163 CURVE SMOOTH",
"134 233 OFFCURVE",
"202 261 OFFCURVE",
"266 261 CURVE SMOOTH",
"324 261 OFFCURVE",
"364 244 OFFCURVE",
"394 227 CURVE"
);
}
);
width = 559;
}
);
unicode = 00E1;
},
{
glyphname = acircumflex;
layers = (
{
hints = (
{
place = "{34, 100}";
type = Stem;
},
{
place = "{394, 99}";
type = Stem;
},
{
horizontal = 1;
place = "{-11, 76}";
type = Stem;
},
{
horizontal = 1;
place = "{-2, 21}";
target = up;
type = BottomGhost;
},
{
horizontal = 1;
place = "{261, 71}";
type = Stem;
},
{
horizontal = 1;
place = "{419, 83}";
type = Stem;
},
{
horizontal = 1;
place = "{623, 149}";
type = Stem;
}
);
layerId = "19D549C8-9BA7-4C6B-AF4A-F08379699900";
paths = (
{
closed = 1;
nodes = (
"305 772 LINE",
"228 772 LINE",
"116 623 LINE",
"192 623 LINE",
"266 702 LINE",
"340 623 LINE",
"417 623 LINE"
);
},
{
closed = 1;
nodes = (
"493 -2 LINE",
"493 309 LINE SMOOTH",
"493 437 OFFCURVE",
"391 502 OFFCURVE",
"263 502 CURVE SMOOTH",
"186 502 OFFCURVE",
"117 480 OFFCURVE",
"69 460 CURVE",
"69 372 LINE",
"128 406 OFFCURVE",
"190 419 OFFCURVE",
"252 419 CURVE SMOOTH",
"337 419 OFFCURVE",
"394 391 OFFCURVE",
"394 318 CURVE SMOOTH",
"394 300 LINE",
"353 323 OFFCURVE",
"302 332 OFFCURVE",
"246 332 CURVE SMOOTH",
"141 332 OFFCURVE",
"34 292 OFFCURVE",
"34 169 CURVE SMOOTH",
"34 53 OFFCURVE",
"135 -11 OFFCURVE",
"232 -11 CURVE SMOOTH",
"300 -11 OFFCURVE",
"349 10 OFFCURVE",
"392 50 CURVE"
);
},
{
closed = 1;
nodes = (
"394 125 LINE",
"362 88 OFFCURVE",
"318 65 OFFCURVE",
"259 65 CURVE SMOOTH",
"192 65 OFFCURVE",
"134 97 OFFCURVE",
"134 163 CURVE SMOOTH",
"134 233 OFFCURVE",
"202 261 OFFCURVE",
"266 261 CURVE SMOOTH",
"324 261 OFFCURVE",
"364 244 OFFCURVE",
"394 227 CURVE"
);
}
);
width = 559;
}
);
unicode = 00E2;
},
{
glyphname = atilde;
layers = (
{
hints = (
{
place = "{34, 100}";
type = Stem;
},
{
place = "{394, 99}";
type = Stem;
},
{
horizontal = 1;
place = "{-11, 76}";
type = Stem;
},
{
horizontal = 1;
place = "{-2, 21}";
target = up;
type = BottomGhost;
},
{
horizontal = 1;
place = "{261, 71}";
type = Stem;
},
{
horizontal = 1;
place = "{419, 83}";
type = Stem;
},
{
horizontal = 1;
place = "{614, 77}";
type = Stem;
},
{
horizontal = 1;
place = "{651, 77}";
type = Stem;
}
);
layerId = "19D549C8-9BA7-4C6B-AF4A-F08379699900";
paths = (
{
closed = 1;
nodes = (
"174 605 LINE",
"185 638 OFFCURVE",
"206 651 OFFCURVE",
"229 651 CURVE SMOOTH",
"268 651 OFFCURVE",
"307 614 OFFCURVE",
"350 614 CURVE SMOOTH",
"400 614 OFFCURVE",
"430 657 OFFCURVE",
"450 724 CURVE",
"389 736 LINE",
"378 706 OFFCURVE",
"366 691 OFFCURVE",
"344 691 CURVE SMOOTH",
"310 691 OFFCURVE",
"270 728 OFFCURVE",
"222 728 CURVE SMOOTH",
"168 728 OFFCURVE",
"131 683 OFFCURVE",
"112 616 CURVE"
);
},
{
closed = 1;
nodes = (
"493 -2 LINE",
"493 309 LINE SMOOTH",
"493 437 OFFCURVE",
"391 502 OFFCURVE",
"263 502 CURVE SMOOTH",
"186 502 OFFCURVE",
"117 480 OFFCURVE",
"69 460 CURVE",
"69 372 LINE",
"128 406 OFFCURVE",
"190 419 OFFCURVE",
"252 419 CURVE SMOOTH",
"337 419 OFFCURVE",
"394 391 OFFCURVE",
"394 318 CURVE SMOOTH",
"394 300 LINE",
"353 323 OFFCURVE",
"302 332 OFFCURVE",
"246 332 CURVE SMOOTH",
"141 332 OFFCURVE",
"34 292 OFFCURVE",
"34 169 CURVE SMOOTH",
"34 53 OFFCURVE",
"135 -11 OFFCURVE",
"232 -11 CURVE SMOOTH",
"300 -11 OFFCURVE",
"349 10 OFFCURVE",
"392 50 CURVE"
);
},
{
closed = 1;
nodes = (
"394 125 LINE",
"362 88 OFFCURVE",
"318 65 OFFCURVE",
"259 65 CURVE SMOOTH",
"192 65 OFFCURVE",
"134 97 OFFCURVE",
"134 163 CURVE SMOOTH",
"134 233 OFFCURVE",
"202 261 OFFCURVE",
"266 261 CURVE SMOOTH",
"324 261 OFFCURVE",
"364 244 OFFCURVE",
"394 227 CURVE"
);
}
);
width = 559;
}
);
unicode = 00E3;
},
{
glyphname = adieresis;
layers = (
{
hints = (
{
place = "{34, 100}";
type = Stem;
},
{
place = "{107, 129}";
type = Stem;
},
{
place = "{305, 126}";
type = Stem;
},
{
place = "{394, 99}";
type = Stem;
},
{
horizontal = 1;
place = "{-11, 76}";
type = Stem;
},
{
horizontal = 1;
place = "{-2, 21}";
target = up;
type = BottomGhost;
},
{
horizontal = 1;
place = "{261, 71}";
type = Stem;
},
{
horizontal = 1;
place = "{419, 83}";
type = Stem;
},
{
horizontal = 1;
place = "{627, 126}";
type = Stem;
}
);
layerId = "19D549C8-9BA7-4C6B-AF4A-F08379699900";
paths = (
{
closed = 1;
nodes = (
"107 653 OFFCURVE",
"134 627 OFFCURVE",
"171 627 CURVE SMOOTH",
"206 627 OFFCURVE",
"236 653 OFFCURVE",
"236 690 CURVE SMOOTH",
"236 726 OFFCURVE",
"206 753 OFFCURVE",
"171 753 CURVE SMOOTH",
"134 753 OFFCURVE",
"107 726 OFFCURVE",
"107 690 CURVE SMOOTH"
);
},
{
closed = 1;
nodes = (
"305 653 OFFCURVE",
"332 627 OFFCURVE",
"367 627 CURVE SMOOTH",
"404 627 OFFCURVE",
"431 653 OFFCURVE",
"431 690 CURVE SMOOTH",
"431 726 OFFCURVE",
"404 753 OFFCURVE",
"367 753 CURVE SMOOTH",
"332 753 OFFCURVE",
"305 726 OFFCURVE",
"305 690 CURVE SMOOTH"
);
},
{
closed = 1;
nodes = (
"493 -2 LINE",
"493 309 LINE SMOOTH",
"493 437 OFFCURVE",
"391 502 OFFCURVE",
"263 502 CURVE SMOOTH",
"186 502 OFFCURVE",
"117 480 OFFCURVE",
"69 460 CURVE",
"69 372 LINE",
"128 406 OFFCURVE",
"190 419 OFFCURVE",
"252 419 CURVE SMOOTH",
"337 419 OFFCURVE",
"394 391 OFFCURVE",
"394 318 CURVE SMOOTH",
"394 300 LINE",
"353 323 OFFCURVE",
"302 332 OFFCURVE",
"246 332 CURVE SMOOTH",
"141 332 OFFCURVE",
"34 292 OFFCURVE",
"34 169 CURVE SMOOTH",
"34 53 OFFCURVE",
"135 -11 OFFCURVE",
"232 -11 CURVE SMOOTH",
"300 -11 OFFCURVE",
"349 10 OFFCURVE",
"392 50 CURVE"
);
},
{
closed = 1;
nodes = (
"394 125 LINE",
"362 88 OFFCURVE",
"318 65 OFFCURVE",
"259 65 CURVE SMOOTH",
"192 65 OFFCURVE",
"134 97 OFFCURVE",
"134 163 CURVE SMOOTH",
"134 233 OFFCURVE",
"202 261 OFFCURVE",
"266 261 CURVE SMOOTH",
"324 261 OFFCURVE",
"364 244 OFFCURVE",
"394 227 CURVE"
);
}
);
width = 559;
}
);
unicode = 00E4;
},
{
glyphname = aring;
layers = (
{
hints = (
{
place = "{34, 100}";
type = Stem;
},
{
place = "{162, 53}";
type = Stem;
},
{
place = "{319, 53}";
type = Stem;
},
{
place = "{394, 99}";
type = Stem;
},
{
horizontal = 1;
place = "{-11, 76}";
type = Stem;
},
{
horizontal = 1;
place = "{-2, 21}";
target = up;
type = BottomGhost;
},
{
horizontal = 1;
place = "{261, 71}";
type = Stem;
},
{
horizontal = 1;
place = "{419, 83}";
type = Stem;
},
{
horizontal = 1;
place = "{592, 52}";
type = Stem;
},
{
horizontal = 1;
place = "{746, 52}";
type = Stem;
}
);
layerId = "19D549C8-9BA7-4C6B-AF4A-F08379699900";
paths = (
{
closed = 1;
nodes = (
"372 751 OFFCURVE",
"324 798 OFFCURVE",
"265 798 CURVE SMOOTH",
"210 798 OFFCURVE",
"162 752 OFFCURVE",
"162 694 CURVE SMOOTH",
"162 636 OFFCURVE",
"210 592 OFFCURVE",
"265 592 CURVE SMOOTH",
"325 592 OFFCURVE",
"372 634 OFFCURVE",
"372 693 CURVE SMOOTH"
);
},
{
closed = 1;
nodes = (
"319 666 OFFCURVE",
"299 644 OFFCURVE",
"267 644 CURVE SMOOTH",
"238 644 OFFCURVE",
"215 663 OFFCURVE",
"215 695 CURVE SMOOTH",
"215 723 OFFCURVE",
"237 746 OFFCURVE",
"267 746 CURVE SMOOTH",
"297 746 OFFCURVE",
"319 722 OFFCURVE",
"319 694 CURVE SMOOTH"
);
},
{
closed = 1;
nodes = (
"493 -2 LINE",
"493 309 LINE SMOOTH",
"493 437 OFFCURVE",
"391 502 OFFCURVE",
"263 502 CURVE SMOOTH",
"186 502 OFFCURVE",
"117 480 OFFCURVE",
"69 460 CURVE",
"69 372 LINE",
"128 406 OFFCURVE",
"190 419 OFFCURVE",
"252 419 CURVE SMOOTH",
"337 419 OFFCURVE",
"394 391 OFFCURVE",
"394 318 CURVE SMOOTH",
"394 300 LINE",
"353 323 OFFCURVE",
"302 332 OFFCURVE",
"246 332 CURVE SMOOTH",
"141 332 OFFCURVE",
"34 292 OFFCURVE",
"34 169 CURVE SMOOTH",
"34 53 OFFCURVE",
"135 -11 OFFCURVE",
"232 -11 CURVE SMOOTH",
"300 -11 OFFCURVE",
"349 10 OFFCURVE",
"392 50 CURVE"
);
},
{
closed = 1;
nodes = (
"394 125 LINE",
"362 88 OFFCURVE",
"318 65 OFFCURVE",
"259 65 CURVE SMOOTH",
"192 65 OFFCURVE",
"134 97 OFFCURVE",
"134 163 CURVE SMOOTH",
"134 233 OFFCURVE",
"202 261 OFFCURVE",
"266 261 CURVE SMOOTH",
"324 261 OFFCURVE",
"364 244 OFFCURVE",
"394 227 CURVE"
);
}
);
width = 559;
}
);
unicode = 00E5;
},
{
glyphname = ae;
layers = (
{
hints = (
{
place = "{31, 99}";
type = Stem;
},
{
place = "{390, 102}";
type = Stem;
},
{
horizontal = 1;
place = "{-12, 81}";
type = Stem;
},
{
horizontal = 1;
place = "{-11, 76}";
type = Stem;
},
{
horizontal = 1;
place = "{261, 71}";
type = Stem;
},
{
horizontal = 1;
place = "{419, 82}";
type = Stem;
},
{
horizontal = 1;
place = "{422, 82}";
type = Stem;
}
);
layerId = "19D549C8-9BA7-4C6B-AF4A-F08379699900";
paths = (
{
closed = 1;
nodes = (
"576 69 OFFCURVE",
"525 111 OFFCURVE",
"502 171 CURVE",
"874 262 LINE",
"861 392 OFFCURVE",
"779 504 OFFCURVE",
"635 504 CURVE SMOOTH",
"557 504 OFFCURVE",
"496 470 OFFCURVE",
"456 417 CURVE",
"419 468 OFFCURVE",
"356 495 OFFCURVE",
"281 501 CURVE SMOOTH",
"272 502 OFFCURVE",
"263 502 OFFCURVE",
"254 501 CURVE",
"179 501 OFFCURVE",
"112 480 OFFCURVE",
"65 460 CURVE",
"65 372 LINE",
"117 403 OFFCURVE",
"173 416 OFFCURVE",
"228 418 CURVE",
"235 419 OFFCURVE",
"241 419 OFFCURVE",
"248 419 CURVE SMOOTH",
"333 419 OFFCURVE",
"390 391 OFFCURVE",
"390 318 CURVE SMOOTH",
"390 300 LINE",
"349 323 OFFCURVE",
"298 332 OFFCURVE",
"242 332 CURVE SMOOTH",
"139 332 OFFCURVE",
"33 293 OFFCURVE",
"31 174 CURVE",
"31 163 OFFCURVE",
"31 155 OFFCURVE",
"32 145 CURVE SMOOTH",
"44 40 OFFCURVE",
"138 -11 OFFCURVE",
"235 -11 CURVE SMOOTH",
"317 -11 OFFCURVE",
"397 17 OFFCURVE",
"457 75 CURVE",
"508 12 OFFCURVE",
"579 -12 OFFCURVE",
"658 -12 CURVE",
"727 -11 OFFCURVE",
"786 11 OFFCURVE",
"828 44 CURVE",
"828 142 LINE",
"789 103 OFFCURVE",
"729 69 OFFCURVE",
"656 69 CURVE SMOOTH"
);
},
{
closed = 1;
nodes = (
"496 254 LINE",
"492 251 LINE",
"491 339 OFFCURVE",
"543 422 OFFCURVE",
"636 422 CURVE SMOOTH",
"707 422 OFFCURVE",
"758 377 OFFCURVE",
"774 317 CURVE"
);
},
{
closed = 1;
nodes = (
"390 125 LINE",
"358 88 OFFCURVE",
"314 65 OFFCURVE",
"255 65 CURVE SMOOTH",
"188 65 OFFCURVE",
"130 97 OFFCURVE",
"130 163 CURVE SMOOTH",
"130 233 OFFCURVE",
"198 261 OFFCURVE",
"262 261 CURVE SMOOTH",
"320 261 OFFCURVE",
"360 244 OFFCURVE",
"390 227 CURVE"
);
}
);
width = 906;
}
);
unicode = 00E6;
},
{
glyphname = ccedilla;
layers = (
{
hints = (
{
horizontal = 1;
place = "{-225, 53}";
type = Stem;
},
{
horizontal = 1;
place = "{-99, 29}";
type = Stem;
},
{
horizontal = 1;
place = "{-6, 21}";
target = up;
type = BottomGhost;
},
{
horizontal = 1;
place = "{418, 84}";
type = Stem;
},
{
place = "{34, 100}";
type = Stem;
},
{
place = "{277, 79}";
type = Stem;
}
);
layerId = "19D549C8-9BA7-4C6B-AF4A-F08379699900";
paths = (
{
closed = 1;
nodes = (
"422 466 LINE",
"386 491 OFFCURVE",
"336 502 OFFCURVE",
"290 502 CURVE SMOOTH",
"137 502 OFFCURVE",
"34 386 OFFCURVE",
"34 245 CURVE SMOOTH",
"34 116 OFFCURVE",
"120 13 OFFCURVE",
"241 -6 CURVE",
"184 -92 LINE",
"203 -107 LINE",
"216 -102 OFFCURVE",
"225 -99 OFFCURVE",
"236 -99 CURVE SMOOTH",
"260 -99 OFFCURVE",
"277 -109 OFFCURVE",
"277 -129 CURVE SMOOTH",
"277 -162 OFFCURVE",
"236 -172 OFFCURVE",
"214 -172 CURVE SMOOTH",
"198 -172 OFFCURVE",
"181 -169 OFFCURVE",
"161 -161 CURVE",
"148 -204 LINE",
"174 -217 OFFCURVE",
"202 -225 OFFCURVE",
"235 -225 CURVE SMOOTH",
"286 -225 OFFCURVE",
"356 -202 OFFCURVE",
"356 -138 CURVE SMOOTH",
"356 -85 OFFCURVE",
"308 -70 OFFCURVE",
"274 -70 CURVE SMOOTH",
"270 -70 LINE",
"306 -9 LINE",
"353 -5 OFFCURVE",
"394 11 OFFCURVE",
"427 30 CURVE",
"427 135 LINE",
"391 98 OFFCURVE",
"346 75 OFFCURVE",
"294 75 CURVE SMOOTH",
"204 75 OFFCURVE",
"134 155 OFFCURVE",
"134 250 CURVE SMOOTH",
"134 346 OFFCURVE",
"199 418 OFFCURVE",
"291 418 CURVE SMOOTH",
"342 418 OFFCURVE",
"386 396 OFFCURVE",
"422 358 CURVE"
);
}
);
width = 471;
}
);
unicode = 00E7;
},
{
glyphname = egrave;
layers = (
{
hints = (
{
horizontal = 1;
place = "{-12, 81}";
type = Stem;
},
{
horizontal = 1;
place = "{422, 82}";
type = Stem;
},
{
place = "{34, 96}";
type = Stem;
}
);
layerId = "19D549C8-9BA7-4C6B-AF4A-F08379699900";
paths = (
{
closed = 1;
nodes = (
"247 616 LINE",
"322 616 LINE",
"225 771 LINE",
"118 745 LINE"
);
},
{
closed = 1;
nodes = (
"214 69 OFFCURVE",
"164 111 OFFCURVE",
"140 171 CURVE",
"512 262 LINE",
"499 392 OFFCURVE",
"418 504 OFFCURVE",
"273 504 CURVE SMOOTH",
"129 504 OFFCURVE",
"34 390 OFFCURVE",
"34 244 CURVE SMOOTH",
"34 94 OFFCURVE",
"142 -12 OFFCURVE",
"289 -12 CURVE SMOOTH",
"358 -12 OFFCURVE",
"422 10 OFFCURVE",
"467 44 CURVE",
"467 142 LINE",
"427 103 OFFCURVE",
"367 69 OFFCURVE",
"294 69 CURVE SMOOTH"
);
},
{
closed = 1;
nodes = (
"130 252 LINE",
"130 337 OFFCURVE",
"179 422 OFFCURVE",
"274 422 CURVE SMOOTH",
"345 422 OFFCURVE",
"396 377 OFFCURVE",
"412 317 CURVE",
"134 245 LINE"
);
}
);
width = 546;
}
);
unicode = 00E8;
},
{
glyphname = eacute;
layers = (
{
hints = (
{
horizontal = 1;
place = "{-12, 81}";
type = Stem;
},
{
horizontal = 1;
place = "{422, 82}";
type = Stem;
},
{
place = "{34, 96}";
type = Stem;
}
);
layerId = "19D549C8-9BA7-4C6B-AF4A-F08379699900";
paths = (
{
closed = 1;
nodes = (
"235 616 LINE",
"307 616 LINE",
"438 745 LINE",
"329 771 LINE"
);
},
{
closed = 1;
nodes = (
"214 69 OFFCURVE",
"164 111 OFFCURVE",
"140 171 CURVE",
"512 262 LINE",
"499 392 OFFCURVE",
"418 504 OFFCURVE",
"273 504 CURVE SMOOTH",
"129 504 OFFCURVE",
"34 390 OFFCURVE",
"34 244 CURVE SMOOTH",
"34 94 OFFCURVE",
"142 -12 OFFCURVE",
"289 -12 CURVE SMOOTH",
"358 -12 OFFCURVE",
"422 10 OFFCURVE",
"467 44 CURVE",
"467 142 LINE",
"427 103 OFFCURVE",
"367 69 OFFCURVE",
"294 69 CURVE SMOOTH"
);
},
{
closed = 1;
nodes = (
"130 252 LINE",
"130 337 OFFCURVE",
"179 422 OFFCURVE",
"274 422 CURVE SMOOTH",
"345 422 OFFCURVE",
"396 377 OFFCURVE",
"412 317 CURVE",
"134 245 LINE"
);
}
);
width = 546;
}
);
unicode = 00E9;
},
{
glyphname = ecircumflex;
layers = (
{
hints = (
{
horizontal = 1;
place = "{-12, 81}";
type = Stem;
},
{
horizontal = 1;
place = "{422, 82}";
type = Stem;
},
{
horizontal = 1;
place = "{623, 149}";
type = Stem;
},
{
place = "{34, 96}";
type = Stem;
}
);
layerId = "19D549C8-9BA7-4C6B-AF4A-F08379699900";
paths = (
{
closed = 1;
nodes = (
"327 772 LINE",
"250 772 LINE",
"138 623 LINE",
"214 623 LINE",
"288 702 LINE",
"362 623 LINE",
"439 623 LINE"
);
},
{
closed = 1;
nodes = (
"214 69 OFFCURVE",
"164 111 OFFCURVE",
"140 171 CURVE",
"512 262 LINE",
"499 392 OFFCURVE",
"418 504 OFFCURVE",
"273 504 CURVE SMOOTH",
"129 504 OFFCURVE",
"34 390 OFFCURVE",
"34 244 CURVE SMOOTH",
"34 94 OFFCURVE",
"142 -12 OFFCURVE",
"289 -12 CURVE SMOOTH",
"358 -12 OFFCURVE",
"422 10 OFFCURVE",
"467 44 CURVE",
"467 142 LINE",
"427 103 OFFCURVE",
"367 69 OFFCURVE",
"294 69 CURVE SMOOTH"
);
},
{
closed = 1;
nodes = (
"130 252 LINE",
"130 337 OFFCURVE",
"179 422 OFFCURVE",
"274 422 CURVE SMOOTH",
"345 422 OFFCURVE",
"396 377 OFFCURVE",
"412 317 CURVE",
"134 245 LINE"
);
}
);
width = 546;
}
);
unicode = 00EA;
},
{
glyphname = edieresis;
layers = (
{
hints = (
{
place = "{34, 96}";
type = Stem;
},
{
place = "{126, 129}";
type = Stem;
},
{
place = "{324, 126}";
type = Stem;
},
{
horizontal = 1;
place = "{-12, 81}";
type = Stem;
},
{
horizontal = 1;
place = "{422, 82}";
type = Stem;
},
{
horizontal = 1;
place = "{627, 126}";
type = Stem;
}
);
layerId = "19D549C8-9BA7-4C6B-AF4A-F08379699900";
paths = (
{
closed = 1;
nodes = (
"126 653 OFFCURVE",
"153 627 OFFCURVE",
"190 627 CURVE SMOOTH",
"225 627 OFFCURVE",
"255 653 OFFCURVE",
"255 690 CURVE SMOOTH",
"255 726 OFFCURVE",
"225 753 OFFCURVE",
"190 753 CURVE SMOOTH",
"153 753 OFFCURVE",
"126 726 OFFCURVE",
"126 690 CURVE SMOOTH"
);
},
{
closed = 1;
nodes = (
"324 653 OFFCURVE",
"351 627 OFFCURVE",
"386 627 CURVE SMOOTH",
"423 627 OFFCURVE",
"450 653 OFFCURVE",
"450 690 CURVE SMOOTH",
"450 726 OFFCURVE",
"423 753 OFFCURVE",
"386 753 CURVE SMOOTH",
"351 753 OFFCURVE",
"324 726 OFFCURVE",
"324 690 CURVE SMOOTH"
);
},
{
closed = 1;
nodes = (
"214 69 OFFCURVE",
"164 111 OFFCURVE",
"140 171 CURVE",
"512 262 LINE",
"499 392 OFFCURVE",
"418 504 OFFCURVE",
"273 504 CURVE SMOOTH",
"129 504 OFFCURVE",
"34 390 OFFCURVE",
"34 244 CURVE SMOOTH",
"34 94 OFFCURVE",
"142 -12 OFFCURVE",
"289 -12 CURVE SMOOTH",
"358 -12 OFFCURVE",
"422 10 OFFCURVE",
"467 44 CURVE",
"467 142 LINE",
"427 103 OFFCURVE",
"367 69 OFFCURVE",
"294 69 CURVE SMOOTH"
);
},
{
closed = 1;
nodes = (
"130 252 LINE",
"130 337 OFFCURVE",
"179 422 OFFCURVE",
"274 422 CURVE SMOOTH",
"345 422 OFFCURVE",
"396 377 OFFCURVE",
"412 317 CURVE",
"134 245 LINE"
);
}
);
width = 546;
}
);
unicode = 00EB;
},
{
glyphname = igrave;
layers = (
{
hints = (
{
horizontal = 1;
place = "{0, 21}";
target = up;
type = BottomGhost;
},
{
horizontal = 1;
place = "{492, -20}";
target = down;
type = TopGhost;
},
{
place = "{56, 99}";
type = Stem;
}
);
layerId = "19D549C8-9BA7-4C6B-AF4A-F08379699900";
paths = (
{
closed = 1;
nodes = (
"100 616 LINE",
"175 616 LINE",
"78 771 LINE",
"-30 745 LINE"
);
},
{
closed = 1;
nodes = (
"155 492 LINE",
"56 492 LINE",
"56 0 LINE",
"155 0 LINE"
);
}
);
width = 219;
}
);
unicode = 00EC;
},
{
glyphname = iacute;
layers = (
{
hints = (
{
horizontal = 1;
place = "{0, 21}";
target = up;
type = BottomGhost;
},
{
horizontal = 1;
place = "{492, -20}";
target = down;
type = TopGhost;
},
{
place = "{34, 99}";
type = Stem;
}
);
layerId = "19D549C8-9BA7-4C6B-AF4A-F08379699900";
paths = (
{
closed = 1;
nodes = (
"34 616 LINE",
"106 616 LINE",
"237 745 LINE",
"128 771 LINE"
);
},
{
closed = 1;
nodes = (
"133 492 LINE",
"34 492 LINE",
"34 0 LINE",
"133 0 LINE"
);
}
);
width = 221;
}
);
unicode = 00ED;
},
{
glyphname = icircumflex;
layers = (
{
hints = (
{
horizontal = 1;
place = "{0, 21}";
target = up;
type = BottomGhost;
},
{
horizontal = 1;
place = "{492, -20}";
target = down;
type = TopGhost;
},
{
horizontal = 1;
place = "{623, 149}";
type = Stem;
},
{
place = "{55, 99}";
type = Stem;
}
);
layerId = "19D549C8-9BA7-4C6B-AF4A-F08379699900";
paths = (
{
closed = 1;
nodes = (
"143 772 LINE",
"66 772 LINE",
"-47 623 LINE",
"30 623 LINE",
"104 702 LINE",
"178 623 LINE",
"255 623 LINE"
);
},
{
closed = 1;
nodes = (
"154 492 LINE",
"55 492 LINE",
"55 0 LINE",
"154 0 LINE"
);
}
);
width = 210;
}
);
unicode = 00EE;
},
{
glyphname = idieresis;
layers = (
{
hints = (
{
place = "{-39, 129}";
type = Stem;
},
{
place = "{71, 99}";
type = Stem;
},
{
place = "{159, 126}";
type = Stem;
},
{
horizontal = 1;
place = "{0, 21}";
target = up;
type = BottomGhost;
},
{
horizontal = 1;
place = "{492, -20}";
target = down;
type = TopGhost;
},
{
horizontal = 1;
place = "{627, 126}";
type = Stem;
}
);
layerId = "19D549C8-9BA7-4C6B-AF4A-F08379699900";
paths = (
{
closed = 1;
nodes = (
"-39 653 OFFCURVE",
"-13 627 OFFCURVE",
"25 627 CURVE SMOOTH",
"60 627 OFFCURVE",
"90 653 OFFCURVE",
"90 690 CURVE SMOOTH",
"90 726 OFFCURVE",
"60 753 OFFCURVE",
"25 753 CURVE SMOOTH",
"-13 753 OFFCURVE",
"-39 726 OFFCURVE",
"-39 690 CURVE SMOOTH"
);
},
{
closed = 1;
nodes = (
"159 653 OFFCURVE",
"186 627 OFFCURVE",
"221 627 CURVE SMOOTH",
"258 627 OFFCURVE",
"285 653 OFFCURVE",
"285 690 CURVE SMOOTH",
"285 726 OFFCURVE",
"258 753 OFFCURVE",
"221 753 CURVE SMOOTH",
"186 753 OFFCURVE",
"159 726 OFFCURVE",
"159 690 CURVE SMOOTH"
);
},
{
closed = 1;
nodes = (
"170 492 LINE",
"71 492 LINE",
"71 0 LINE",
"170 0 LINE"
);
}
);
width = 245;
}
);
unicode = 00EF;
},
{
glyphname = eth;
layers = (
{
hints = (
{
horizontal = 1;
place = "{-11, 99}";
type = Stem;
},
{
horizontal = 1;
place = "{360, 96}";
type = Stem;
},
{
place = "{34, 109}";
type = Stem;
},
{
place = "{402, 107}";
type = Stem;
}
);
layerId = "19D549C8-9BA7-4C6B-AF4A-F08379699900";
paths = (
{
closed = 1;
nodes = (
"92 731 LINE",
"154 691 OFFCURVE",
"186 666 OFFCURVE",
"204 649 CURVE",
"84 571 LINE",
"125 529 LINE",
"247 609 LINE",
"310 550 OFFCURVE",
"365 484 OFFCURVE",
"396 403 CURVE",
"378 419 OFFCURVE",
"336 456 OFFCURVE",
"261 456 CURVE SMOOTH",
"129 456 OFFCURVE",
"34 347 OFFCURVE",
"34 223 CURVE SMOOTH",
"34 88 OFFCURVE",
"143 -11 OFFCURVE",
"272 -11 CURVE SMOOTH",
"378 -11 OFFCURVE",
"509 64 OFFCURVE",
"509 245 CURVE SMOOTH",
"509 455 OFFCURVE",
"374 594 OFFCURVE",
"315 652 CURVE",
"437 732 LINE",
"397 773 LINE",
"271 691 LINE",
"229 727 OFFCURVE",
"205 744 OFFCURVE",
"147 780 CURVE"
);
},
{
closed = 1;
nodes = (
"152 317 OFFCURVE",
"212 368 OFFCURVE",
"288 360 CURVE SMOOTH",
"366 351 OFFCURVE",
"411 278 OFFCURVE",
"402 208 CURVE SMOOTH",
"393 134 OFFCURVE",
"336 79 OFFCURVE",
"258 88 CURVE SMOOTH",
"187 97 OFFCURVE",
"134 161 OFFCURVE",
"143 241 CURVE SMOOTH"
);
}
);
width = 543;
}
);
unicode = 00F0;
},
{
glyphname = ntilde;
layers = (
{
hints = (
{
place = "{64, 100}";
type = Stem;
},
{
place = "{398, 100}";
type = Stem;
},
{
horizontal = 1;
place = "{0, 21}";
target = up;
type = BottomGhost;
},
{
horizontal = 1;
place = "{415, 88}";
type = Stem;
},
{
horizontal = 1;
place = "{492, -20}";
target = down;
type = TopGhost;
},
{
horizontal = 1;
place = "{614, 77}";
type = Stem;
},
{
horizontal = 1;
place = "{651, 77}";
type = Stem;
}
);
layerId = "19D549C8-9BA7-4C6B-AF4A-F08379699900";
paths = (
{
closed = 1;
nodes = (
"182 605 LINE",
"193 638 OFFCURVE",
"214 651 OFFCURVE",
"237 651 CURVE SMOOTH",
"276 651 OFFCURVE",
"315 614 OFFCURVE",
"358 614 CURVE SMOOTH",
"408 614 OFFCURVE",
"438 657 OFFCURVE",
"458 724 CURVE",
"397 736 LINE",
"386 706 OFFCURVE",
"374 691 OFFCURVE",
"352 691 CURVE SMOOTH",
"318 691 OFFCURVE",
"278 728 OFFCURVE",
"230 728 CURVE SMOOTH",
"176 728 OFFCURVE",
"139 683 OFFCURVE",
"120 616 CURVE"
);
},
{
closed = 1;
nodes = (
"252 503 OFFCURVE",
"201 472 OFFCURVE",
"166 428 CURVE",
"64 492 LINE",
"64 0 LINE",
"164 0 LINE",
"164 282 LINE SMOOTH",
"164 384 OFFCURVE",
"234 415 OFFCURVE",
"287 415 CURVE SMOOTH",
"342 415 OFFCURVE",
"398 382 OFFCURVE",
"398 282 CURVE SMOOTH",
"398 0 LINE",
"498 0 LINE",
"498 312 LINE SMOOTH",
"498 436 OFFCURVE",
"428 503 OFFCURVE",
"323 503 CURVE SMOOTH"
);
}
);
width = 558;
}
);
unicode = 00F1;
},
{
glyphname = ograve;
layers = (
{
hints = (
{
horizontal = 1;
place = "{-11, 85}";
type = Stem;
},
{
horizontal = 1;
place = "{420, 84}";
type = Stem;
},
{
place = "{34, 100}";
type = Stem;
},
{
place = "{463, 100}";
type = Stem;
}
);
layerId = "19D549C8-9BA7-4C6B-AF4A-F08379699900";
paths = (
{
closed = 1;
nodes = (
"269 616 LINE",
"344 616 LINE",
"247 771 LINE",
"140 745 LINE"
);
},
{
closed = 1;
nodes = (
"563 390 OFFCURVE",
"451 504 OFFCURVE",
"298 504 CURVE SMOOTH",
"145 504 OFFCURVE",
"34 389 OFFCURVE",
"34 245 CURVE SMOOTH",
"34 102 OFFCURVE",
"145 -11 OFFCURVE",
"297 -11 CURVE SMOOTH",
"451 -11 OFFCURVE",
"563 105 OFFCURVE",
"563 247 CURVE SMOOTH"
);
},
{
closed = 1;
nodes = (
"463 153 OFFCURVE",
"394 74 OFFCURVE",
"298 74 CURVE SMOOTH",
"204 74 OFFCURVE",
"134 149 OFFCURVE",
"134 247 CURVE SMOOTH",
"134 342 OFFCURVE",
"199 420 OFFCURVE",
"297 420 CURVE SMOOTH",
"395 420 OFFCURVE",
"463 341 OFFCURVE",
"463 246 CURVE SMOOTH"
);
}
);
width = 598;
}
);
unicode = 00F2;
},
{
glyphname = oacute;
layers = (
{
hints = (
{
horizontal = 1;
place = "{-11, 85}";
type = Stem;
},
{
horizontal = 1;
place = "{420, 84}";
type = Stem;
},
{
place = "{34, 100}";
type = Stem;
},
{
place = "{463, 100}";
type = Stem;
}
);
layerId = "19D549C8-9BA7-4C6B-AF4A-F08379699900";
paths = (
{
closed = 1;
nodes = (
"254 616 LINE",
"326 616 LINE",
"457 745 LINE",
"348 771 LINE"
);
},
{
closed = 1;
nodes = (
"563 390 OFFCURVE",
"451 504 OFFCURVE",
"298 504 CURVE SMOOTH",
"145 504 OFFCURVE",
"34 389 OFFCURVE",
"34 245 CURVE SMOOTH",
"34 102 OFFCURVE",
"145 -11 OFFCURVE",
"297 -11 CURVE SMOOTH",
"451 -11 OFFCURVE",
"563 105 OFFCURVE",
"563 247 CURVE SMOOTH"
);
},
{
closed = 1;
nodes = (
"463 153 OFFCURVE",
"394 74 OFFCURVE",
"298 74 CURVE SMOOTH",
"204 74 OFFCURVE",
"134 149 OFFCURVE",
"134 247 CURVE SMOOTH",
"134 342 OFFCURVE",
"199 420 OFFCURVE",
"297 420 CURVE SMOOTH",
"395 420 OFFCURVE",
"463 341 OFFCURVE",
"463 246 CURVE SMOOTH"
);
}
);
width = 598;
}
);
unicode = 00F3;
},
{
glyphname = ocircumflex;
layers = (
{
hints = (
{
horizontal = 1;
place = "{-11, 85}";
type = Stem;
},
{
horizontal = 1;
place = "{420, 84}";
type = Stem;
},
{
horizontal = 1;
place = "{623, 149}";
type = Stem;
},
{
place = "{34, 100}";
type = Stem;
},
{
place = "{463, 100}";
type = Stem;
}
);
layerId = "19D549C8-9BA7-4C6B-AF4A-F08379699900";
paths = (
{
closed = 1;
nodes = (
"339 772 LINE",
"262 772 LINE",
"150 623 LINE",
"226 623 LINE",
"300 702 LINE",
"374 623 LINE",
"451 623 LINE"
);
},
{
closed = 1;
nodes = (
"563 390 OFFCURVE",
"451 504 OFFCURVE",
"298 504 CURVE SMOOTH",
"145 504 OFFCURVE",
"34 389 OFFCURVE",
"34 245 CURVE SMOOTH",
"34 102 OFFCURVE",
"145 -11 OFFCURVE",
"297 -11 CURVE SMOOTH",
"451 -11 OFFCURVE",
"563 105 OFFCURVE",
"563 247 CURVE SMOOTH"
);
},
{
closed = 1;
nodes = (
"463 153 OFFCURVE",
"394 74 OFFCURVE",
"298 74 CURVE SMOOTH",
"204 74 OFFCURVE",
"134 149 OFFCURVE",
"134 247 CURVE SMOOTH",
"134 342 OFFCURVE",
"199 420 OFFCURVE",
"297 420 CURVE SMOOTH",
"395 420 OFFCURVE",
"463 341 OFFCURVE",
"463 246 CURVE SMOOTH"
);
}
);
width = 598;
}
);
unicode = 00F4;
},
{
glyphname = otilde;
layers = (
{
hints = (
{
place = "{34, 100}";
type = Stem;
},
{
place = "{463, 100}";
type = Stem;
},
{
horizontal = 1;
place = "{-11, 85}";
type = Stem;
},
{
horizontal = 1;
place = "{420, 84}";
type = Stem;
},
{
horizontal = 1;
place = "{614, 77}";
type = Stem;
},
{
horizontal = 1;
place = "{651, 77}";
type = Stem;
}
);
layerId = "19D549C8-9BA7-4C6B-AF4A-F08379699900";
paths = (
{
closed = 1;
nodes = (
"188 605 LINE",
"199 638 OFFCURVE",
"220 651 OFFCURVE",
"243 651 CURVE SMOOTH",
"282 651 OFFCURVE",
"321 614 OFFCURVE",
"364 614 CURVE SMOOTH",
"414 614 OFFCURVE",
"444 657 OFFCURVE",
"464 724 CURVE",
"403 736 LINE",
"392 706 OFFCURVE",
"380 691 OFFCURVE",
"358 691 CURVE SMOOTH",
"324 691 OFFCURVE",
"284 728 OFFCURVE",
"236 728 CURVE SMOOTH",
"182 728 OFFCURVE",
"145 683 OFFCURVE",
"126 616 CURVE"
);
},
{
closed = 1;
nodes = (
"563 390 OFFCURVE",
"451 504 OFFCURVE",
"298 504 CURVE SMOOTH",
"145 504 OFFCURVE",
"34 389 OFFCURVE",
"34 245 CURVE SMOOTH",
"34 102 OFFCURVE",
"145 -11 OFFCURVE",
"297 -11 CURVE SMOOTH",
"451 -11 OFFCURVE",
"563 105 OFFCURVE",
"563 247 CURVE SMOOTH"
);
},
{
closed = 1;
nodes = (
"463 153 OFFCURVE",
"394 74 OFFCURVE",
"298 74 CURVE SMOOTH",
"204 74 OFFCURVE",
"134 149 OFFCURVE",
"134 247 CURVE SMOOTH",
"134 342 OFFCURVE",
"199 420 OFFCURVE",
"297 420 CURVE SMOOTH",
"395 420 OFFCURVE",
"463 341 OFFCURVE",
"463 246 CURVE SMOOTH"
);
}
);
width = 598;
}
);
unicode = 00F5;
},
{
glyphname = odieresis;
layers = (
{
hints = (
{
horizontal = 1;
place = "{-11, 85}";
type = Stem;
},
{
horizontal = 1;
place = "{420, 84}";
type = Stem;
},
{
horizontal = 1;
place = "{627, 126}";
type = Stem;
},
{
place = "{34, 100}";
type = Stem;
},
{
place = "{138, 129}";
type = Stem;
},
{
place = "{336, 126}";
type = Stem;
},
{
place = "{463, 100}";
type = Stem;
}
);
layerId = "19D549C8-9BA7-4C6B-AF4A-F08379699900";
paths = (
{
closed = 1;
nodes = (
"138 653 OFFCURVE",
"165 627 OFFCURVE",
"202 627 CURVE SMOOTH",
"237 627 OFFCURVE",
"267 653 OFFCURVE",
"267 690 CURVE SMOOTH",
"267 726 OFFCURVE",
"237 753 OFFCURVE",
"202 753 CURVE SMOOTH",
"165 753 OFFCURVE",
"138 726 OFFCURVE",
"138 690 CURVE SMOOTH"
);
},
{
closed = 1;
nodes = (
"336 653 OFFCURVE",
"363 627 OFFCURVE",
"398 627 CURVE SMOOTH",
"435 627 OFFCURVE",
"462 653 OFFCURVE",
"462 690 CURVE SMOOTH",
"462 726 OFFCURVE",
"435 753 OFFCURVE",
"398 753 CURVE SMOOTH",
"363 753 OFFCURVE",
"336 726 OFFCURVE",
"336 690 CURVE SMOOTH"
);
},
{
closed = 1;
nodes = (
"563 390 OFFCURVE",
"451 504 OFFCURVE",
"298 504 CURVE SMOOTH",
"145 504 OFFCURVE",
"34 389 OFFCURVE",
"34 245 CURVE SMOOTH",
"34 102 OFFCURVE",
"145 -11 OFFCURVE",
"297 -11 CURVE SMOOTH",
"451 -11 OFFCURVE",
"563 105 OFFCURVE",
"563 247 CURVE SMOOTH"
);
},
{
closed = 1;
nodes = (
"463 153 OFFCURVE",
"394 74 OFFCURVE",
"298 74 CURVE SMOOTH",
"204 74 OFFCURVE",
"134 149 OFFCURVE",
"134 247 CURVE SMOOTH",
"134 342 OFFCURVE",
"199 420 OFFCURVE",
"297 420 CURVE SMOOTH",
"395 420 OFFCURVE",
"463 341 OFFCURVE",
"463 246 CURVE SMOOTH"
);
}
);
width = 598;
}
);
unicode = 00F6;
},
{
glyphname = divide;
layers = (
{
hints = (
{
horizontal = 1;
place = "{135, 119}";
type = Stem;
},
{
horizontal = 1;
place = "{317, 72}";
type = Stem;
},
{
horizontal = 1;
place = "{453, 119}";
type = Stem;
},
{
place = "{248, 122}";
type = Stem;
}
);
layerId = "19D549C8-9BA7-4C6B-AF4A-F08379699900";
paths = (
{
closed = 1;
nodes = (
"370 544 OFFCURVE",
"345 572 OFFCURVE",
"308 572 CURVE SMOOTH",
"272 572 OFFCURVE",
"248 544 OFFCURVE",
"248 512 CURVE SMOOTH",
"248 479 OFFCURVE",
"272 453 OFFCURVE",
"308 453 CURVE SMOOTH",
"345 453 OFFCURVE",
"370 479 OFFCURVE",
"370 512 CURVE SMOOTH"
);
},
{
closed = 1;
nodes = (
"565 389 LINE",
"53 389 LINE",
"53 317 LINE",
"565 317 LINE"
);
},
{
closed = 1;
nodes = (
"370 229 OFFCURVE",
"345 254 OFFCURVE",
"308 254 CURVE SMOOTH",
"272 254 OFFCURVE",
"248 229 OFFCURVE",
"248 195 CURVE SMOOTH",
"248 163 OFFCURVE",
"272 135 OFFCURVE",
"308 135 CURVE SMOOTH",
"345 135 OFFCURVE",
"370 163 OFFCURVE",
"370 195 CURVE SMOOTH"
);
}
);
width = 618;
}
);
unicode = 00F7;
},
{
glyphname = oslash;
layers = (
{
hints = (
{
horizontal = 1;
place = "{-12, 80}";
type = Stem;
},
{
horizontal = 1;
place = "{415, 80}";
type = Stem;
},
{
place = "{31, 97}";
type = Stem;
},
{
place = "{454, 96}";
type = Stem;
}
);
layerId = "19D549C8-9BA7-4C6B-AF4A-F08379699900";
paths = (
{
closed = 1;
nodes = (
"20 3 LINE",
"64 -41 LINE",
"136 37 LINE",
"179 4 OFFCURVE",
"227 -12 OFFCURVE",
"289 -12 CURVE SMOOTH",
"441 -12 OFFCURVE",
"550 98 OFFCURVE",
"550 242 CURVE SMOOTH",
"550 310 OFFCURVE",
"528 363 OFFCURVE",
"491 407 CURVE",
"546 467 LINE",
"504 509 LINE",
"445 448 LINE",
"402 482 OFFCURVE",
"349 495 OFFCURVE",
"290 495 CURVE SMOOTH",
"138 495 OFFCURVE",
"31 384 OFFCURVE",
"31 242 CURVE SMOOTH",
"31 177 OFFCURVE",
"51 124 OFFCURVE",
"91 76 CURVE"
);
},
{
closed = 1;
nodes = (
"154 142 LINE",
"134 171 OFFCURVE",
"128 201 OFFCURVE",
"128 242 CURVE SMOOTH",
"128 338 OFFCURVE",
"190 415 OFFCURVE",
"290 415 CURVE SMOOTH",
"330 415 OFFCURVE",
"361 404 OFFCURVE",
"386 384 CURVE"
);
},
{
closed = 1;
nodes = (
"427 340 LINE",
"444 312 OFFCURVE",
"454 281 OFFCURVE",
"454 242 CURVE SMOOTH",
"454 144 OFFCURVE",
"389 68 OFFCURVE",
"288 68 CURVE SMOOTH",
"250 68 OFFCURVE",
"220 78 OFFCURVE",
"193 98 CURVE"
);
}
);
width = 573;
}
);
unicode = 00F8;
},
{
glyphname = ugrave;
layers = (
{
hints = (
{
place = "{58, 100}";
type = Stem;
},
{
place = "{393, 100}";
type = Stem;
},
{
horizontal = 1;
place = "{-10, 88}";
type = Stem;
},
{
horizontal = 1;
place = "{-2, 21}";
target = up;
type = BottomGhost;
},
{
horizontal = 1;
place = "{493, -20}";
target = down;
type = TopGhost;
}
);
layerId = "19D549C8-9BA7-4C6B-AF4A-F08379699900";
paths = (
{
closed = 1;
nodes = (
"278 616 LINE",
"353 616 LINE",
"256 771 LINE",
"149 745 LINE"
);
},
{
closed = 1;
nodes = (
"306 -10 OFFCURVE",
"356 19 OFFCURVE",
"391 62 CURVE",
"493 -2 LINE",
"493 493 LINE",
"393 493 LINE",
"393 211 LINE SMOOTH",
"393 109 OFFCURVE",
"325 78 OFFCURVE",
"270 78 CURVE SMOOTH",
"214 78 OFFCURVE",
"158 111 OFFCURVE",
"158 211 CURVE SMOOTH",
"158 493 LINE",
"58 493 LINE",
"58 181 LINE SMOOTH",
"58 55 OFFCURVE",
"126 -10 OFFCURVE",
"234 -10 CURVE SMOOTH"
);
}
);
width = 551;
}
);
unicode = 00F9;
},
{
glyphname = uacute;
layers = (
{
hints = (
{
place = "{58, 100}";
type = Stem;
},
{
place = "{393, 100}";
type = Stem;
},
{
horizontal = 1;
place = "{-10, 88}";
type = Stem;
},
{
horizontal = 1;
place = "{-2, 21}";
target = up;
type = BottomGhost;
},
{
horizontal = 1;
place = "{493, -20}";
target = down;
type = TopGhost;
}
);
layerId = "19D549C8-9BA7-4C6B-AF4A-F08379699900";
paths = (
{
closed = 1;
nodes = (
"240 616 LINE",
"312 616 LINE",
"443 745 LINE",
"334 771 LINE"
);
},
{
closed = 1;
nodes = (
"306 -10 OFFCURVE",
"356 19 OFFCURVE",
"391 62 CURVE",
"493 -2 LINE",
"493 493 LINE",
"393 493 LINE",
"393 211 LINE SMOOTH",
"393 109 OFFCURVE",
"325 78 OFFCURVE",
"270 78 CURVE SMOOTH",
"214 78 OFFCURVE",
"158 111 OFFCURVE",
"158 211 CURVE SMOOTH",
"158 493 LINE",
"58 493 LINE",
"58 181 LINE SMOOTH",
"58 55 OFFCURVE",
"126 -10 OFFCURVE",
"234 -10 CURVE SMOOTH"
);
}
);
width = 551;
}
);
unicode = 00FA;
},
{
glyphname = ucircumflex;
layers = (
{
hints = (
{
place = "{58, 100}";
type = Stem;
},
{
place = "{393, 100}";
type = Stem;
},
{
horizontal = 1;
place = "{-10, 88}";
type = Stem;
},
{
horizontal = 1;
place = "{-2, 21}";
target = up;
type = BottomGhost;
},
{
horizontal = 1;
place = "{493, -20}";
target = down;
type = TopGhost;
},
{
horizontal = 1;
place = "{623, 149}";
type = Stem;
}
);
layerId = "19D549C8-9BA7-4C6B-AF4A-F08379699900";
paths = (
{
closed = 1;
nodes = (
"314 772 LINE",
"237 772 LINE",
"125 623 LINE",
"201 623 LINE",
"275 702 LINE",
"349 623 LINE",
"426 623 LINE"
);
},
{
closed = 1;
nodes = (
"306 -10 OFFCURVE",
"356 19 OFFCURVE",
"391 62 CURVE",
"493 -2 LINE",
"493 493 LINE",
"393 493 LINE",
"393 211 LINE SMOOTH",
"393 109 OFFCURVE",
"325 78 OFFCURVE",
"270 78 CURVE SMOOTH",
"214 78 OFFCURVE",
"158 111 OFFCURVE",
"158 211 CURVE SMOOTH",
"158 493 LINE",
"58 493 LINE",
"58 181 LINE SMOOTH",
"58 55 OFFCURVE",
"126 -10 OFFCURVE",
"234 -10 CURVE SMOOTH"
);
}
);
width = 551;
}
);
unicode = 00FB;
},
{
glyphname = udieresis;
layers = (
{
hints = (
{
place = "{58, 100}";
type = Stem;
},
{
place = "{115, 129}";
type = Stem;
},
{
place = "{313, 126}";
type = Stem;
},
{
place = "{393, 100}";
type = Stem;
},
{
horizontal = 1;
place = "{-10, 88}";
type = Stem;
},
{
horizontal = 1;
place = "{-2, 21}";
target = up;
type = BottomGhost;
},
{
horizontal = 1;
place = "{493, -20}";
target = down;
type = TopGhost;
},
{
horizontal = 1;
place = "{627, 126}";
type = Stem;
}
);
layerId = "19D549C8-9BA7-4C6B-AF4A-F08379699900";
paths = (
{
closed = 1;
nodes = (
"115 653 OFFCURVE",
"142 627 OFFCURVE",
"179 627 CURVE SMOOTH",
"214 627 OFFCURVE",
"244 653 OFFCURVE",
"244 690 CURVE SMOOTH",
"244 726 OFFCURVE",
"214 753 OFFCURVE",
"179 753 CURVE SMOOTH",
"142 753 OFFCURVE",
"115 726 OFFCURVE",
"115 690 CURVE SMOOTH"
);
},
{
closed = 1;
nodes = (
"313 653 OFFCURVE",
"340 627 OFFCURVE",
"375 627 CURVE SMOOTH",
"412 627 OFFCURVE",
"439 653 OFFCURVE",
"439 690 CURVE SMOOTH",
"439 726 OFFCURVE",
"412 753 OFFCURVE",
"375 753 CURVE SMOOTH",
"340 753 OFFCURVE",
"313 726 OFFCURVE",
"313 690 CURVE SMOOTH"
);
},
{
closed = 1;
nodes = (
"306 -10 OFFCURVE",
"356 19 OFFCURVE",
"391 62 CURVE",
"493 -2 LINE",
"493 493 LINE",
"393 493 LINE",
"393 211 LINE SMOOTH",
"393 109 OFFCURVE",
"325 78 OFFCURVE",
"270 78 CURVE SMOOTH",
"214 78 OFFCURVE",
"158 111 OFFCURVE",
"158 211 CURVE SMOOTH",
"158 493 LINE",
"58 493 LINE",
"58 181 LINE SMOOTH",
"58 55 OFFCURVE",
"126 -10 OFFCURVE",
"234 -10 CURVE SMOOTH"
);
}
);
width = 551;
}
);
unicode = 00FC;
},
{
glyphname = yacute;
layers = (
{
hints = (
{
horizontal = 1;
place = "{-183, 954}";
type = Stem;
},
{
place = "{-5, 509}";
type = Stem;
}
);
layerId = "19D549C8-9BA7-4C6B-AF4A-F08379699900";
paths = (
{
closed = 1;
nodes = (
"208 616 LINE",
"280 616 LINE",
"411 745 LINE",
"302 771 LINE"
);
},
{
closed = 1;
nodes = (
"215 -1 LINE",
"145 -183 LINE",
"236 -183 LINE",
"504 491 LINE",
"400 491 LINE",
"258 114 LINE",
"103 491 LINE",
"-5 491 LINE"
);
}
);
width = 500;
}
);
unicode = 00FD;
},
{
glyphname = thorn;
layers = (
{
hints = (
{
horizontal = 1;
place = "{-11, 82}";
type = Stem;
},
{
horizontal = 1;
place = "{376, 82}";
type = Stem;
},
{
place = "{65, 93}";
type = Stem;
},
{
place = "{425, 95}";
type = Stem;
}
);
layerId = "19D549C8-9BA7-4C6B-AF4A-F08379699900";
paths = (
{
closed = 1;
nodes = (
"65 -243 LINE",
"158 -243 LINE",
"158 -13 LINE",
"157 61 LINE",
"160 61 LINE",
"193 16 OFFCURVE",
"245 -10 OFFCURVE",
"302 -11 CURVE",
"318 -12 OFFCURVE",
"333 -11 OFFCURVE",
"347 -8 CURVE",
"456 10 OFFCURVE",
"520 112 OFFCURVE",
"520 223 CURVE SMOOTH",
"520 334 OFFCURVE",
"454 435 OFFCURVE",
"347 455 CURVE",
"332 457 OFFCURVE",
"318 458 OFFCURVE",
"302 458 CURVE",
"244 455 OFFCURVE",
"193 429 OFFCURVE",
"159 384 CURVE",
"157 384 LINE",
"157 416 OFFCURVE",
"157 450 OFFCURVE",
"158 483 CURVE",
"158 511 OFFCURVE",
"158 539 OFFCURVE",
"158 567 CURVE SMOOTH",
"158 773 LINE",
"65 773 LINE"
);
},
{
closed = 1;
nodes = (
"202 71 OFFCURVE",
"154 147 OFFCURVE",
"154 228 CURVE SMOOTH",
"154 305 OFFCURVE",
"206 376 OFFCURVE",
"287 376 CURVE SMOOTH",
"373 376 OFFCURVE",
"425 308 OFFCURVE",
"425 227 CURVE SMOOTH",
"425 145 OFFCURVE",
"377 71 OFFCURVE",
"288 71 CURVE SMOOTH"
);
}
);
width = 553;
}
);
unicode = 00FE;
},
{
glyphname = ydieresis;
layers = (
{
hints = (
{
horizontal = 1;
place = "{627, 126}";
type = Stem;
},
{
place = "{96, 129}";
type = Stem;
},
{
place = "{294, 126}";
type = Stem;
}
);
layerId = "19D549C8-9BA7-4C6B-AF4A-F08379699900";
paths = (
{
closed = 1;
nodes = (
"96 653 OFFCURVE",
"123 627 OFFCURVE",
"160 627 CURVE SMOOTH",
"195 627 OFFCURVE",
"225 653 OFFCURVE",
"225 690 CURVE SMOOTH",
"225 726 OFFCURVE",
"195 753 OFFCURVE",
"160 753 CURVE SMOOTH",
"123 753 OFFCURVE",
"96 726 OFFCURVE",
"96 690 CURVE SMOOTH"
);
},
{
closed = 1;
nodes = (
"294 653 OFFCURVE",
"321 627 OFFCURVE",
"356 627 CURVE SMOOTH",
"393 627 OFFCURVE",
"420 653 OFFCURVE",
"420 690 CURVE SMOOTH",
"420 726 OFFCURVE",
"393 753 OFFCURVE",
"356 753 CURVE SMOOTH",
"321 753 OFFCURVE",
"294 726 OFFCURVE",
"294 690 CURVE SMOOTH"
);
},
{
closed = 1;
nodes = (
"215 -1 LINE",
"145 -183 LINE",
"236 -183 LINE",
"504 491 LINE",
"400 491 LINE",
"258 114 LINE",
"103 491 LINE",
"-5 491 LINE"
);
}
);
width = 500;
}
);
unicode = 00FF;
},
{
glyphname = Amacron;
layers = (
{
hints = (
{
horizontal = 1;
place = "{0, 21}";
target = up;
type = BottomGhost;
},
{
horizontal = 1;
place = "{185, 88}";
type = Stem;
},
{
horizontal = 1;
place = "{705, -20}";
target = down;
type = TopGhost;
},
{
horizontal = 1;
place = "{771, 67}";
type = Stem;
},
{
place = "{-6, 703}";
type = Stem;
}
);
layerId = "19D549C8-9BA7-4C6B-AF4A-F08379699900";
paths = (
{
closed = 1;
nodes = (
"502 838 LINE",
"189 838 LINE",
"189 771 LINE",
"502 771 LINE"
);
},
{
closed = 1;
nodes = (
"507 185 LINE",
"585 0 LINE",
"697 0 LINE",
"390 705 LINE",
"301 705 LINE",
"-6 0 LINE",
"104 0 LINE",
"183 185 LINE"
);
},
{
closed = 1;
nodes = (
"345 584 LINE",
"471 273 LINE",
"219 273 LINE"
);
}
);
width = 692;
}
);
unicode = 0100;
},
{
glyphname = amacron;
layers = (
{
hints = (
{
place = "{34, 100}";
type = Stem;
},
{
place = "{394, 99}";
type = Stem;
},
{
horizontal = 1;
place = "{-11, 76}";
type = Stem;
},
{
horizontal = 1;
place = "{-2, 21}";
target = up;
type = BottomGhost;
},
{
horizontal = 1;
place = "{261, 71}";
type = Stem;
},
{
horizontal = 1;
place = "{419, 83}";
type = Stem;
},
{
horizontal = 1;
place = "{606, 67}";
type = Stem;
}
);
layerId = "19D549C8-9BA7-4C6B-AF4A-F08379699900";
paths = (
{
closed = 1;
nodes = (
"427 673 LINE",
"114 673 LINE",
"114 606 LINE",
"427 606 LINE"
);
},
{
closed = 1;
nodes = (
"493 -2 LINE",
"493 309 LINE SMOOTH",
"493 437 OFFCURVE",
"391 502 OFFCURVE",
"263 502 CURVE SMOOTH",
"186 502 OFFCURVE",
"117 480 OFFCURVE",
"69 460 CURVE",
"69 372 LINE",
"128 406 OFFCURVE",
"190 419 OFFCURVE",
"252 419 CURVE SMOOTH",
"337 419 OFFCURVE",
"394 391 OFFCURVE",
"394 318 CURVE SMOOTH",
"394 300 LINE",
"353 323 OFFCURVE",
"302 332 OFFCURVE",
"246 332 CURVE SMOOTH",
"141 332 OFFCURVE",
"34 292 OFFCURVE",
"34 169 CURVE SMOOTH",
"34 53 OFFCURVE",
"135 -11 OFFCURVE",
"232 -11 CURVE SMOOTH",
"300 -11 OFFCURVE",
"349 10 OFFCURVE",
"392 50 CURVE"
);
},
{
closed = 1;
nodes = (
"394 125 LINE",
"362 88 OFFCURVE",
"318 65 OFFCURVE",
"259 65 CURVE SMOOTH",
"192 65 OFFCURVE",
"134 97 OFFCURVE",
"134 163 CURVE SMOOTH",
"134 233 OFFCURVE",
"202 261 OFFCURVE",
"266 261 CURVE SMOOTH",
"324 261 OFFCURVE",
"364 244 OFFCURVE",
"394 227 CURVE"
);
}
);
width = 559;
}
);
unicode = 0101;
},
{
glyphname = Abreve;
layers = (
{
hints = (
{
horizontal = 1;
place = "{0, 21}";
target = up;
type = BottomGhost;
},
{
horizontal = 1;
place = "{185, 88}";
type = Stem;
},
{
horizontal = 1;
place = "{705, -20}";
target = down;
type = TopGhost;
},
{
horizontal = 1;
place = "{765, 75}";
type = Stem;
},
{
place = "{-6, 703}";
type = Stem;
}
);
layerId = "19D549C8-9BA7-4C6B-AF4A-F08379699900";
paths = (
{
closed = 1;
nodes = (
"436 912 LINE",
"424 866 OFFCURVE",
"391 840 OFFCURVE",
"347 840 CURVE SMOOTH",
"301 840 OFFCURVE",
"267 866 OFFCURVE",
"255 912 CURVE",
"192 912 LINE",
"203 824 OFFCURVE",
"259 765 OFFCURVE",
"344 765 CURVE SMOOTH",
"428 765 OFFCURVE",
"490 824 OFFCURVE",
"498 912 CURVE"
);
},
{
closed = 1;
nodes = (
"507 185 LINE",
"585 0 LINE",
"697 0 LINE",
"390 705 LINE",
"301 705 LINE",
"-6 0 LINE",
"104 0 LINE",
"183 185 LINE"
);
},
{
closed = 1;
nodes = (
"345 584 LINE",
"471 273 LINE",
"219 273 LINE"
);
}
);
width = 692;
}
);
unicode = 0102;
},
{
glyphname = abreve;
layers = (
{
hints = (
{
place = "{34, 100}";
type = Stem;
},
{
place = "{394, 99}";
type = Stem;
},
{
horizontal = 1;
place = "{-11, 76}";
type = Stem;
},
{
horizontal = 1;
place = "{-2, 21}";
target = up;
type = BottomGhost;
},
{
horizontal = 1;
place = "{261, 71}";
type = Stem;
},
{
horizontal = 1;
place = "{419, 83}";
type = Stem;
},
{
horizontal = 1;
place = "{597, 75}";
type = Stem;
}
);
layerId = "19D549C8-9BA7-4C6B-AF4A-F08379699900";
paths = (
{
closed = 1;
nodes = (
"373 744 LINE",
"361 698 OFFCURVE",
"328 672 OFFCURVE",
"284 672 CURVE SMOOTH",
"238 672 OFFCURVE",
"204 698 OFFCURVE",
"192 744 CURVE",
"129 744 LINE",
"140 656 OFFCURVE",
"196 597 OFFCURVE",
"281 597 CURVE SMOOTH",
"365 597 OFFCURVE",
"427 656 OFFCURVE",
"435 744 CURVE"
);
},
{
closed = 1;
nodes = (
"493 -2 LINE",
"493 309 LINE SMOOTH",
"493 437 OFFCURVE",
"391 502 OFFCURVE",
"263 502 CURVE SMOOTH",
"186 502 OFFCURVE",
"117 480 OFFCURVE",
"69 460 CURVE",
"69 372 LINE",
"128 406 OFFCURVE",
"190 419 OFFCURVE",
"252 419 CURVE SMOOTH",
"337 419 OFFCURVE",
"394 391 OFFCURVE",
"394 318 CURVE SMOOTH",
"394 300 LINE",
"353 323 OFFCURVE",
"302 332 OFFCURVE",
"246 332 CURVE SMOOTH",
"141 332 OFFCURVE",
"34 292 OFFCURVE",
"34 169 CURVE SMOOTH",
"34 53 OFFCURVE",
"135 -11 OFFCURVE",
"232 -11 CURVE SMOOTH",
"300 -11 OFFCURVE",
"349 10 OFFCURVE",
"392 50 CURVE"
);
},
{
closed = 1;
nodes = (
"394 125 LINE",
"362 88 OFFCURVE",
"318 65 OFFCURVE",
"259 65 CURVE SMOOTH",
"192 65 OFFCURVE",
"134 97 OFFCURVE",
"134 163 CURVE SMOOTH",
"134 233 OFFCURVE",
"202 261 OFFCURVE",
"266 261 CURVE SMOOTH",
"324 261 OFFCURVE",
"364 244 OFFCURVE",
"394 227 CURVE"
);
}
);
width = 559;
}
);
unicode = 0103;
},
{
glyphname = Aogonek;
layers = (
{
hints = (
{
horizontal = 1;
place = "{-204, 59}";
type = Stem;
},
{
horizontal = 1;
place = "{0, 21}";
target = up;
type = BottomGhost;
},
{
horizontal = 1;
place = "{185, 88}";
type = Stem;
},
{
horizontal = 1;
place = "{705, -20}";
target = down;
type = TopGhost;
},
{
place = "{534, 77}";
type = Stem;
}
);
layerId = "19D549C8-9BA7-4C6B-AF4A-F08379699900";
paths = (
{
closed = 1;
nodes = (
"507 185 LINE",
"585 0 LINE",
"561 -30 OFFCURVE",
"534 -67 OFFCURVE",
"534 -108 CURVE SMOOTH",
"534 -169 OFFCURVE",
"583 -204 OFFCURVE",
"648 -204 CURVE SMOOTH",
"671 -204 OFFCURVE",
"696 -199 OFFCURVE",
"722 -187 CURVE",
"710 -136 LINE",
"690 -142 OFFCURVE",
"677 -145 OFFCURVE",
"664 -145 CURVE SMOOTH",
"632 -145 OFFCURVE",
"611 -124 OFFCURVE",
"611 -95 CURVE SMOOTH",
"611 -66 OFFCURVE",
"627 -43 OFFCURVE",
"656 0 CURVE",
"697 0 LINE",
"390 705 LINE",
"301 705 LINE",
"-6 0 LINE",
"104 0 LINE",
"183 185 LINE"
);
},
{
closed = 1;
nodes = (
"345 584 LINE",
"471 273 LINE",
"219 273 LINE"
);
}
);
width = 706;
}
);
unicode = 0104;
},
{
glyphname = aogonek;
layers = (
{
hints = (
{
place = "{34, 100}";
type = Stem;
},
{
place = "{371, 77}";
type = Stem;
},
{
place = "{394, 99}";
type = Stem;
},
{
horizontal = 1;
place = "{-204, 59}";
type = Stem;
},
{
horizontal = 1;
place = "{-11, 76}";
type = Stem;
},
{
horizontal = 1;
place = "{261, 71}";
type = Stem;
},
{
horizontal = 1;
place = "{419, 83}";
type = Stem;
}
);
layerId = "19D549C8-9BA7-4C6B-AF4A-F08379699900";
paths = (
{
closed = 1;
nodes = (
"493 -2 LINE",
"493 309 LINE SMOOTH",
"493 437 OFFCURVE",
"391 502 OFFCURVE",
"263 502 CURVE SMOOTH",
"186 502 OFFCURVE",
"117 480 OFFCURVE",
"69 460 CURVE",
"69 372 LINE",
"128 406 OFFCURVE",
"190 419 OFFCURVE",
"252 419 CURVE SMOOTH",
"337 419 OFFCURVE",
"394 391 OFFCURVE",
"394 318 CURVE SMOOTH",
"394 300 LINE",
"353 323 OFFCURVE",
"302 332 OFFCURVE",
"246 332 CURVE SMOOTH",
"141 332 OFFCURVE",
"34 292 OFFCURVE",
"34 169 CURVE SMOOTH",
"34 53 OFFCURVE",
"135 -11 OFFCURVE",
"232 -11 CURVE SMOOTH",
"300 -11 OFFCURVE",
"349 10 OFFCURVE",
"392 50 CURVE",
"441 25 LINE",
"392 -26 OFFCURVE",
"371 -65 OFFCURVE",
"371 -105 CURVE SMOOTH",
"371 -166 OFFCURVE",
"420 -204 OFFCURVE",
"485 -204 CURVE SMOOTH",
"508 -204 OFFCURVE",
"533 -199 OFFCURVE",
"559 -187 CURVE",
"547 -136 LINE",
"527 -142 OFFCURVE",
"514 -145 OFFCURVE",
"501 -145 CURVE SMOOTH",
"467 -145 OFFCURVE",
"448 -121 OFFCURVE",
"448 -92 CURVE SMOOTH",
"448 -67 OFFCURVE",
"464 -40 OFFCURVE",
"493 -2 CURVE",
"492 -1 LINE"
);
},
{
closed = 1;
nodes = (
"394 125 LINE",
"362 88 OFFCURVE",
"318 65 OFFCURVE",
"259 65 CURVE SMOOTH",
"192 65 OFFCURVE",
"134 97 OFFCURVE",
"134 163 CURVE SMOOTH",
"134 233 OFFCURVE",
"202 261 OFFCURVE",
"266 261 CURVE SMOOTH",
"324 261 OFFCURVE",
"364 244 OFFCURVE",
"394 227 CURVE"
);
}
);
width = 597;
}
);
unicode = 0105;
},
{
glyphname = Cacute;
layers = (
{
hints = (
{
horizontal = 1;
place = "{-14, 94}";
type = Stem;
},
{
horizontal = 1;
place = "{625, 93}";
type = Stem;
},
{
place = "{49, 106}";
type = Stem;
}
);
layerId = "19D549C8-9BA7-4C6B-AF4A-F08379699900";
paths = (
{
closed = 1;
nodes = (
"364 781 LINE",
"436 781 LINE",
"567 910 LINE",
"458 936 LINE"
);
},
{
closed = 1;
nodes = (
"643 187 LINE",
"577 129 OFFCURVE",
"510 80 OFFCURVE",
"412 80 CURVE SMOOTH",
"259 80 OFFCURVE",
"155 201 OFFCURVE",
"155 352 CURVE SMOOTH",
"155 502 OFFCURVE",
"259 625 OFFCURVE",
"412 625 CURVE SMOOTH",
"516 625 OFFCURVE",
"580 587 OFFCURVE",
"630 532 CURVE",
"630 645 LINE",
"574 688 OFFCURVE",
"507 718 OFFCURVE",
"414 718 CURVE SMOOTH",
"203 718 OFFCURVE",
"49 557 OFFCURVE",
"49 351 CURVE SMOOTH",
"49 144 OFFCURVE",
"206 -14 OFFCURVE",
"410 -14 CURVE SMOOTH",
"508 -14 OFFCURVE",
"579 21 OFFCURVE",
"643 74 CURVE"
);
}
);
width = 699;
}
);
unicode = 0106;
},
{
glyphname = cacute;
layers = (
{
hints = (
{
horizontal = 1;
place = "{-10, 85}";
type = Stem;
},
{
horizontal = 1;
place = "{418, 84}";
type = Stem;
},
{
place = "{34, 100}";
type = Stem;
}
);
layerId = "19D549C8-9BA7-4C6B-AF4A-F08379699900";
paths = (
{
closed = 1;
nodes = (
"221 616 LINE",
"293 616 LINE",
"424 745 LINE",
"315 771 LINE"
);
},
{
closed = 1;
nodes = (
"422 466 LINE",
"386 491 OFFCURVE",
"336 502 OFFCURVE",
"290 502 CURVE SMOOTH",
"137 502 OFFCURVE",
"34 386 OFFCURVE",
"34 245 CURVE SMOOTH",
"34 102 OFFCURVE",
"141 -10 OFFCURVE",
"283 -10 CURVE SMOOTH",
"340 -10 OFFCURVE",
"389 8 OFFCURVE",
"427 30 CURVE",
"427 135 LINE",
"391 98 OFFCURVE",
"346 75 OFFCURVE",
"294 75 CURVE SMOOTH",
"204 75 OFFCURVE",
"134 155 OFFCURVE",
"134 250 CURVE SMOOTH",
"134 346 OFFCURVE",
"199 418 OFFCURVE",
"291 418 CURVE SMOOTH",
"342 418 OFFCURVE",
"386 396 OFFCURVE",
"422 358 CURVE"
);
}
);
width = 478;
}
);
unicode = 0107;
},
{
glyphname = Ccircumflex;
layers = (
{
hints = (
{
horizontal = 1;
place = "{-14, 94}";
type = Stem;
},
{
horizontal = 1;
place = "{625, 93}";
type = Stem;
},
{
horizontal = 1;
place = "{788, 149}";
type = Stem;
},
{
place = "{49, 106}";
type = Stem;
}
);
layerId = "19D549C8-9BA7-4C6B-AF4A-F08379699900";
paths = (
{
closed = 1;
nodes = (
"437 937 LINE",
"360 937 LINE",
"248 788 LINE",
"324 788 LINE",
"398 867 LINE",
"472 788 LINE",
"549 788 LINE"
);
},
{
closed = 1;
nodes = (
"643 187 LINE",
"577 129 OFFCURVE",
"510 80 OFFCURVE",
"412 80 CURVE SMOOTH",
"259 80 OFFCURVE",
"155 201 OFFCURVE",
"155 352 CURVE SMOOTH",
"155 502 OFFCURVE",
"259 625 OFFCURVE",
"412 625 CURVE SMOOTH",
"516 625 OFFCURVE",
"580 587 OFFCURVE",
"630 532 CURVE",
"630 645 LINE",
"574 688 OFFCURVE",
"507 718 OFFCURVE",
"414 718 CURVE SMOOTH",
"203 718 OFFCURVE",
"49 557 OFFCURVE",
"49 351 CURVE SMOOTH",
"49 144 OFFCURVE",
"206 -14 OFFCURVE",
"410 -14 CURVE SMOOTH",
"508 -14 OFFCURVE",
"579 21 OFFCURVE",
"643 74 CURVE"
);
}
);
width = 699;
}
);
unicode = 0108;
},
{
glyphname = ccircumflex;
layers = (
{
hints = (
{
horizontal = 1;
place = "{-10, 85}";
type = Stem;
},
{
horizontal = 1;
place = "{418, 84}";
type = Stem;
},
{
horizontal = 1;
place = "{623, 149}";
type = Stem;
},
{
place = "{34, 100}";
type = Stem;
}
);
layerId = "19D549C8-9BA7-4C6B-AF4A-F08379699900";
paths = (
{
closed = 1;
nodes = (
"315 772 LINE",
"238 772 LINE",
"126 623 LINE",
"202 623 LINE",
"276 702 LINE",
"350 623 LINE",
"427 623 LINE"
);
},
{
closed = 1;
nodes = (
"422 466 LINE",
"386 491 OFFCURVE",
"336 502 OFFCURVE",
"290 502 CURVE SMOOTH",
"137 502 OFFCURVE",
"34 386 OFFCURVE",
"34 245 CURVE SMOOTH",
"34 102 OFFCURVE",
"141 -10 OFFCURVE",
"283 -10 CURVE SMOOTH",
"340 -10 OFFCURVE",
"389 8 OFFCURVE",
"427 30 CURVE",
"427 135 LINE",
"391 98 OFFCURVE",
"346 75 OFFCURVE",
"294 75 CURVE SMOOTH",
"204 75 OFFCURVE",
"134 155 OFFCURVE",
"134 250 CURVE SMOOTH",
"134 346 OFFCURVE",
"199 418 OFFCURVE",
"291 418 CURVE SMOOTH",
"342 418 OFFCURVE",
"386 396 OFFCURVE",
"422 358 CURVE"
);
}
);
width = 454;
}
);
unicode = 0109;
},
{
glyphname = Cdotaccent;
layers = (
{
hints = (
{
horizontal = 1;
place = "{-14, 94}";
type = Stem;
},
{
horizontal = 1;
place = "{625, 93}";
type = Stem;
},
{
horizontal = 1;
place = "{778, 132}";
type = Stem;
},
{
place = "{38, 106}";
type = Stem;
},
{
place = "{326, 136}";
type = Stem;
}
);
layerId = "19D549C8-9BA7-4C6B-AF4A-F08379699900";
paths = (
{
closed = 1;
nodes = (
"326 807 OFFCURVE",
"357 778 OFFCURVE",
"394 778 CURVE SMOOTH",
"433 778 OFFCURVE",
"462 807 OFFCURVE",
"462 844 CURVE SMOOTH",
"462 884 OFFCURVE",
"433 910 OFFCURVE",
"394 910 CURVE SMOOTH",
"357 910 OFFCURVE",
"326 884 OFFCURVE",
"326 844 CURVE SMOOTH"
);
},
{
closed = 1;
nodes = (
"632 187 LINE",
"566 129 OFFCURVE",
"499 80 OFFCURVE",
"401 80 CURVE SMOOTH",
"248 80 OFFCURVE",
"144 201 OFFCURVE",
"144 352 CURVE SMOOTH",
"144 502 OFFCURVE",
"248 625 OFFCURVE",
"401 625 CURVE SMOOTH",
"505 625 OFFCURVE",
"569 587 OFFCURVE",
"619 532 CURVE",
"619 645 LINE",
"563 688 OFFCURVE",
"496 718 OFFCURVE",
"403 718 CURVE SMOOTH",
"192 718 OFFCURVE",
"38 557 OFFCURVE",
"38 351 CURVE SMOOTH",
"38 144 OFFCURVE",
"195 -14 OFFCURVE",
"399 -14 CURVE SMOOTH",
"497 -14 OFFCURVE",
"568 21 OFFCURVE",
"632 74 CURVE"
);
}
);
width = 634;
}
);
unicode = 010A;
},
{
glyphname = cdotaccent;
layers = (
{
hints = (
{
horizontal = 1;
place = "{-10, 85}";
type = Stem;
},
{
horizontal = 1;
place = "{418, 84}";
type = Stem;
},
{
horizontal = 1;
place = "{613, 132}";
type = Stem;
},
{
place = "{32, 100}";
type = Stem;
},
{
place = "{203, 136}";
type = Stem;
}
);
layerId = "19D549C8-9BA7-4C6B-AF4A-F08379699900";
paths = (
{
closed = 1;
nodes = (
"203 642 OFFCURVE",
"234 613 OFFCURVE",
"271 613 CURVE SMOOTH",
"310 613 OFFCURVE",
"339 642 OFFCURVE",
"339 679 CURVE SMOOTH",
"339 719 OFFCURVE",
"310 745 OFFCURVE",
"271 745 CURVE SMOOTH",
"234 745 OFFCURVE",
"203 719 OFFCURVE",
"203 679 CURVE SMOOTH"
);
},
{
closed = 1;
nodes = (
"420 466 LINE",
"384 491 OFFCURVE",
"334 502 OFFCURVE",
"288 502 CURVE SMOOTH",
"135 502 OFFCURVE",
"32 386 OFFCURVE",
"32 245 CURVE SMOOTH",
"32 102 OFFCURVE",
"139 -10 OFFCURVE",
"281 -10 CURVE SMOOTH",
"338 -10 OFFCURVE",
"387 8 OFFCURVE",
"425 30 CURVE",
"425 135 LINE",
"389 98 OFFCURVE",
"344 75 OFFCURVE",
"292 75 CURVE SMOOTH",
"202 75 OFFCURVE",
"132 155 OFFCURVE",
"132 250 CURVE SMOOTH",
"132 346 OFFCURVE",
"197 418 OFFCURVE",
"289 418 CURVE SMOOTH",
"340 418 OFFCURVE",
"384 396 OFFCURVE",
"420 358 CURVE"
);
}
);
width = 444;
}
);
unicode = 010B;
},
{
glyphname = Ccaron;
layers = (
{
hints = (
{
horizontal = 1;
place = "{-14, 94}";
type = Stem;
},
{
horizontal = 1;
place = "{625, 93}";
type = Stem;
},
{
horizontal = 1;
place = "{768, 151}";
type = Stem;
},
{
place = "{49, 106}";
type = Stem;
}
);
layerId = "19D549C8-9BA7-4C6B-AF4A-F08379699900";
paths = (
{
closed = 1;
nodes = (
"494 919 LINE",
"419 837 LINE",
"345 919 LINE",
"262 919 LINE",
"380 768 LINE",
"459 768 LINE",
"576 919 LINE"
);
},
{
closed = 1;
nodes = (
"643 187 LINE",
"577 129 OFFCURVE",
"510 80 OFFCURVE",
"412 80 CURVE SMOOTH",
"259 80 OFFCURVE",
"155 201 OFFCURVE",
"155 352 CURVE SMOOTH",
"155 502 OFFCURVE",
"259 625 OFFCURVE",
"412 625 CURVE SMOOTH",
"516 625 OFFCURVE",
"580 587 OFFCURVE",
"630 532 CURVE",
"630 645 LINE",
"574 688 OFFCURVE",
"507 718 OFFCURVE",
"414 718 CURVE SMOOTH",
"203 718 OFFCURVE",
"49 557 OFFCURVE",
"49 351 CURVE SMOOTH",
"49 144 OFFCURVE",
"206 -14 OFFCURVE",
"410 -14 CURVE SMOOTH",
"508 -14 OFFCURVE",
"579 21 OFFCURVE",
"643 74 CURVE"
);
}
);
width = 699;
}
);
unicode = 010C;
},
{
glyphname = ccaron;
layers = (
{
hints = (
{
horizontal = 1;
place = "{-10, 85}";
type = Stem;
},
{
horizontal = 1;
place = "{418, 84}";
type = Stem;
},
{
horizontal = 1;
place = "{603, 151}";
type = Stem;
},
{
place = "{34, 100}";
type = Stem;
}
);
layerId = "19D549C8-9BA7-4C6B-AF4A-F08379699900";
paths = (
{
closed = 1;
nodes = (
"344 754 LINE",
"269 672 LINE",
"195 754 LINE",
"112 754 LINE",
"230 603 LINE",
"309 603 LINE",
"426 754 LINE"
);
},
{
closed = 1;
nodes = (
"422 466 LINE",
"386 491 OFFCURVE",
"336 502 OFFCURVE",
"290 502 CURVE SMOOTH",
"137 502 OFFCURVE",
"34 386 OFFCURVE",
"34 245 CURVE SMOOTH",
"34 102 OFFCURVE",
"141 -10 OFFCURVE",
"283 -10 CURVE SMOOTH",
"340 -10 OFFCURVE",
"389 8 OFFCURVE",
"427 30 CURVE",
"427 135 LINE",
"391 98 OFFCURVE",
"346 75 OFFCURVE",
"294 75 CURVE SMOOTH",
"204 75 OFFCURVE",
"134 155 OFFCURVE",
"134 250 CURVE SMOOTH",
"134 346 OFFCURVE",
"199 418 OFFCURVE",
"291 418 CURVE SMOOTH",
"342 418 OFFCURVE",
"386 396 OFFCURVE",
"422 358 CURVE"
);
}
);
width = 456;
}
);
unicode = 010D;
},
{
glyphname = Dcaron;
layers = (
{
hints = (
{
horizontal = 1;
place = "{0, 92}";
type = Stem;
},
{
horizontal = 1;
place = "{611, 93}";
type = Stem;
},
{
horizontal = 1;
place = "{768, 151}";
type = Stem;
},
{
place = "{77, 103}";
type = Stem;
},
{
place = "{577, 108}";
type = Stem;
}
);
layerId = "19D549C8-9BA7-4C6B-AF4A-F08379699900";
paths = (
{
closed = 1;
nodes = (
"409 919 LINE",
"334 837 LINE",
"260 919 LINE",
"177 919 LINE",
"295 768 LINE",
"374 768 LINE",
"491 919 LINE"
);
},
{
closed = 1;
nodes = (
"77 0 LINE",
"304 0 LINE SMOOTH",
"535 0 OFFCURVE",
"685 147 OFFCURVE",
"685 353 CURVE SMOOTH",
"685 565 OFFCURVE",
"526 704 OFFCURVE",
"306 704 CURVE SMOOTH",
"77 704 LINE"
);
},
{
closed = 1;
nodes = (
"180 611 LINE",
"342 611 LINE SMOOTH",
"493 611 OFFCURVE",
"577 479 OFFCURVE",
"577 351 CURVE SMOOTH",
"577 199 OFFCURVE",
"478 92 OFFCURVE",
"302 92 CURVE SMOOTH",
"180 92 LINE"
);
}
);
width = 734;
}
);
unicode = 010E;
},
{
glyphname = dcaron;
layers = (
{
hints = (
{
place = "{34, 100}";
type = Stem;
},
{
place = "{452, 100}";
type = Stem;
},
{
horizontal = 1;
place = "{-10, 85}";
type = Stem;
},
{
horizontal = 1;
place = "{-1, 21}";
target = up;
type = BottomGhost;
},
{
horizontal = 1;
place = "{419, 85}";
type = Stem;
},
{
horizontal = 1;
place = "{591, 141}";
type = Stem;
}
);
layerId = "19D549C8-9BA7-4C6B-AF4A-F08379699900";
paths = (
{
closed = 1;
nodes = (
"708 770 LINE",
"618 770 LINE",
"587 591 LINE",
"656 591 LINE"
);
},
{
closed = 1;
nodes = (
"552 -1 LINE",
"552 732 LINE",
"452 732 LINE",
"452 411 LINE",
"412 467 OFFCURVE",
"351 504 OFFCURVE",
"270 504 CURVE SMOOTH",
"142 504 OFFCURVE",
"34 403 OFFCURVE",
"34 246 CURVE SMOOTH",
"34 89 OFFCURVE",
"142 -10 OFFCURVE",
"273 -10 CURVE SMOOTH",
"352 -10 OFFCURVE",
"401 25 OFFCURVE",
"444 76 CURVE"
);
},
{
closed = 1;
nodes = (
"134 350 OFFCURVE",
"204 419 OFFCURVE",
"291 419 CURVE SMOOTH",
"378 419 OFFCURVE",
"455 346 OFFCURVE",
"455 247 CURVE SMOOTH",
"455 147 OFFCURVE",
"380 75 OFFCURVE",
"291 75 CURVE SMOOTH",
"202 75 OFFCURVE",
"134 146 OFFCURVE",
"134 247 CURVE SMOOTH"
);
}
);
width = 605;
}
);
unicode = 010F;
},
{
glyphname = Dcroat;
layers = (
{
hints = (
{
horizontal = 1;
place = "{0, 92}";
type = Stem;
},
{
horizontal = 1;
place = "{307, 92}";
type = Stem;
},
{
horizontal = 1;
place = "{611, 93}";
type = Stem;
},
{
place = "{107, 103}";
type = Stem;
},
{
place = "{607, 108}";
type = Stem;
}
);
layerId = "19D549C8-9BA7-4C6B-AF4A-F08379699900";
paths = (
{
closed = 1;
nodes = (
"107 0 LINE",
"334 0 LINE SMOOTH",
"566 0 OFFCURVE",
"715 147 OFFCURVE",
"715 353 CURVE SMOOTH",
"715 565 OFFCURVE",
"556 704 OFFCURVE",
"336 704 CURVE SMOOTH",
"107 704 LINE",
"107 399 LINE",
"14 399 LINE",
"14 307 LINE",
"107 307 LINE"
);
},
{
closed = 1;
nodes = (
"210 611 LINE",
"372 611 LINE SMOOTH",
"523 611 OFFCURVE",
"607 479 OFFCURVE",
"607 351 CURVE SMOOTH",
"607 199 OFFCURVE",
"508 92 OFFCURVE",
"332 92 CURVE SMOOTH",
"210 92 LINE",
"210 307 LINE",
"295 307 LINE",
"295 399 LINE",
"210 399 LINE"
);
}
);
width = 765;
}
);
unicode = 0110;
},
{
glyphname = dcroat;
layers = (
{
hints = (
{
place = "{34, 100}";
type = Stem;
},
{
place = "{452, 100}";
type = Stem;
},
{
horizontal = 1;
place = "{-10, 85}";
type = Stem;
},
{
horizontal = 1;
place = "{-1, 21}";
target = up;
type = BottomGhost;
},
{
horizontal = 1;
place = "{419, 85}";
type = Stem;
},
{
horizontal = 1;
place = "{578, 92}";
type = Stem;
}
);
layerId = "19D549C8-9BA7-4C6B-AF4A-F08379699900";
paths = (
{
closed = 1;
nodes = (
"552 -1 LINE",
"552 578 LINE",
"604 578 LINE",
"604 670 LINE",
"552 670 LINE",
"552 732 LINE",
"452 732 LINE",
"452 670 LINE",
"323 670 LINE",
"323 578 LINE",
"452 578 LINE",
"452 411 LINE",
"412 467 OFFCURVE",
"351 504 OFFCURVE",
"270 504 CURVE SMOOTH",
"142 504 OFFCURVE",
"34 403 OFFCURVE",
"34 246 CURVE SMOOTH",
"34 89 OFFCURVE",
"142 -10 OFFCURVE",
"273 -10 CURVE SMOOTH",
"352 -10 OFFCURVE",
"401 25 OFFCURVE",
"444 76 CURVE"
);
},
{
closed = 1;
nodes = (
"134 350 OFFCURVE",
"204 419 OFFCURVE",
"291 419 CURVE SMOOTH",
"378 419 OFFCURVE",
"455 346 OFFCURVE",
"455 247 CURVE SMOOTH",
"455 147 OFFCURVE",
"380 75 OFFCURVE",
"291 75 CURVE SMOOTH",
"202 75 OFFCURVE",
"134 146 OFFCURVE",
"134 247 CURVE SMOOTH"
);
}
);
width = 599;
}
);
unicode = 0111;
},
{
glyphname = Emacron;
layers = (
{
hints = (
{
horizontal = 1;
place = "{0, 91}";
type = Stem;
},
{
horizontal = 1;
place = "{314, 88}";
type = Stem;
},
{
horizontal = 1;
place = "{613, 91}";
type = Stem;
},
{
horizontal = 1;
place = "{771, 67}";
type = Stem;
},
{
place = "{77, 103}";
type = Stem;
}
);
layerId = "19D549C8-9BA7-4C6B-AF4A-F08379699900";
paths = (
{
closed = 1;
nodes = (
"484 838 LINE",
"171 838 LINE",
"171 771 LINE",
"484 771 LINE"
);
},
{
closed = 1;
nodes = (
"180 314 LINE",
"524 314 LINE",
"524 402 LINE",
"180 402 LINE",
"180 613 LINE",
"554 613 LINE",
"554 704 LINE",
"77 704 LINE",
"77 0 LINE",
"564 0 LINE",
"564 91 LINE",
"180 91 LINE"
);
}
);
width = 628;
}
);
unicode = 0112;
},
{
glyphname = emacron;
layers = (
{
hints = (
{
horizontal = 1;
place = "{-12, 81}";
type = Stem;
},
{
horizontal = 1;
place = "{422, 82}";
type = Stem;
},
{
horizontal = 1;
place = "{606, 67}";
type = Stem;
},
{
place = "{34, 96}";
type = Stem;
}
);
layerId = "19D549C8-9BA7-4C6B-AF4A-F08379699900";
paths = (
{
closed = 1;
nodes = (
"427 673 LINE",
"114 673 LINE",
"114 606 LINE",
"427 606 LINE"
);
},
{
closed = 1;
nodes = (
"214 69 OFFCURVE",
"164 111 OFFCURVE",
"140 171 CURVE",
"512 262 LINE",
"499 392 OFFCURVE",
"418 504 OFFCURVE",
"273 504 CURVE SMOOTH",
"129 504 OFFCURVE",
"34 390 OFFCURVE",
"34 244 CURVE SMOOTH",
"34 94 OFFCURVE",
"142 -12 OFFCURVE",
"289 -12 CURVE SMOOTH",
"358 -12 OFFCURVE",
"422 10 OFFCURVE",
"467 44 CURVE",
"467 142 LINE",
"427 103 OFFCURVE",
"367 69 OFFCURVE",
"294 69 CURVE SMOOTH"
);
},
{
closed = 1;
nodes = (
"130 252 LINE",
"130 337 OFFCURVE",
"179 422 OFFCURVE",
"274 422 CURVE SMOOTH",
"345 422 OFFCURVE",
"396 377 OFFCURVE",
"412 317 CURVE",
"134 245 LINE"
);
}
);
width = 546;
}
);
unicode = 0113;
},
{
glyphname = Ebreve;
layers = (
{
hints = (
{
horizontal = 1;
place = "{0, 91}";
type = Stem;
},
{
horizontal = 1;
place = "{314, 88}";
type = Stem;
},
{
horizontal = 1;
place = "{613, 91}";
type = Stem;
},
{
horizontal = 1;
place = "{762, 75}";
type = Stem;
},
{
place = "{77, 103}";
type = Stem;
}
);
layerId = "19D549C8-9BA7-4C6B-AF4A-F08379699900";
paths = (
{
closed = 1;
nodes = (
"423 909 LINE",
"411 863 OFFCURVE",
"378 837 OFFCURVE",
"334 837 CURVE SMOOTH",
"288 837 OFFCURVE",
"254 863 OFFCURVE",
"242 909 CURVE",
"179 909 LINE",
"190 821 OFFCURVE",
"246 762 OFFCURVE",
"331 762 CURVE SMOOTH",
"415 762 OFFCURVE",
"477 821 OFFCURVE",
"485 909 CURVE"
);
},
{
closed = 1;
nodes = (
"180 314 LINE",
"524 314 LINE",
"524 402 LINE",
"180 402 LINE",
"180 613 LINE",
"554 613 LINE",
"554 704 LINE",
"77 704 LINE",
"77 0 LINE",
"564 0 LINE",
"564 91 LINE",
"180 91 LINE"
);
}
);
width = 628;
}
);
unicode = 0114;
},
{
glyphname = ebreve;
layers = (
{
hints = (
{
horizontal = 1;
place = "{-12, 81}";
type = Stem;
},
{
horizontal = 1;
place = "{422, 82}";
type = Stem;
},
{
horizontal = 1;
place = "{597, 75}";
type = Stem;
},
{
place = "{34, 96}";
type = Stem;
}
);
layerId = "19D549C8-9BA7-4C6B-AF4A-F08379699900";
paths = (
{
closed = 1;
nodes = (
"374 744 LINE",
"362 698 OFFCURVE",
"329 672 OFFCURVE",
"285 672 CURVE SMOOTH",
"239 672 OFFCURVE",
"205 698 OFFCURVE",
"193 744 CURVE",
"130 744 LINE",
"141 656 OFFCURVE",
"197 597 OFFCURVE",
"282 597 CURVE SMOOTH",
"366 597 OFFCURVE",
"428 656 OFFCURVE",
"436 744 CURVE"
);
},
{
closed = 1;
nodes = (
"214 69 OFFCURVE",
"164 111 OFFCURVE",
"140 171 CURVE",
"512 262 LINE",
"499 392 OFFCURVE",
"418 504 OFFCURVE",
"273 504 CURVE SMOOTH",
"129 504 OFFCURVE",
"34 390 OFFCURVE",
"34 244 CURVE SMOOTH",
"34 94 OFFCURVE",
"142 -12 OFFCURVE",
"289 -12 CURVE SMOOTH",
"358 -12 OFFCURVE",
"422 10 OFFCURVE",
"467 44 CURVE",
"467 142 LINE",
"427 103 OFFCURVE",
"367 69 OFFCURVE",
"294 69 CURVE SMOOTH"
);
},
{
closed = 1;
nodes = (
"130 252 LINE",
"130 337 OFFCURVE",
"179 422 OFFCURVE",
"274 422 CURVE SMOOTH",
"345 422 OFFCURVE",
"396 377 OFFCURVE",
"412 317 CURVE",
"134 245 LINE"
);
}
);
width = 546;
}
);
unicode = 0115;
},
{
glyphname = Edotaccent;
layers = (
{
hints = (
{
horizontal = 1;
place = "{0, 91}";
type = Stem;
},
{
horizontal = 1;
place = "{314, 88}";
type = Stem;
},
{
horizontal = 1;
place = "{613, 91}";
type = Stem;
},
{
horizontal = 1;
place = "{778, 132}";
type = Stem;
},
{
place = "{77, 103}";
type = Stem;
},
{
place = "{261, 136}";
type = Stem;
}
);
layerId = "19D549C8-9BA7-4C6B-AF4A-F08379699900";
paths = (
{
closed = 1;
nodes = (
"261 807 OFFCURVE",
"292 778 OFFCURVE",
"329 778 CURVE SMOOTH",
"368 778 OFFCURVE",
"397 807 OFFCURVE",
"397 844 CURVE SMOOTH",
"397 884 OFFCURVE",
"368 910 OFFCURVE",
"329 910 CURVE SMOOTH",
"292 910 OFFCURVE",
"261 884 OFFCURVE",
"261 844 CURVE SMOOTH"
);
},
{
closed = 1;
nodes = (
"180 314 LINE",
"524 314 LINE",
"524 402 LINE",
"180 402 LINE",
"180 613 LINE",
"554 613 LINE",
"554 704 LINE",
"77 704 LINE",
"77 0 LINE",
"564 0 LINE",
"564 91 LINE",
"180 91 LINE"
);
}
);
width = 628;
}
);
unicode = 0116;
},
{
glyphname = edotaccent;
layers = (
{
hints = (
{
horizontal = 1;
place = "{-12, 81}";
type = Stem;
},
{
horizontal = 1;
place = "{422, 82}";
type = Stem;
},
{
horizontal = 1;
place = "{613, 132}";
type = Stem;
},
{
place = "{34, 96}";
type = Stem;
},
{
place = "{201, 136}";
type = Stem;
}
);
layerId = "19D549C8-9BA7-4C6B-AF4A-F08379699900";
paths = (
{
closed = 1;
nodes = (
"201 642 OFFCURVE",
"232 613 OFFCURVE",
"269 613 CURVE SMOOTH",
"308 613 OFFCURVE",
"337 642 OFFCURVE",
"337 679 CURVE SMOOTH",
"337 719 OFFCURVE",
"308 745 OFFCURVE",
"269 745 CURVE SMOOTH",
"232 745 OFFCURVE",
"201 719 OFFCURVE",
"201 679 CURVE SMOOTH"
);
},
{
closed = 1;
nodes = (
"214 69 OFFCURVE",
"164 111 OFFCURVE",
"140 171 CURVE",
"512 262 LINE",
"499 392 OFFCURVE",
"418 504 OFFCURVE",
"273 504 CURVE SMOOTH",
"129 504 OFFCURVE",
"34 390 OFFCURVE",
"34 244 CURVE SMOOTH",
"34 94 OFFCURVE",
"142 -12 OFFCURVE",
"289 -12 CURVE SMOOTH",
"358 -12 OFFCURVE",
"422 10 OFFCURVE",
"467 44 CURVE",
"467 142 LINE",
"427 103 OFFCURVE",
"367 69 OFFCURVE",
"294 69 CURVE SMOOTH"
);
},
{
closed = 1;
nodes = (
"130 252 LINE",
"130 337 OFFCURVE",
"179 422 OFFCURVE",
"274 422 CURVE SMOOTH",
"345 422 OFFCURVE",
"396 377 OFFCURVE",
"412 317 CURVE",
"134 245 LINE"
);
}
);
width = 546;
}
);
unicode = 0117;
},
{
glyphname = Eogonek;
layers = (
{
hints = (
{
horizontal = 1;
place = "{-204, 59}";
type = Stem;
},
{
horizontal = 1;
place = "{0, 91}";
type = Stem;
},
{
horizontal = 1;
place = "{314, 88}";
type = Stem;
},
{
horizontal = 1;
place = "{613, 91}";
type = Stem;
},
{
place = "{77, 103}";
type = Stem;
},
{
place = "{442, 77}";
type = Stem;
}
);
layerId = "19D549C8-9BA7-4C6B-AF4A-F08379699900";
paths = (
{
closed = 1;
nodes = (
"180 314 LINE",
"524 314 LINE",
"524 402 LINE",
"180 402 LINE",
"180 613 LINE",
"554 613 LINE",
"554 704 LINE",
"77 704 LINE",
"77 0 LINE",
"493 0 LINE",
"469 -30 OFFCURVE",
"442 -67 OFFCURVE",
"442 -108 CURVE SMOOTH",
"442 -169 OFFCURVE",
"491 -204 OFFCURVE",
"556 -204 CURVE SMOOTH",
"579 -204 OFFCURVE",
"604 -199 OFFCURVE",
"630 -187 CURVE",
"618 -136 LINE",
"598 -142 OFFCURVE",
"585 -145 OFFCURVE",
"572 -145 CURVE SMOOTH",
"540 -145 OFFCURVE",
"519 -124 OFFCURVE",
"519 -95 CURVE SMOOTH",
"519 -66 OFFCURVE",
"535 -43 OFFCURVE",
"564 0 CURVE",
"564 91 LINE",
"180 91 LINE"
);
}
);
width = 694;
}
);
unicode = 0118;
},
{
glyphname = eogonek;
layers = (
{
hints = (
{
horizontal = 1;
place = "{-203, 59}";
type = Stem;
},
{
horizontal = 1;
place = "{-12, 81}";
type = Stem;
},
{
horizontal = 1;
place = "{422, 82}";
type = Stem;
},
{
place = "{34, 96}";
type = Stem;
},
{
place = "{292, 77}";
type = Stem;
}
);
layerId = "19D549C8-9BA7-4C6B-AF4A-F08379699900";
paths = (
{
closed = 1;
nodes = (
"468 -135 LINE",
"448 -141 OFFCURVE",
"435 -144 OFFCURVE",
"422 -144 CURVE SMOOTH",
"390 -144 OFFCURVE",
"369 -123 OFFCURVE",
"369 -93 CURVE SMOOTH",
"369 -64 OFFCURVE",
"386 -25 OFFCURVE",
"468 45 CURVE",
"467 44 LINE",
"467 142 LINE",
"427 103 OFFCURVE",
"367 69 OFFCURVE",
"294 69 CURVE SMOOTH",
"214 69 OFFCURVE",
"164 111 OFFCURVE",
"140 171 CURVE",
"512 262 LINE",
"499 392 OFFCURVE",
"418 504 OFFCURVE",
"273 504 CURVE SMOOTH",
"129 504 OFFCURVE",
"34 390 OFFCURVE",
"34 244 CURVE SMOOTH",
"34 94 OFFCURVE",
"142 -12 OFFCURVE",
"289 -12 CURVE SMOOTH",
"304 -12 OFFCURVE",
"319 -11 OFFCURVE",
"334 -9 CURVE",
"310 -35 OFFCURVE",
"292 -69 OFFCURVE",
"292 -107 CURVE SMOOTH",
"292 -168 OFFCURVE",
"341 -203 OFFCURVE",
"406 -203 CURVE SMOOTH",
"429 -203 OFFCURVE",
"454 -198 OFFCURVE",
"480 -186 CURVE"
);
},
{
closed = 1;
nodes = (
"130 252 LINE",
"130 337 OFFCURVE",
"179 422 OFFCURVE",
"274 422 CURVE SMOOTH",
"345 422 OFFCURVE",
"396 377 OFFCURVE",
"412 317 CURVE",
"134 245 LINE"
);
}
);
width = 546;
}
);
unicode = 0119;
},
{
glyphname = Ecaron;
layers = (
{
hints = (
{
horizontal = 1;
place = "{0, 91}";
type = Stem;
},
{
horizontal = 1;
place = "{314, 88}";
type = Stem;
},
{
horizontal = 1;
place = "{613, 91}";
type = Stem;
},
{
horizontal = 1;
place = "{768, 151}";
type = Stem;
},
{
place = "{77, 103}";
type = Stem;
}
);
layerId = "19D549C8-9BA7-4C6B-AF4A-F08379699900";
paths = (
{
closed = 1;
nodes = (
"403 919 LINE",
"328 837 LINE",
"254 919 LINE",
"171 919 LINE",
"289 768 LINE",
"368 768 LINE",
"485 919 LINE"
);
},
{
closed = 1;
nodes = (
"180 314 LINE",
"524 314 LINE",
"524 402 LINE",
"180 402 LINE",
"180 613 LINE",
"554 613 LINE",
"554 704 LINE",
"77 704 LINE",
"77 0 LINE",
"564 0 LINE",
"564 91 LINE",
"180 91 LINE"
);
}
);
width = 628;
}
);
unicode = 011A;
},
{
glyphname = ecaron;
layers = (
{
hints = (
{
horizontal = 1;
place = "{-12, 81}";
type = Stem;
},
{
horizontal = 1;
place = "{422, 82}";
type = Stem;
},
{
horizontal = 1;
place = "{603, 151}";
type = Stem;
},
{
place = "{34, 96}";
type = Stem;
}
);
layerId = "19D549C8-9BA7-4C6B-AF4A-F08379699900";
paths = (
{
closed = 1;
nodes = (
"341 754 LINE",
"266 672 LINE",
"192 754 LINE",
"109 754 LINE",
"227 603 LINE",
"306 603 LINE",
"423 754 LINE"
);
},
{
closed = 1;
nodes = (
"214 69 OFFCURVE",
"164 111 OFFCURVE",
"140 171 CURVE",
"512 262 LINE",
"499 392 OFFCURVE",
"418 504 OFFCURVE",
"273 504 CURVE SMOOTH",
"129 504 OFFCURVE",
"34 390 OFFCURVE",
"34 244 CURVE SMOOTH",
"34 94 OFFCURVE",
"142 -12 OFFCURVE",
"289 -12 CURVE SMOOTH",
"358 -12 OFFCURVE",
"422 10 OFFCURVE",
"467 44 CURVE",
"467 142 LINE",
"427 103 OFFCURVE",
"367 69 OFFCURVE",
"294 69 CURVE SMOOTH"
);
},
{
closed = 1;
nodes = (
"130 252 LINE",
"130 337 OFFCURVE",
"179 422 OFFCURVE",
"274 422 CURVE SMOOTH",
"345 422 OFFCURVE",
"396 377 OFFCURVE",
"412 317 CURVE",
"134 245 LINE"
);
}
);
width = 546;
}
);
unicode = 011B;
},
